<svg class="line-5-desk" width="100%" height="187" viewBox="0 0 966 187" fill="none">
                                    <path id="Vector 622" d="M0 186H323H695C717.644 186 736 167.644 736 145V109M736 109H548C525.356 109 507 90.6437 507 68V0M736 109H924C946.644 109 965 90.6437 965 68V0" fill="none" stroke="#122F47" stroke-width="2" stroke-dasharray="12 12" mask="url(#svg4)"/>
                                    <mask id="svg4">
                                        <path class="text" id="Vector 622" d="M0 186H323H695C717.644 186 736 167.644 736 145V109M736 109H548C525.356 109 507 90.6437 507 68V0M736 109H924C946.644 109 965 90.6437 965 68V0" stroke="#fff" stroke-width="2" stroke-dasharray="12 12"/>
                                    </mask>
                                </svg>