<svg width="402" height="321" viewBox="0 0 402 321" fill="none">
                                    <path d="M26 290L193 196" stroke="black"/>
                                    <path d="M218 209.5L26.9995 319.635C26.3329 320.02 25.5 319.539 25.5 318.769V290L193 196L218 209.5Z" fill="#72D0C6" stroke="#122F47"/>
                                    <mask id="path-3-inside-1_398_1125" fill="white">
                                        <path d="M402 143C402 188.84 340.887 226 265.5 226C190.113 226 129 188.84 129 143C129 97.1604 190.113 60 265.5 60C340.887 60 402 97.1604 402 143Z"/>
                                    </mask>
                                    <path d="M402 143C402 188.84 340.887 226 265.5 226C190.113 226 129 188.84 129 143C129 97.1604 190.113 60 265.5 60C340.887 60 402 97.1604 402 143Z" fill="#72D0C6"/>
                                    <path d="M402.5 143V118.5H401.5V143H402.5ZM401 143C401 165.437 386.039 185.915 361.501 200.835C336.98 215.745 303.041 225 265.5 225V227C303.346 227 337.657 217.674 362.54 202.544C387.404 187.425 403 166.402 403 143H401ZM265.5 225C227.959 225 194.02 215.745 169.499 200.835C144.961 185.915 130 165.437 130 143H128C128 166.402 143.596 187.425 168.46 202.544C193.343 217.674 227.654 227 265.5 227V225ZM130 143C130 120.563 144.961 100.085 169.499 85.1646C194.02 70.2546 227.959 61 265.5 61V59C227.654 59 193.343 68.3256 168.46 83.4557C143.596 98.5749 128 119.598 128 143H130ZM265.5 61C303.041 61 336.98 70.2546 361.501 85.1646C386.039 100.085 401 120.563 401 143H403C403 119.598 387.404 98.5749 362.54 83.4557C337.657 68.3256 303.346 59 265.5 59V61Z" fill="black" mask="url(#path-3-inside-1_398_1125)"/>
                                    <path d="M1 278L165.068 182.252C165.34 182.093 165.671 182.072 165.961 182.195L187.389 191.242C187.759 191.398 188 191.761 188 192.163V197.915C188 198.276 187.805 198.61 187.49 198.787L25 290V318.259C25 319.031 24.1628 319.512 23.4961 319.123L1.49613 306.289C1.18891 306.11 1 305.781 1 305.426V278Z" fill="#C0EDE3"/>
                                    <path d="M1 278L165.068 182.252C165.34 182.093 165.671 182.072 165.961 182.195L187.389 191.242C187.759 191.398 188 191.761 188 192.163V197.915C188 198.276 187.805 198.61 187.489 198.787L25 290M1 278V305.426C1 305.781 1.18891 306.11 1.49613 306.289L23.4961 319.123C24.1628 319.512 25 319.031 25 318.259V290M1 278L25 290" stroke="#122F47" stroke-linecap="round"/>
                                    <path d="M401.5 118C401.5 140.678 386.38 161.292 361.76 176.263C337.149 191.228 303.117 200.5 265.5 200.5C227.883 200.5 193.851 191.228 169.24 176.263C144.62 161.292 129.5 140.678 129.5 118C129.5 95.3215 144.62 74.7078 169.24 59.7374C193.851 44.7723 227.883 35.5 265.5 35.5C303.117 35.5 337.149 44.7723 361.76 59.7374C386.38 74.7078 401.5 95.3215 401.5 118Z" fill="#F9F3E5" stroke="#122F47"/>
                                    <path d="M366.5 118C366.5 134.879 355.242 150.243 336.865 161.413C318.497 172.578 293.09 179.5 265 179.5C236.91 179.5 211.503 172.578 193.135 161.413C174.758 150.243 163.5 134.879 163.5 118C163.5 101.121 174.758 85.7569 193.135 74.5866C211.503 63.4218 236.91 56.5 265 56.5C293.09 56.5 318.497 63.4218 336.865 74.5866C355.242 85.7569 366.5 101.121 366.5 118Z" fill="#72D0C6" stroke="#122F47"/>
                                    <g filter="url(#filter0_d_398_1125)">
                                        <path d="M176.519 147C174.504 143.957 174 139.815 174 138.125C174 103.814 220.237 76 277.274 76C312.979 76 344.453 86.9 363 103.47" stroke="#122F47" stroke-linecap="round"/>
                                    </g>
                                    <path d="M379 137.264C379 170.547 333.333 195 277 195C220.667 195 175 170.547 175 137.264C175 103.981 220.667 77 277 77C333.333 77 379 103.981 379 137.264Z" fill="#F9F3E5"/>
                                    <path d="M366.5 118C366.5 134.879 355.242 150.243 336.865 161.413C318.497 172.578 293.09 179.5 265 179.5C236.91 179.5 211.503 172.578 193.135 161.413C174.758 150.243 163.5 134.879 163.5 118C163.5 101.121 174.758 85.7569 193.135 74.5866C211.503 63.4218 236.91 56.5 265 56.5C293.09 56.5 318.497 63.4218 336.865 74.5866C355.242 85.7569 366.5 101.121 366.5 118Z" stroke="#122F47"/>
                                    <g class="notStroke">
                                        <rect class="rect1" width="16" height="114" rx="1" transform="matrix(-1 0 0 1 331 33)" fill="#FFA451"/>
                                        <rect class="rect2" width="15" height="147" rx="1" transform="matrix(-1 0 0 1 301 0)" fill="#FFA451"/>
                                        <rect class="rect3" width="15" height="122" rx="1" transform="matrix(-1 0 0 1 242 25)" fill="#FFA451"/>
                                        <rect class="rect4" width="16" height="78" rx="1" transform="matrix(-1 0 0 1 212 69)" fill="#FFA451"/>
                                        <rect class="rect5" width="16" height="78" rx="1" transform="matrix(-1 0 0 1 271 69)" fill="#FFA451"/>
                                    </g>
                                    <defs>
                                        <filter id="filter0_d_398_1125" x="169.5" y="75.5" width="198" height="80" filterUnits="userSpaceOnUse" color-interpolation-filters="sRGB">
                                            <feFlood flood-opacity="0" result="BackgroundImageFix"/>
                                            <feColorMatrix in="SourceAlpha" type="matrix" values="0 0 0 0 0 0 0 0 0 0 0 0 0 0 0 0 0 0 127 0" result="hardAlpha"/>
                                            <feOffset dy="4"/>
                                            <feGaussianBlur stdDeviation="2"/>
                                            <feComposite in2="hardAlpha" operator="out"/>
                                            <feColorMatrix type="matrix" values="0 0 0 0 0 0 0 0 0 0 0 0 0 0 0 0 0 0 0.25 0"/>
                                            <feBlend mode="normal" in2="BackgroundImageFix" result="effect1_dropShadow_398_1125"/>
                                            <feBlend mode="normal" in="SourceGraphic" in2="effect1_dropShadow_398_1125" result="shape"/>
                                        </filter>
                                    </defs>
                                </svg>