<svg width="118" height="137" viewBox="0 0 118 137" fill="none">
                                            <path d="M15.9051 129.489V8.75725C15.9051 4.64131 12.5685 1.30469 8.45256 1.30469H112.515C114.724 1.30469 116.515 3.09555 116.515 5.30469V129.489H15.9051Z" fill="#72D0C6"/>
                                            <path d="M103.1 19.1908C100.807 4.28571 72.7927 3.54046 58.3844 1.30469H111.298C115.471 1.90089 116.514 5.03097 116.514 6.52148L115.769 136.196C112.043 100.424 104.292 26.9415 103.1 19.1908Z" fill="#C0EDE3"/>
                                            <path d="M11.4336 98.188V98.188C5.67127 98.188 1 93.5167 1 87.7544V8.75725C1 4.64131 4.33662 1.30469 8.45256 1.30469V1.30469M8.45256 1.30469V1.30469C12.5685 1.30469 15.9051 4.64131 15.9051 8.75725V130.234H116.515V5.30469C116.515 3.09555 114.724 1.30469 112.515 1.30469H8.45256Z" stroke="#122F47"/>
                                            <g class="lineOffset" style="visibility: inherit; opacity: 0;">
                                                <path d="M28 53H103" stroke="#122F47" stroke-linecap="round"/>
                                                <path d="M28 66H103" stroke="#122F47" stroke-linecap="round"/>
                                                <path d="M28 78H103" stroke="#122F47" stroke-linecap="round"/>
                                                <path d="M28 91H103" stroke="#122F47" stroke-linecap="round"/>
                                                <path d="M28 103H103" stroke="#122F47" stroke-linecap="round"/>
                                            </g>
                                            <path d="M91.4736 44.5625V41.0508H92.1745V44.5625H91.4736ZM92.0758 43.1001V42.5228L93.517 42.518V43.0952L92.0758 43.1001ZM92.0758 41.628V41.0508H93.5861V41.628H92.0758Z" fill="#122F47"/>
                                            <path d="M95.7211 44.6538C95.3855 44.6538 95.1025 44.5913 94.8721 44.4662C94.6418 44.3412 94.4658 44.1664 94.344 43.9419C94.2256 43.7142 94.1664 43.448 94.1664 43.1434V41.0508H94.8672V43.1818C94.8672 43.3486 94.9001 43.4961 94.9659 43.6244C95.0317 43.7495 95.1272 43.8473 95.2522 43.9178C95.3805 43.9852 95.5368 44.0189 95.7211 44.0189C95.902 44.0189 96.0551 43.9852 96.1801 43.9178C96.3084 43.8473 96.4038 43.7495 96.4664 43.6244C96.5322 43.4993 96.5651 43.3518 96.5651 43.1818V41.0508H97.2659V43.1434C97.2659 43.448 97.2067 43.7142 97.0882 43.9419C96.9731 44.1664 96.8003 44.3412 96.57 44.4662C96.3397 44.5913 96.0567 44.6538 95.7211 44.6538Z" fill="#122F47"/>
                                            <path d="M98.0866 44.5625V41.0508H98.7726V44.5625H98.0866ZM98.6739 44.5625V43.9852H100.308V44.5625H98.6739ZM98.6739 43.0664V42.4891H100.179V43.0664H98.6739ZM98.6739 41.628V41.0508H100.268V41.628H98.6739Z" fill="#122F47"/>
                                            <path d="M101.027 44.5625V41.0508H101.728V44.5625H101.027ZM101.629 44.5625V43.9611H103.184V44.5625H101.629Z" fill="#122F47"/>
                                            <path d="M30.1668 34.9981V32.9443H33.4636C34.0642 32.9443 34.5205 32.7822 34.8328 32.4579C35.1451 32.1216 35.3012 31.6653 35.3012 31.0888C35.3012 30.5123 35.1451 30.0679 34.8328 29.7556C34.5205 29.4314 34.0642 29.2692 33.4636 29.2692H30.1668V27.7019H33.2835C34.1602 27.7019 34.9409 27.81 35.6255 28.0262C36.3221 28.2303 36.8625 28.5786 37.2469 29.0711C37.6432 29.5635 37.8414 30.224 37.8414 31.0527V31.305C37.8414 32.0856 37.6672 32.7522 37.3189 33.3047C36.9826 33.8451 36.4722 34.2655 35.7876 34.5657C35.1151 34.854 34.2803 34.9981 33.2835 34.9981H30.1668ZM28.023 34.9981V21.6667H30.5271V34.9981H28.023ZM30.1668 28.8549V27.2875H32.9772C33.5898 27.2875 34.0401 27.1254 34.3284 26.8011C34.6166 26.4768 34.7607 26.0445 34.7607 25.504C34.7607 24.9636 34.6166 24.5312 34.3284 24.2069C34.0401 23.8826 33.5898 23.7205 32.9772 23.7205H30.1668V21.6667H32.743C34.2323 21.6667 35.3613 21.979 36.1299 22.6035C36.9106 23.2281 37.3009 24.1228 37.3009 25.2878V25.54C37.3009 26.3567 37.1027 27.0113 36.7064 27.5037C36.3221 27.9841 35.7876 28.3324 35.103 28.5486C34.4185 28.7528 33.6318 28.8549 32.743 28.8549H30.1668Z" fill="#122F47"/>
                                            <path d="M40.6964 34.908V25.1257H43.2005V34.908H40.6964ZM39.3272 26.9993V25.1257H43.2005V26.9993H39.3272ZM41.6152 23.9547C41.1227 23.9547 40.7564 23.8286 40.5162 23.5764C40.288 23.3121 40.1739 22.9879 40.1739 22.6035C40.1739 22.1952 40.288 21.8649 40.5162 21.6127C40.7564 21.3605 41.1227 21.2344 41.6152 21.2344C42.1076 21.2344 42.4679 21.3605 42.6961 21.6127C42.9243 21.8649 43.0384 22.1952 43.0384 22.6035C43.0384 22.9879 42.9243 23.3121 42.6961 23.5764C42.4679 23.8286 42.1076 23.9547 41.6152 23.9547Z" fill="#122F47"/>
                                            <path d="M46.2126 34.908V21.7568H48.7167V34.908H46.2126ZM44.9876 23.6304V21.7568H48.7167V23.6304H44.9876Z" fill="#122F47"/>
                                            <path d="M51.7016 34.908V21.7568H54.2058V34.908H51.7016ZM50.4766 23.6304V21.7568H54.2058V23.6304H50.4766Z" fill="#122F47"/>
                                        </svg>