<svg width="369" viewBox="0 0 369 268" fill="none">
                                        <g id="Group 2622">
                                            <g id="Frame 123">
                                                <g id="Group 2548">
                                                    <g id="Rectangle 620" style="mix-blend-mode:multiply">
                                                        <rect x="14" y="76" width="321" height="192" rx="6" fill="#73D3CD"/>
                                                    </g>
                                                    <rect id="Rectangle 619" x="1.35617" y="59.1133" width="320.89" height="195.363" rx="4" fill="#F9F3E5"/>
                                                    <rect id="Rectangle 637" x="0.856171" y="58.6133" width="321.89" height="196.363" rx="6.5" stroke="#122F47"/>
                                                    <rect id="Rectangle 621" x="130" y="89" width="49" height="41" rx="2" fill="#C0EDE3"/>
                                                    <rect id="Rectangle 638" x="67" y="89" width="49" height="41" rx="2" fill="#C0EDE3"/>
                                                    <rect id="Rectangle 622" x="194" y="89" width="49" height="41" rx="2" fill="#C0EDE3"/>
                                                    <rect id="Rectangle 639" x="179" y="213" width="126" height="31" rx="2" fill="#ABEA5B"/>
                                                    <path id="$" d="M193.539 235.628C192.325 235.628 191.305 235.452 190.479 235.1C189.665 234.736 189.046 234.228 188.62 233.575C188.207 232.91 188 232.126 188 231.222H190.479C190.479 231.611 190.582 231.981 190.789 232.333C190.995 232.684 191.318 232.973 191.757 233.199C192.209 233.412 192.803 233.519 193.539 233.519C194.507 233.519 195.243 233.337 195.746 232.973C196.25 232.609 196.502 232.157 196.502 231.617C196.502 231.128 196.282 230.72 195.843 230.393C195.417 230.067 194.752 229.866 193.849 229.791L192.764 229.697C191.434 229.571 190.376 229.182 189.588 228.529C188.8 227.864 188.407 226.923 188.407 225.705C188.407 224.864 188.6 224.155 188.988 223.577C189.388 223 189.956 222.567 190.692 222.278C191.441 221.977 192.325 221.826 193.345 221.826C194.404 221.826 195.301 221.996 196.037 222.335C196.786 222.674 197.354 223.163 197.741 223.803C198.141 224.431 198.342 225.197 198.342 226.1H195.863C195.863 225.711 195.766 225.354 195.572 225.027C195.391 224.701 195.114 224.437 194.739 224.236C194.378 224.036 193.913 223.935 193.345 223.935C192.829 223.935 192.39 224.01 192.028 224.161C191.667 224.312 191.389 224.519 191.195 224.782C191.002 225.046 190.905 225.354 190.905 225.705C190.905 226.144 191.066 226.533 191.389 226.872C191.725 227.211 192.261 227.412 192.996 227.475L194.081 227.569C195.566 227.695 196.754 228.096 197.644 228.774C198.548 229.452 199 230.4 199 231.617C199 232.458 198.781 233.18 198.342 233.782C197.915 234.372 197.296 234.831 196.482 235.157C195.669 235.471 194.688 235.628 193.539 235.628ZM192.357 238V235.251H194.604V238H192.357ZM192.28 222.749V220H194.526V222.749H192.28Z" fill="black"/>
                                                    <rect id="Rectangle 635" x="254" y="89" width="48" height="41" rx="2" fill="#C0EDE3"/>
                                                    <g id="Rectangle 633" style="mix-blend-mode:multiply">
                                                        <path d="M0 66.6641C0 62.2458 3.58172 58.6641 8 58.6641H317.43C321.848 58.6641 325.43 62.2458 325.43 66.6641V70.8677H0V66.6641Z" fill="#F3F1F1"/>
                                                    </g>
                                                    <path id="Vector" class="ledger-icon-name" style="animation-delay:1s;" d="M110.343 29.6674C109.447 26.86 106.395 25.3002 103.615 26.2308C100.713 27.2047 99.2661 30.2682 100.304 33.1635C100.808 34.5699 101.832 35.4693 103.028 36.2409C103.82 36.4041 104.613 36.5678 105.405 36.731C105.826 36.6268 106.251 36.5309 106.67 36.4134C109.611 35.5875 111.264 32.5488 110.343 29.6674ZM104.941 33.0137C103.907 32.808 103.343 31.973 103.552 30.9608C103.763 29.9492 104.627 29.3526 105.616 29.5439C106.606 29.7352 107.21 30.6346 107.014 31.6213C106.813 32.6198 105.932 33.2129 104.941 33.0137Z" fill="#122F47"/>
                                                    <path id="Vector_2" class="ledger-icon-name" style="animation-delay:.5s;" d="M131.823 8.07438C131.384 8.03416 130.937 8.01997 130.5 8.05782C129.713 8.12643 129.34 7.84962 129.418 7.01208C129.465 6.51523 129.451 6.00655 129.399 5.50971C129.307 4.61302 128.591 3.98604 127.728 4.00024C126.859 4.01443 126.171 4.68163 126.077 5.65403C126.029 6.15088 126.032 6.65719 126.055 7.1564C126.086 7.79047 125.84 8.09095 125.183 8.05546C124.713 8.02943 124.241 8.0318 123.77 8.06493C122.7 8.13827 121.979 8.85278 122 9.78733C122.022 10.7171 122.683 11.3465 123.749 11.4175C124.248 11.4506 124.751 11.4458 125.252 11.4293C125.807 11.4104 126.067 11.6446 126.053 12.2124C126.039 12.7731 126.022 13.3386 126.086 13.8922C126.199 14.8859 126.885 15.5082 127.771 15.4916C128.697 15.475 129.366 14.7866 129.418 13.7645C129.444 13.2345 129.441 12.7022 129.43 12.1722C129.418 11.6493 129.654 11.4175 130.174 11.4293C130.703 11.4411 131.235 11.4458 131.764 11.4175C132.79 11.3654 133.473 10.7029 133.492 9.77313C133.508 8.83858 132.87 8.17139 131.823 8.07438Z" fill="#122F47"/>
                                                    <path id="Vector 605" d="M48.2078 79.4453V243.868" stroke="#E5E4DC"/>
                                                    <g id="Group 2462">
                                                        <circle id="Ellipse 527" r="2.70294" transform="matrix(1 0 0 -1 16.5959 67.5627)" fill="#C4C4C4"/>
                                                        <circle id="Ellipse 528" r="2.70294" transform="matrix(1 0 0 -1 25.6058 67.5627)" fill="#C4C4C4"/>
                                                        <circle id="Ellipse 529" r="2.70294" transform="matrix(1 0 0 -1 34.6151 67.5627)" fill="#C4C4C4"/>
                                                    </g>
                                                    <circle id="Ellipse 526" cx="23.5" cy="94.5" r="7.5" fill="#FFA451"/>
                                                    <rect id="Rectangle 629" x="18.1517" y="116.57" width="12.3759" height="13.2599" fill="#73D3CD"/>
                                                    <rect id="Rectangle 630" x="18.1517" y="144.859" width="12.3759" height="13.2599" fill="#73D3CD"/>
                                                    <rect id="Rectangle 631" x="18.1517" y="172.262" width="12.3759" height="12.3759" fill="#73D3CD"/>
                                                    <rect id="Rectangle 632" x="18.1517" y="200.551" width="12.3759" height="12.3759" fill="#73D3CD"/>
                                                    <path id="Vector 606" d="M305 145L67 145M305 161.412L67 161.412M305 176.228L67 176.228M305 191.728L67 191.728M305 207L67 207" stroke="#73D3CD"/>
                                                </g>
                                                <g id="Group 2677" class="ledger-icon-name">
                                                    <g id="Vector_3">
                                                        <path d="M189.865 79.1556C183.147 79.1556 177.379 77.9563 172.561 75.5576C167.743 73.159 163.807 70.0407 160.754 66.2029C157.768 62.365 155.563 58.1845 154.138 53.6613C152.713 49.1381 152 44.7863 152 40.6058V38.3442C152 33.684 152.713 29.0923 154.138 24.5691C155.63 20.0459 157.904 15.9339 160.957 12.2331C164.011 8.53236 167.879 5.58544 172.561 3.39238C177.311 1.13079 182.91 0 189.356 0C196.074 0 201.91 1.23359 206.864 3.70078C211.886 6.09944 215.889 9.52609 218.875 13.9807C221.861 18.3668 223.659 23.5068 224.27 29.4007H209.714C209.171 25.974 207.95 23.0956 206.05 20.7655C204.217 18.3668 201.876 16.585 199.026 15.4199C196.176 14.1863 192.953 13.5695 189.356 13.5695C185.692 13.5695 182.435 14.2206 179.585 15.5227C176.735 16.7563 174.36 18.5382 172.459 20.8683C170.559 23.1984 169.1 25.9397 168.083 29.0923C167.133 32.2448 166.658 35.74 166.658 39.5778C166.658 43.2786 167.133 46.7052 168.083 49.8577C169.1 53.0103 170.593 55.7859 172.561 58.1845C174.529 60.5146 176.938 62.3307 179.788 63.6329C182.706 64.935 186.065 65.5861 189.865 65.5861C195.43 65.5861 200.112 64.2154 203.912 61.4741C207.78 58.6642 210.121 54.7579 210.936 49.7549H225.491C224.813 55.1005 223.014 60.0006 220.096 64.4553C217.179 68.9099 213.175 72.4736 208.085 75.1464C202.996 77.8192 196.923 79.1556 189.865 79.1556Z" fill="#FFA451"/>
                                                        <path d="M267.105 79.1556C261.269 79.1556 256.316 78.1961 252.244 76.2772C248.173 74.2898 244.848 71.617 242.269 68.2589C239.69 64.8322 237.79 60.9258 236.569 56.5397C235.415 52.0851 234.838 47.4248 234.838 42.559V36.8022C234.838 29.8804 235.992 23.6439 238.299 18.0927C240.606 12.5415 244.135 8.15543 248.885 4.93438C253.635 1.64479 259.709 0 267.105 0C274.434 0 280.473 1.64479 285.224 4.93438C289.974 8.15543 293.468 12.5415 295.708 18.0927C298.015 23.6439 299.169 29.8804 299.169 36.8022V42.559C299.169 47.4248 298.558 52.0851 297.336 56.5397C296.183 60.9258 294.317 64.8322 291.738 68.2589C289.227 71.617 285.936 74.2898 281.865 76.2772C277.793 78.1961 272.873 79.1556 267.105 79.1556ZM267.105 65.7917C273.145 65.7917 277.589 63.7014 280.44 59.5209C283.29 55.2719 284.715 48.6927 284.715 39.7834C284.715 30.3258 283.256 23.5753 280.338 19.5319C277.42 15.4199 273.009 13.3639 267.105 13.3639C261.134 13.3639 256.655 15.4199 253.669 19.5319C250.751 23.5753 249.292 30.2573 249.292 39.5778C249.292 48.5556 250.751 55.1691 253.669 59.4181C256.587 63.6671 261.066 65.7917 267.105 65.7917Z" fill="#FFA451"/>
                                                        <path d="M298.372 85.2336V81.6356C298.372 80.8475 298.491 80.1622 298.728 79.5796C298.983 78.9971 299.39 78.4831 299.95 78.0377C300.526 77.5751 301.281 77.1382 302.214 76.727L305.37 75.3135C306.15 74.9537 306.744 74.5168 307.151 74.0028C307.575 73.4716 307.787 72.7949 307.787 71.9725C307.787 71.0644 307.516 70.3448 306.973 69.8137C306.447 69.2654 305.692 68.9913 304.708 68.9913C303.724 68.9913 302.961 69.2654 302.418 69.8137C301.892 70.362 301.629 71.1244 301.629 72.101H298.143C298.143 70.9359 298.389 69.8908 298.881 68.9656C299.373 68.0233 300.102 67.2865 301.069 66.7554C302.036 66.2071 303.249 65.933 304.708 65.933C306.167 65.933 307.38 66.1986 308.347 66.7297C309.314 67.2608 310.044 67.9719 310.536 68.8628C311.028 69.7366 311.273 70.7132 311.273 71.7926V72.1267C311.273 73.5316 310.883 74.7052 310.103 75.6476C309.323 76.5728 308.177 77.378 306.668 78.0634L303.512 79.4768C302.918 79.7338 302.503 80.008 302.265 80.2993C302.028 80.5734 301.909 80.9503 301.909 81.43V83.0748L301.044 82.1239H311.35V85.2336H298.372Z" fill="#FFA451"/>
                                                    </g>
                                                    <path id="$_2" d="M341.842 74.0891C335.89 74.0891 330.939 73.2569 326.991 71.5927C323.043 69.869 320.067 67.4618 318.063 64.371C316.058 61.2208 315.056 57.5357 315.056 53.3156H328.449C328.449 54.9798 328.905 56.5549 329.816 58.0409C330.727 59.4674 332.185 60.6264 334.189 61.518C336.193 62.3501 338.744 62.7662 341.842 62.7662C345.972 62.7662 349.131 62.0529 351.317 60.6264C353.565 59.1999 354.688 57.2979 354.688 54.9204C354.688 52.8401 353.747 51.1461 351.864 49.8385C349.981 48.4714 346.975 47.5799 342.844 47.1638L338.198 46.8072C331.699 46.2128 326.536 44.3108 322.709 41.1012C318.883 37.8321 316.969 33.2257 316.969 27.2819C316.969 23.1807 317.911 19.763 319.794 17.0289C321.677 14.2353 324.379 12.155 327.902 10.7879C331.425 9.36143 335.647 8.64818 340.567 8.64818C345.851 8.64818 350.285 9.45059 353.868 11.0554C357.452 12.6602 360.155 14.9783 361.977 18.0096C363.86 21.0409 364.802 24.7261 364.802 29.065H351.409C351.409 27.3413 350.983 25.8257 350.133 24.518C349.343 23.151 348.159 22.0514 346.58 21.2192C345.001 20.3871 342.996 19.9711 340.567 19.9711C338.441 19.9711 336.618 20.2682 335.1 20.8626C333.582 21.457 332.427 22.3188 331.638 23.4482C330.848 24.518 330.453 25.7959 330.453 27.2819C330.453 29.1245 331.152 30.7887 332.549 32.2747C333.946 33.7012 336.254 34.5927 339.473 34.9493L344.12 35.306C351.409 35.9004 357.24 37.8321 361.613 41.1012C365.986 44.3702 368.173 48.9766 368.173 54.9204C368.173 59.0216 367.14 62.4987 365.075 65.3517C363.01 68.2047 360.003 70.3742 356.055 71.8601C352.168 73.3461 347.43 74.0891 341.842 74.0891ZM335.373 85.2336V72.2168H347.309V85.2336H335.373ZM335.009 13.0168V0H346.944V13.0168H335.009Z" fill="#FFA451"/>
                                                </g>
                                            </g>
                                            <path id="5,000" d="M222.168 234.304C221.251 234.304 220.461 234.123 219.8 233.76C219.149 233.397 218.648 232.917 218.296 232.32C217.955 231.712 217.784 231.051 217.784 230.336H219.976C219.976 230.741 220.067 231.099 220.248 231.408C220.44 231.717 220.701 231.963 221.032 232.144C221.363 232.315 221.747 232.4 222.184 232.4C222.643 232.4 223.037 232.304 223.368 232.112C223.699 231.92 223.949 231.659 224.12 231.328C224.301 230.997 224.392 230.619 224.392 230.192C224.392 229.776 224.301 229.403 224.12 229.072C223.949 228.731 223.699 228.464 223.368 228.272C223.048 228.069 222.659 227.968 222.2 227.968C221.816 227.968 221.453 228.043 221.112 228.192C220.771 228.341 220.504 228.539 220.312 228.784H218.216L218.808 222.32H225.576V224.256H219.8L220.6 223.632L220.216 227.664L219.672 227.504C219.981 227.152 220.36 226.859 220.808 226.624C221.256 226.389 221.821 226.272 222.504 226.272C223.368 226.272 224.104 226.448 224.712 226.8C225.32 227.152 225.784 227.621 226.104 228.208C226.424 228.784 226.584 229.413 226.584 230.096V230.304C226.584 230.997 226.413 231.648 226.072 232.256C225.731 232.864 225.229 233.36 224.568 233.744C223.917 234.117 223.117 234.304 222.168 234.304ZM229.124 236.656L227.396 236L229.028 231.36L230.884 232.048L229.124 236.656ZM237.548 234.304C236.631 234.304 235.852 234.155 235.212 233.856C234.572 233.547 234.05 233.131 233.644 232.608C233.239 232.075 232.94 231.467 232.748 230.784C232.567 230.091 232.476 229.365 232.476 228.608V227.712C232.476 226.635 232.658 225.664 233.02 224.8C233.383 223.936 233.938 223.253 234.684 222.752C235.431 222.24 236.386 221.984 237.548 221.984C238.7 221.984 239.65 222.24 240.396 222.752C241.143 223.253 241.692 223.936 242.044 224.8C242.407 225.664 242.588 226.635 242.588 227.712V228.608C242.588 229.365 242.492 230.091 242.3 230.784C242.119 231.467 241.826 232.075 241.42 232.608C241.026 233.131 240.508 233.547 239.868 233.856C239.228 234.155 238.455 234.304 237.548 234.304ZM237.548 232.224C238.498 232.224 239.196 231.899 239.644 231.248C240.092 230.587 240.316 229.563 240.316 228.176C240.316 226.704 240.087 225.653 239.628 225.024C239.17 224.384 238.476 224.064 237.548 224.064C236.61 224.064 235.906 224.384 235.436 225.024C234.978 225.653 234.748 226.693 234.748 228.144C234.748 229.541 234.978 230.571 235.436 231.232C235.895 231.893 236.599 232.224 237.548 232.224ZM249.642 234.304C248.725 234.304 247.946 234.155 247.306 233.856C246.666 233.547 246.143 233.131 245.738 232.608C245.333 232.075 245.034 231.467 244.842 230.784C244.661 230.091 244.57 229.365 244.57 228.608V227.712C244.57 226.635 244.751 225.664 245.114 224.8C245.477 223.936 246.031 223.253 246.778 222.752C247.525 222.24 248.479 221.984 249.642 221.984C250.794 221.984 251.743 222.24 252.49 222.752C253.237 223.253 253.786 223.936 254.138 224.8C254.501 225.664 254.682 226.635 254.682 227.712V228.608C254.682 229.365 254.586 230.091 254.394 230.784C254.213 231.467 253.919 232.075 253.514 232.608C253.119 233.131 252.602 233.547 251.962 233.856C251.322 234.155 250.549 234.304 249.642 234.304ZM249.642 232.224C250.591 232.224 251.29 231.899 251.738 231.248C252.186 230.587 252.41 229.563 252.41 228.176C252.41 226.704 252.181 225.653 251.722 225.024C251.263 224.384 250.57 224.064 249.642 224.064C248.703 224.064 247.999 224.384 247.53 225.024C247.071 225.653 246.842 226.693 246.842 228.144C246.842 229.541 247.071 230.571 247.53 231.232C247.989 231.893 248.693 232.224 249.642 232.224ZM261.736 234.304C260.819 234.304 260.04 234.155 259.4 233.856C258.76 233.547 258.237 233.131 257.832 232.608C257.427 232.075 257.128 231.467 256.936 230.784C256.755 230.091 256.664 229.365 256.664 228.608V227.712C256.664 226.635 256.845 225.664 257.208 224.8C257.571 223.936 258.125 223.253 258.872 222.752C259.619 222.24 260.573 221.984 261.736 221.984C262.888 221.984 263.837 222.24 264.584 222.752C265.331 223.253 265.88 223.936 266.232 224.8C266.595 225.664 266.776 226.635 266.776 227.712V228.608C266.776 229.365 266.68 230.091 266.488 230.784C266.307 231.467 266.013 232.075 265.608 232.608C265.213 233.131 264.696 233.547 264.056 233.856C263.416 234.155 262.643 234.304 261.736 234.304ZM261.736 232.224C262.685 232.224 263.384 231.899 263.832 231.248C264.28 230.587 264.504 229.563 264.504 228.176C264.504 226.704 264.275 225.653 263.816 225.024C263.357 224.384 262.664 224.064 261.736 224.064C260.797 224.064 260.093 224.384 259.624 225.024C259.165 225.653 258.936 226.693 258.936 228.144C258.936 229.541 259.165 230.571 259.624 231.232C260.083 231.893 260.787 232.224 261.736 232.224Z" fill="black"/>
                                        </g>
                                    </svg>