<svg width="344" viewBox="0 0 344 325" fill="none">
                                            <g id="Frame 154" filter="url(#filter0_d_398_767)">
                                                <g id="Frame 124">
                                                    <g id="Group 2535">
                                                        <g id="Rectangle 620" style="mix-blend-mode:multiply">
                                                            <rect x="19" y="78" width="321" height="192" rx="6" fill="#73D3CD"/>
                                                        </g>
                                                        <rect id="Rectangle 619" x="5.35617" y="60.1133" width="320.89" height="195.363" rx="4" fill="#F9F3E5"/>
                                                        <rect id="Rectangle 637" x="4.85617" y="59.6133" width="321.89" height="196.363" rx="6.5" stroke="#122F47"/>
                                                        <rect id="Rectangle 621" x="101.712" y="84.8633" width="48.6197" height="28.2878" rx="2" fill="#C0EDE3"/>
                                                        <rect id="Rectangle 622" x="168.895" y="84.8633" width="48.6197" height="28.2878" rx="2" fill="#C0EDE3"/>
                                                        <rect id="Rectangle 635" x="233.427" y="84.8633" width="48.6197" height="28.2878" rx="2" fill="#C0EDE3"/>
                                                        <g id="Rectangle 633" style="mix-blend-mode:multiply">
                                                            <path d="M4 67.6641C4 63.2458 7.58172 59.6641 12 59.6641H321.43C325.848 59.6641 329.43 63.2458 329.43 67.6641V71.8677H4V67.6641Z" fill="#F3F1F1"/>
                                                        </g>
                                                        <g id="Vector" class="ledger-icon-name">
                                                            <path d="M191.634 81.2747C184.777 81.2747 178.889 80.0433 173.971 77.5804C169.053 75.1176 165.036 71.9158 161.919 67.9752C158.871 64.0346 156.62 59.7422 155.165 55.0979C153.711 50.4537 152.983 45.9853 152.983 41.6929V39.3707C152.983 34.5857 153.711 29.8711 155.165 25.2268C156.689 20.5826 159.01 16.3605 162.127 12.5606C165.244 8.76078 169.192 5.73497 173.971 3.4832C178.82 1.16107 184.534 0 191.115 0C197.972 0 203.929 1.26662 208.985 3.79986C214.111 6.26273 218.198 9.78112 221.245 14.355C224.293 18.8586 226.129 24.1361 226.752 30.1878H211.894C211.34 26.6694 210.094 23.7139 208.154 21.3214C206.284 18.8586 203.894 17.029 200.985 15.8327C198.076 14.5661 194.786 13.9328 191.115 13.9328C187.374 13.9328 184.049 14.6013 181.14 15.9383C178.231 17.2049 175.807 19.0345 173.867 21.427C171.928 23.8195 170.438 26.6342 169.399 29.8711C168.43 33.108 167.945 36.6968 167.945 40.6374C167.945 44.4372 168.43 47.9556 169.399 51.1925C170.438 54.4294 171.962 57.2793 173.971 59.7422C175.98 62.1347 178.439 63.9995 181.348 65.3364C184.326 66.6734 187.755 67.3419 191.634 67.3419C197.314 67.3419 202.093 65.9346 205.972 63.1199C209.92 60.2348 212.31 56.2238 213.141 51.087H227.999C227.306 56.5757 225.471 61.6069 222.492 66.1808C219.514 70.7548 215.427 74.4139 210.232 77.1582C205.037 79.9026 198.838 81.2747 191.634 81.2747Z" fill="#FFA451"/>
                                                            <path d="M270.476 81.2747C264.519 81.2747 259.463 80.2896 255.307 78.3193C251.151 76.2786 247.757 73.5343 245.125 70.0863C242.492 66.5679 240.553 62.5569 239.306 58.0534C238.129 53.4795 237.54 48.6945 237.54 43.6984V37.7875C237.54 30.6803 238.717 24.2769 241.072 18.5771C243.427 12.8773 247.029 8.37376 251.878 5.06648C256.727 1.68883 262.926 0 270.476 0C277.957 0 284.122 1.68883 288.97 5.06648C293.819 8.37376 297.386 12.8773 299.672 18.5771C302.027 24.2769 303.204 30.6803 303.204 37.7875V43.6984C303.204 48.6945 302.581 53.4795 301.334 58.0534C300.157 62.5569 298.252 66.5679 295.62 70.0863C293.057 73.5343 289.697 76.2786 285.542 78.3193C281.386 80.2896 276.364 81.2747 270.476 81.2747ZM270.476 67.553C276.641 67.553 281.178 65.4068 284.087 61.1144C286.996 56.7516 288.451 49.9963 288.451 40.8485C288.451 31.1377 286.961 24.2065 283.983 20.0548C281.005 15.8327 276.502 13.7217 270.476 13.7217C264.381 13.7217 259.809 15.8327 256.761 20.0548C253.783 24.2065 252.294 31.0674 252.294 40.6374C252.294 49.8555 253.783 56.646 256.761 61.0088C259.74 65.3716 264.311 67.553 270.476 67.553Z" fill="#FFA451"/>
                                                            <path d="M302.391 87.5155V83.8212C302.391 83.0119 302.512 82.3083 302.755 81.7101C303.015 81.112 303.43 80.5842 304.002 80.1269C304.59 79.6519 305.361 79.2033 306.313 78.7811L309.534 77.3297C310.331 76.9603 310.937 76.5117 311.352 75.9839C311.785 75.4386 312.002 74.7437 312.002 73.8993C312.002 72.9669 311.725 72.2281 311.171 71.6827C310.634 71.1198 309.863 70.8383 308.859 70.8383C307.855 70.8383 307.075 71.1198 306.521 71.6827C305.984 72.2457 305.716 73.0285 305.716 74.0312H302.157C302.157 72.835 302.408 71.7619 302.911 70.8119C303.413 69.8444 304.157 69.0879 305.144 68.5426C306.132 67.9796 307.37 67.6982 308.859 67.6982C310.348 67.6982 311.586 67.9708 312.573 68.5162C313.56 69.0615 314.305 69.7916 314.807 70.7064C315.309 71.6036 315.56 72.6063 315.56 73.7146V74.0576C315.56 75.5002 315.162 76.7052 314.366 77.6728C313.569 78.6227 312.4 79.4496 310.859 80.1532L307.638 81.6046C307.032 81.8685 306.608 82.1499 306.365 82.449C306.123 82.7305 306.002 83.1175 306.002 83.6101V85.2989L305.118 84.3225H315.638V87.5155H302.391Z" fill="#FFA451"/>
                                                        </g>
                                                        <path id="Vector_2" class="ledger-icon-name" style="animation-delay:.5s;" d="M189.559 295.924C192.336 294.483 193.322 291.187 191.729 288.66C190.064 286.02 186.504 285.224 183.664 286.821C182.285 287.597 181.556 288.779 181 290.102C181 290.909 181 291.717 181 292.523C181.202 292.914 181.397 293.309 181.613 293.695C183.13 296.401 186.709 297.404 189.559 295.924ZM184.835 291.321C184.827 290.269 185.589 289.55 186.706 289.55C187.823 289.553 188.644 290.277 188.657 291.282C188.671 292.287 187.85 293.058 186.763 293.065C185.661 293.07 184.841 292.329 184.835 291.321Z" fill="#122F47"/>
                                                        <path id="Vector_3" class="ledger-icon-name" style="animation-delay:1s;" d="M114.343 30.6674C113.447 27.86 110.395 26.3002 107.615 27.2308C104.713 28.2047 103.266 31.2682 104.304 34.1635C104.808 35.5699 105.832 36.4693 107.028 37.2409C107.82 37.4041 108.613 37.5678 109.405 37.731C109.826 37.6268 110.251 37.5309 110.67 37.4134C113.611 36.5875 115.264 33.5488 114.343 30.6674ZM108.941 34.0137C107.907 33.808 107.343 32.973 107.552 31.9608C107.763 30.9492 108.627 30.3526 109.616 30.5439C110.606 30.7352 111.21 31.6346 111.014 32.6213C110.813 33.6198 109.932 34.2129 108.941 34.0137Z" fill="#122F47"/>
                                                        <path id="Vector_4" class="ledger-icon-name" style="animation-delay:1.5s;" d="M135.823 9.07438C135.384 9.03416 134.937 9.01997 134.5 9.05782C133.713 9.12643 133.34 8.84962 133.418 8.01208C133.465 7.51523 133.451 7.00655 133.399 6.50971C133.307 5.61302 132.591 4.98604 131.728 5.00024C130.859 5.01443 130.171 5.68163 130.077 6.65403C130.029 7.15088 130.032 7.65719 130.055 8.1564C130.086 8.79047 129.84 9.09095 129.183 9.05546C128.713 9.02943 128.241 9.0318 127.77 9.06493C126.7 9.13827 125.979 9.85278 126 10.7873C126.022 11.7171 126.683 12.3465 127.749 12.4175C128.248 12.4506 128.751 12.4458 129.252 12.4293C129.807 12.4104 130.067 12.6446 130.053 13.2124C130.039 13.7731 130.022 14.3386 130.086 14.8922C130.199 15.8859 130.885 16.5082 131.771 16.4916C132.697 16.475 133.366 15.7866 133.418 14.7645C133.444 14.2345 133.441 13.7022 133.43 13.1722C133.418 12.6493 133.654 12.4175 134.174 12.4293C134.703 12.4411 135.235 12.4458 135.764 12.4175C136.79 12.3654 137.473 11.7029 137.492 10.7731C137.508 9.83858 136.87 9.17139 135.823 9.07438Z" fill="#122F47"/>
                                                        <path id="Vector_5" class="ledger-icon-name" style="animation-delay:2s;" d="M284.61 291.056C284.46 291.551 284.338 292.059 284.278 292.569C284.17 293.487 283.765 293.85 282.826 293.563C282.269 293.392 281.683 293.288 281.103 293.23C280.055 293.124 279.169 293.797 278.981 294.789C278.792 295.789 279.393 296.735 280.483 297.073C281.04 297.244 281.619 297.361 282.196 297.451C282.929 297.566 283.214 297.918 283.018 298.663C282.877 299.196 282.768 299.738 282.695 300.285C282.526 301.529 283.173 302.524 284.247 302.72C285.315 302.915 286.192 302.305 286.525 301.1C286.681 300.537 286.794 299.959 286.894 299.38C287.003 298.739 287.333 298.497 287.979 298.647C288.617 298.795 289.26 298.948 289.908 299.005C291.072 299.11 291.945 298.471 292.136 297.451C292.336 296.386 291.707 295.457 290.55 295.156C289.95 295.001 289.34 294.878 288.731 294.767C288.13 294.657 287.921 294.331 288.057 293.738C288.196 293.134 288.327 292.526 288.42 291.913C288.603 290.725 288.006 289.786 286.947 289.545C285.882 289.305 284.968 289.879 284.61 291.056Z" fill="#122F47"/>
                                                        <g id="Group 2459">
                                                            <path id="Union" fill-rule="evenodd" clip-rule="evenodd" d="M143.097 172.024L143.097 172.064C143.203 181.427 140.339 189.77 134.35 196.969C128.325 204.205 120.582 208.585 111.269 209.909C100.362 211.459 90.5002 208.756 81.9589 201.77C74.8437 195.952 70.4513 188.413 68.9747 179.342C67.1427 168.098 69.6702 157.854 76.9017 148.976C82.7619 141.78 90.419 137.5 99.5637 135.883C102.025 135.446 104.507 135.361 106.999 135.368C107.78 135.37 107.962 135.657 107.96 136.376C107.944 140.539 107.946 144.703 107.948 148.867C107.949 150.254 107.949 151.642 107.949 153.03V169.519C107.949 170.663 107.951 170.665 109.134 170.665H141.73C143.082 170.665 143.082 170.667 143.097 172.024ZM100.72 205.788C94.6941 204.914 89.1259 202.302 84.0676 197.962C77.5645 192.381 73.7645 185.223 72.8584 176.718C71.6999 165.852 75.0941 156.482 82.9508 148.845C88.3942 143.555 95.0026 140.629 102.539 139.776C102.599 139.769 102.657 139.763 102.711 139.757C102.656 139.763 102.598 139.769 102.537 139.776C95.0023 140.629 88.3939 143.555 82.9484 148.845C75.0916 156.482 71.6975 165.851 72.8559 176.718C73.762 185.223 77.5621 192.381 84.0651 197.962C89.1251 202.302 94.6941 204.914 100.72 205.788ZM137.921 174.858C137.764 174.853 137.582 174.852 137.369 174.852C131.951 174.851 126.533 174.851 121.114 174.851C115.696 174.851 110.278 174.851 104.86 174.85C104.681 174.85 104.531 174.85 104.405 174.844C104.532 174.85 104.682 174.85 104.862 174.85C115.699 174.852 126.535 174.852 137.371 174.852C137.583 174.852 137.765 174.853 137.921 174.858Z" fill="#C0EDE3"/>
                                                            <path id="Union_2" class="svg-pie" fill-rule="evenodd" clip-rule="evenodd" d="M122.973 166.114C119.848 166.113 116.723 166.113 113.598 166.113C112.574 166.111 112.506 166.036 112.506 164.964C112.502 160.679 112.503 156.394 112.503 152.108C112.503 150.681 112.504 149.253 112.504 147.826C112.504 145.922 112.503 144.018 112.503 142.113C112.503 138.305 112.502 134.496 112.504 130.688C112.504 129.513 112.515 129.482 113.699 129.515C122.388 129.754 130.071 132.645 136.66 138.321C142.713 143.536 146.441 150.147 148.165 157.908C148.694 160.284 148.979 162.695 148.992 165.139C148.997 165.911 148.711 166.124 147.985 166.124C139.648 166.114 131.31 166.114 122.973 166.114ZM117.918 134.013C116.637 133.814 116.635 133.818 116.635 135.083V147.874C116.635 149.305 116.635 150.736 116.634 152.166C116.634 155.027 116.633 157.887 116.635 160.749C116.635 160.821 116.635 160.888 116.636 160.952C116.635 160.89 116.635 160.825 116.635 160.755V147.881V135.088C116.635 133.823 116.637 133.816 117.919 134.018C123.592 134.906 128.661 137.172 133.066 140.84C139.203 145.947 143.069 152.412 144.409 160.317C144.488 160.783 144.553 161.122 144.581 161.367C144.553 161.121 144.488 160.781 144.409 160.312C143.071 152.41 139.203 145.943 133.066 140.835C128.658 137.168 123.592 134.901 117.918 134.013Z" fill="#73D3CD"/>
                                                        </g>
                                                        <path id="Vector 605" d="M52.2078 80.4453V244.868" stroke="#E5E4DC"/>
                                                        <circle id="Ellipse 522" cx="240.499" cy="239.563" r="6.18796" fill="#73D3CD"/>
                                                        <g id="Group 2462">
                                                            <circle id="Ellipse 527" r="2.70294" transform="matrix(1 0 0 -1 20.5959 68.5627)" fill="#C4C4C4"/>
                                                            <circle id="Ellipse 528" r="2.70294" transform="matrix(1 0 0 -1 29.6058 68.5627)" fill="#C4C4C4"/>
                                                            <circle id="Ellipse 529" r="2.70294" transform="matrix(1 0 0 -1 38.6151 68.5627)" fill="#C4C4C4"/>
                                                        </g>
                                                        <ellipse id="Ellipse 526" cx="29.2239" cy="95.4716" rx="8.83995" ry="7.95595" fill="#FF9B69"/>
                                                        <circle id="Ellipse 523" cx="261.715" cy="239.563" r="6.18796" fill="#73D3CD"/>
                                                        <ellipse id="Ellipse 524" cx="282.046" cy="239.563" rx="7.07196" ry="6.18796" fill="#73D3CD"/>
                                                        <ellipse id="Ellipse 525" cx="301.936" cy="239.563" rx="6.62996" ry="6.18796" fill="#73D3CD"/>
                                                        <rect id="Rectangle 629" x="22.1517" y="117.57" width="12.3759" height="13.2599" fill="#73D3CD"/>
                                                        <rect id="Rectangle 630" x="22.1517" y="145.859" width="12.3759" height="13.2599" fill="#73D3CD"/>
                                                        <rect id="Rectangle 631" x="22.1517" y="173.262" width="12.3759" height="12.3759" fill="#73D3CD"/>
                                                        <rect id="Rectangle 632" x="22.1517" y="201.551" width="12.3759" height="12.3759" fill="#73D3CD"/>
                                                        <path id="Vector 606" d="M183.039 127.297V226.304M215.331 127.297V226.304M244.483 127.297V226.304M274.981 127.297V226.304M305.03 127.297V226.304" stroke="#73D3CD"/>
                                                        <path id="Vector 607" d="M178.619 127.297V226.304M211.145 127.297V226.304M240.508 127.297V226.304M271.227 127.297V226.304M301.494 127.297V226.304" stroke="#73D3CD"/>
                                                        <g id="Group 2460" class="magnify">
                                                            <circle id="Ellipse 477" cx="181.331" cy="231.331" r="44.8307" stroke="black"/>
                                                            <path id="Vector 540" d="M224.601 289.84L225.219 280.781H234.491L261.69 307.354V315.81H252.417L224.601 289.84Z" stroke="black"/>
                                                            <path id="Vector 541" d="M224.6 280.783L210.177 266.359" stroke="black"/>
                                                            <path id="Vector 542" d="M260.659 314.78L225.631 281.812" stroke="black"/>
                                                        </g>
                                                    </g>
                                                </g>
                                            </g>
                                            <defs>
                                                <filter id="filter0_d_398_767" x="0" y="0" width="344" height="324.309" filterUnits="userSpaceOnUse" color-interpolation-filters="sRGB">
                                                    <feFlood flood-opacity="0" result="BackgroundImageFix"/>
                                                    <feColorMatrix in="SourceAlpha" type="matrix" values="0 0 0 0 0 0 0 0 0 0 0 0 0 0 0 0 0 0 127 0" result="hardAlpha"/>
                                                    <feOffset dy="4"/>
                                                    <feGaussianBlur stdDeviation="2"/>
                                                    <feComposite in2="hardAlpha" operator="out"/>
                                                    <feColorMatrix type="matrix" values="0 0 0 0 0 0 0 0 0 0 0 0 0 0 0 0 0 0 0.25 0"/>
                                                    <feBlend mode="normal" in2="BackgroundImageFix" result="effect1_dropShadow_398_767"/>
                                                    <feBlend mode="normal" in="SourceGraphic" in2="effect1_dropShadow_398_767" result="shape"/>
                                                </filter>
                                            </defs>
                                        </svg>