<svg width="410" viewBox="0 0 410 310" fill="none">
                                            <g id="Frame 155">
                                                <g id="Group 2631">
                                                    <g id="Frame 125">
                                                        <g id="Group 2547">
                                                            <g id="Rectangle 620" style="mix-blend-mode:multiply">
                                                                <rect x="14.3115" y="65.6055" width="320.89" height="195.363" rx="6" fill="#73D3CD"/>
                                                            </g>
                                                            <rect id="Rectangle 619" x="1.35614" y="49.1133" width="320.89" height="195.363" rx="4" fill="#F9F3E5"/>
                                                            <rect id="Rectangle 637" x="0.85614" y="48.6133" width="321.89" height="196.363" rx="6.5" stroke="#122F47"/>
                                                            <rect id="Rectangle 621" x="97.7119" y="73.8633" width="48.6197" height="28.2878" rx="2" fill="#C0EDE3"/>
                                                            <rect id="Rectangle 622" x="164.895" y="73.8633" width="48.6197" height="28.2878" rx="2" fill="#C0EDE3"/>
                                                            <rect id="Rectangle 635" x="229.427" y="73.8633" width="48.6197" height="28.2878" rx="2" fill="#C0EDE3"/>
                                                            <g id="Rectangle 633" style="mix-blend-mode:multiply">
                                                                <path d="M0 56.6641C0 52.2458 3.58172 48.6641 8 48.6641H317.43C321.848 48.6641 325.43 52.2458 325.43 56.6641V60.8677H0V56.6641Z" fill="#F3F1F1"/>
                                                            </g>
                                                            <path id="Vector 673" class="svg-graph-home" d="M305 195H81.5L103 173.5H141L178 136.5H278.5L305 110V195Z" fill="#F6CDBE"/>
                                                            <path id="Vector" class="ledger-icon-name" style="animation-delay:1.5s;" d="M363.513 165.998C366.29 164.558 367.275 161.261 365.683 158.734C364.017 156.094 360.457 155.298 357.618 156.895C356.238 157.672 355.51 158.853 354.954 160.177C354.954 160.983 354.954 161.791 354.954 162.597C355.156 162.988 355.35 163.383 355.566 163.769C357.083 166.476 360.662 167.478 363.513 165.998ZM358.789 161.396C358.781 160.343 359.542 159.624 360.66 159.624C361.777 159.627 362.598 160.351 362.611 161.356C362.625 162.361 361.804 163.132 360.716 163.14C359.615 163.145 358.794 162.403 358.789 161.396Z" fill="#122F47"/>
                                                            <path id="Vector_2" class="ledger-icon-name" style="animation-delay:2s;" d="M75.714 264.679C74.8185 261.872 71.7661 260.312 68.9868 261.243C66.0841 262.216 64.6374 265.28 65.6752 268.175C66.1797 269.582 67.2038 270.481 68.3994 271.253C69.1908 271.416 69.9847 271.58 70.7761 271.743C71.1974 271.638 71.6221 271.543 72.0411 271.425C74.982 270.599 76.635 267.56 75.714 264.679ZM70.3128 268.025C69.278 267.82 68.7143 266.985 68.923 265.973C69.1342 264.961 69.9983 264.364 70.9876 264.556C71.977 264.747 72.5809 265.646 72.3851 266.633C72.1843 267.632 71.3031 268.225 70.3128 268.025Z" fill="#122F47"/>
                                                            <path id="Vector_3" class="ledger-icon-name" style="animation-delay:.5s;" d="M238.823 19.0744C238.384 19.0342 237.937 19.02 237.5 19.0578C236.713 19.1264 236.34 18.8496 236.418 18.0121C236.465 17.5152 236.451 17.0066 236.399 16.5097C236.307 15.613 235.591 14.986 234.728 15.0002C233.859 15.0144 233.171 15.6816 233.077 16.654C233.029 17.1509 233.032 17.6572 233.055 18.1564C233.086 18.7905 232.84 19.0909 232.183 19.0555C231.713 19.0294 231.241 19.0318 230.77 19.0649C229.7 19.1383 228.979 19.8528 229 20.7873C229.022 21.7171 229.683 22.3465 230.749 22.4175C231.248 22.4506 231.751 22.4458 232.252 22.4293C232.807 22.4104 233.067 22.6446 233.053 23.2124C233.039 23.7731 233.022 24.3386 233.086 24.8922C233.199 25.8859 233.885 26.5082 234.771 26.4916C235.697 26.475 236.366 25.7866 236.418 24.7645C236.444 24.2345 236.441 23.7022 236.43 23.1722C236.418 22.6493 236.654 22.4175 237.174 22.4293C237.703 22.4411 238.235 22.4458 238.764 22.4175C239.79 22.3654 240.473 21.7029 240.492 20.7731C240.508 19.8386 239.87 19.1714 238.823 19.0744Z" fill="#122F47"/>
                                                            <path id="Vector_4" class="ledger-icon-name" style="animation-delay:1s;" d="M280.61 280.056C280.46 280.551 280.338 281.059 280.278 281.569C280.17 282.487 279.765 282.85 278.826 282.563C278.269 282.392 277.683 282.288 277.103 282.23C276.055 282.124 275.169 282.797 274.981 283.789C274.792 284.789 275.392 285.735 276.482 286.073C277.04 286.244 277.619 286.361 278.196 286.451C278.928 286.566 279.214 286.918 279.018 287.663C278.877 288.196 278.768 288.738 278.695 289.285C278.526 290.529 279.173 291.524 280.247 291.72C281.315 291.915 282.192 291.305 282.525 290.1C282.681 289.537 282.794 288.959 282.894 288.38C283.003 287.739 283.333 287.497 283.979 287.647C284.617 287.795 285.26 287.948 285.908 288.005C287.072 288.11 287.945 287.471 288.136 286.451C288.336 285.386 287.707 284.457 286.55 284.156C285.95 284.001 285.34 283.878 284.731 283.767C284.13 283.657 283.921 283.331 284.057 282.738C284.196 282.134 284.327 281.526 284.42 280.913C284.603 279.725 284.006 278.786 282.947 278.545C281.882 278.305 280.968 278.879 280.61 280.056Z" fill="#122F47"/>
                                                            <path id="Vector 605" d="M48.2078 69.4453V233.868" stroke="#E5E4DC"/>
                                                            <g id="Group 2462">
                                                                <circle id="Ellipse 527" r="2.70294" transform="matrix(1 0 0 -1 16.5959 57.5627)" fill="#C4C4C4"/>
                                                                <circle id="Ellipse 528" r="2.70294" transform="matrix(1 0 0 -1 25.6058 57.5627)" fill="#C4C4C4"/>
                                                                <circle id="Ellipse 529" r="2.70294" transform="matrix(1 0 0 -1 34.6151 57.5627)" fill="#C4C4C4"/>
                                                            </g>
                                                            <ellipse id="Ellipse 526" cx="25.2239" cy="84.4716" rx="8.83995" ry="7.95595" fill="#FF9B69"/>
                                                            <rect id="Rectangle 629" x="18.1517" y="106.57" width="12.3759" height="13.2599" fill="#73D3CD"/>
                                                            <rect id="Rectangle 630" x="18.1517" y="134.859" width="12.3759" height="13.2599" fill="#73D3CD"/>
                                                            <rect id="Rectangle 631" x="18.1517" y="162.262" width="12.3759" height="12.3759" fill="#73D3CD"/>
                                                            <rect id="Rectangle 632" x="18.1517" y="190.551" width="12.3759" height="12.3759" fill="#73D3CD"/>
                                                            <path id="Vector 674" d="M84 120H304" stroke="#FFA451"/>
                                                            <path id="Vector 675" d="M84 138H304" stroke="#FFA451"/>
                                                            <path id="Vector 676" d="M84 166H304" stroke="#FFA451"/>
                                                            <path id="Vector 677" d="M84 194H304" stroke="#FFA451"/>
                                                            <g id="Group">
                                                                <g id="Vector_5">
                                                                    <path d="M316.03 262.319V200.564C316.03 191.683 323.236 184.477 332.118 184.477H379.581V265.692C379.581 271.321 375.014 275.887 369.385 275.887H366.253" fill="#F9F3E5"/>
                                                                    <path d="M316.03 262.319V200.564C316.03 191.683 323.236 184.477 332.118 184.477H379.581V265.692C379.581 271.321 375.014 275.887 369.385 275.887H366.253" stroke="black" stroke-miterlimit="10" stroke-linecap="round" stroke-linejoin="round"/>
                                                                </g>
                                                                <g id="Vector_6">
                                                                    <path d="M380.675 184.477C385.571 184.477 389.546 188.452 389.546 193.347C389.546 198.242 385.571 202.218 380.675 202.218" fill="#F9F3E5"/>
                                                                    <path d="M380.675 184.477C385.571 184.477 389.546 188.452 389.546 193.347C389.546 198.242 385.571 202.218 380.675 202.218" stroke="black" stroke-miterlimit="10" stroke-linecap="square"/>
                                                                </g>
                                                                <path id="Vector_7" d="M366.001 275.898C362.059 275.898 358.861 272.7 358.861 268.757C358.861 264.815 362.059 261.617 366.001 261.617H319.14C315.198 261.617 312 264.815 312 268.757C312 272.7 315.198 275.898 319.14 275.898H366.001Z" fill="#F9F3E5" stroke="black" stroke-miterlimit="10" stroke-linecap="round" stroke-linejoin="round"/>
                                                                <g id="Group 2461">
                                                                    <path id="Vector 549" d="M369.27 242.628L376.351 245.581L408.541 285.69C409.811 287.272 409.558 289.584 407.976 290.854C406.394 292.124 404.081 291.871 402.812 290.288L370.621 250.18L369.27 242.628Z" fill="#F9F3E5" stroke="black"/>
                                                                    <path id="Vector 550" d="M399.941 288.668L395.637 288.197L384.524 274.35" stroke="black"/>
                                                                </g>
                                                            </g>
                                                            <path id="Vector 608" d="M329.971 207.348H367.098" stroke="black"/>
                                                            <path id="Vector 609" d="M329.971 217.953H367.098" stroke="black"/>
                                                            <path id="Vector 610" d="M329.971 229.445H367.098" stroke="black"/>
                                                            <path id="Vector 611" d="M329.971 240.055H367.098" stroke="black"/>
                                                            <g id="Group 2460" class="magnify" style="animation-delay: .5s;">
                                                                <circle id="Ellipse 477" cx="119.59" cy="224.526" r="44.8307" stroke="black"/>
                                                                <path id="Vector 540" d="M162.86 283.036L163.478 273.977H172.75L199.949 300.55V309.005H190.676L162.86 283.036Z" stroke="black"/>
                                                                <path id="Vector 541" d="M162.859 273.978L148.436 259.555" stroke="black"/>
                                                                <path id="Vector 542" d="M198.918 307.976L163.89 275.008" stroke="black"/>
                                                            </g>
                                                            <rect id="Rectangle 639" x="179" y="202" width="126" height="31" rx="2" fill="#FFA451"/>
                                                            <path id="$" d="M193.539 224.628C192.325 224.628 191.305 224.452 190.479 224.1C189.665 223.736 189.046 223.228 188.62 222.575C188.207 221.91 188 221.126 188 220.222H190.479C190.479 220.611 190.582 220.981 190.789 221.333C190.995 221.684 191.318 221.973 191.757 222.199C192.209 222.412 192.803 222.519 193.539 222.519C194.507 222.519 195.243 222.337 195.746 221.973C196.25 221.609 196.502 221.157 196.502 220.617C196.502 220.128 196.282 219.72 195.843 219.393C195.417 219.067 194.752 218.866 193.849 218.791L192.764 218.697C191.434 218.571 190.376 218.182 189.588 217.529C188.8 216.864 188.407 215.923 188.407 214.705C188.407 213.864 188.6 213.155 188.988 212.577C189.388 212 189.956 211.567 190.692 211.278C191.441 210.977 192.325 210.826 193.345 210.826C194.404 210.826 195.301 210.996 196.037 211.335C196.786 211.674 197.354 212.163 197.741 212.803C198.141 213.431 198.342 214.197 198.342 215.1H195.863C195.863 214.711 195.766 214.354 195.572 214.027C195.391 213.701 195.114 213.437 194.739 213.236C194.378 213.036 193.913 212.935 193.345 212.935C192.829 212.935 192.39 213.01 192.028 213.161C191.667 213.312 191.389 213.519 191.195 213.782C191.002 214.046 190.905 214.354 190.905 214.705C190.905 215.144 191.066 215.533 191.389 215.872C191.725 216.211 192.261 216.412 192.996 216.475L194.081 216.569C195.566 216.695 196.754 217.096 197.644 217.774C198.548 218.452 199 219.4 199 220.617C199 221.458 198.781 222.18 198.342 222.782C197.915 223.372 197.296 223.831 196.482 224.157C195.669 224.471 194.688 224.628 193.539 224.628ZM192.357 227V224.251H194.604V227H192.357ZM192.28 211.749V209H194.526V211.749H192.28Z" fill="black"/>
                                                            <path id="5,000" d="M220.168 224.304C219.251 224.304 218.461 224.123 217.8 223.76C217.149 223.397 216.648 222.917 216.296 222.32C215.955 221.712 215.784 221.051 215.784 220.336H217.976C217.976 220.741 218.067 221.099 218.248 221.408C218.44 221.717 218.701 221.963 219.032 222.144C219.363 222.315 219.747 222.4 220.184 222.4C220.643 222.4 221.037 222.304 221.368 222.112C221.699 221.92 221.949 221.659 222.12 221.328C222.301 220.997 222.392 220.619 222.392 220.192C222.392 219.776 222.301 219.403 222.12 219.072C221.949 218.731 221.699 218.464 221.368 218.272C221.048 218.069 220.659 217.968 220.2 217.968C219.816 217.968 219.453 218.043 219.112 218.192C218.771 218.341 218.504 218.539 218.312 218.784H216.216L216.808 212.32H223.576V214.256H217.8L218.6 213.632L218.216 217.664L217.672 217.504C217.981 217.152 218.36 216.859 218.808 216.624C219.256 216.389 219.821 216.272 220.504 216.272C221.368 216.272 222.104 216.448 222.712 216.8C223.32 217.152 223.784 217.621 224.104 218.208C224.424 218.784 224.584 219.413 224.584 220.096V220.304C224.584 220.997 224.413 221.648 224.072 222.256C223.731 222.864 223.229 223.36 222.568 223.744C221.917 224.117 221.117 224.304 220.168 224.304ZM227.124 226.656L225.396 226L227.028 221.36L228.884 222.048L227.124 226.656ZM235.548 224.304C234.631 224.304 233.852 224.155 233.212 223.856C232.572 223.547 232.05 223.131 231.644 222.608C231.239 222.075 230.94 221.467 230.748 220.784C230.567 220.091 230.476 219.365 230.476 218.608V217.712C230.476 216.635 230.658 215.664 231.02 214.8C231.383 213.936 231.938 213.253 232.684 212.752C233.431 212.24 234.386 211.984 235.548 211.984C236.7 211.984 237.65 212.24 238.396 212.752C239.143 213.253 239.692 213.936 240.044 214.8C240.407 215.664 240.588 216.635 240.588 217.712V218.608C240.588 219.365 240.492 220.091 240.3 220.784C240.119 221.467 239.826 222.075 239.42 222.608C239.026 223.131 238.508 223.547 237.868 223.856C237.228 224.155 236.455 224.304 235.548 224.304ZM235.548 222.224C236.498 222.224 237.196 221.899 237.644 221.248C238.092 220.587 238.316 219.563 238.316 218.176C238.316 216.704 238.087 215.653 237.628 215.024C237.17 214.384 236.476 214.064 235.548 214.064C234.61 214.064 233.906 214.384 233.436 215.024C232.978 215.653 232.748 216.693 232.748 218.144C232.748 219.541 232.978 220.571 233.436 221.232C233.895 221.893 234.599 222.224 235.548 222.224ZM247.642 224.304C246.725 224.304 245.946 224.155 245.306 223.856C244.666 223.547 244.143 223.131 243.738 222.608C243.333 222.075 243.034 221.467 242.842 220.784C242.661 220.091 242.57 219.365 242.57 218.608V217.712C242.57 216.635 242.751 215.664 243.114 214.8C243.477 213.936 244.031 213.253 244.778 212.752C245.525 212.24 246.479 211.984 247.642 211.984C248.794 211.984 249.743 212.24 250.49 212.752C251.237 213.253 251.786 213.936 252.138 214.8C252.501 215.664 252.682 216.635 252.682 217.712V218.608C252.682 219.365 252.586 220.091 252.394 220.784C252.213 221.467 251.919 222.075 251.514 222.608C251.119 223.131 250.602 223.547 249.962 223.856C249.322 224.155 248.549 224.304 247.642 224.304ZM247.642 222.224C248.591 222.224 249.29 221.899 249.738 221.248C250.186 220.587 250.41 219.563 250.41 218.176C250.41 216.704 250.181 215.653 249.722 215.024C249.263 214.384 248.57 214.064 247.642 214.064C246.703 214.064 245.999 214.384 245.53 215.024C245.071 215.653 244.842 216.693 244.842 218.144C244.842 219.541 245.071 220.571 245.53 221.232C245.989 221.893 246.693 222.224 247.642 222.224ZM259.736 224.304C258.819 224.304 258.04 224.155 257.4 223.856C256.76 223.547 256.237 223.131 255.832 222.608C255.427 222.075 255.128 221.467 254.936 220.784C254.755 220.091 254.664 219.365 254.664 218.608V217.712C254.664 216.635 254.845 215.664 255.208 214.8C255.571 213.936 256.125 213.253 256.872 212.752C257.619 212.24 258.573 211.984 259.736 211.984C260.888 211.984 261.837 212.24 262.584 212.752C263.331 213.253 263.88 213.936 264.232 214.8C264.595 215.664 264.776 216.635 264.776 217.712V218.608C264.776 219.365 264.68 220.091 264.488 220.784C264.307 221.467 264.013 222.075 263.608 222.608C263.213 223.131 262.696 223.547 262.056 223.856C261.416 224.155 260.643 224.304 259.736 224.304ZM259.736 222.224C260.685 222.224 261.384 221.899 261.832 221.248C262.28 220.587 262.504 219.563 262.504 218.176C262.504 216.704 262.275 215.653 261.816 215.024C261.357 214.384 260.664 214.064 259.736 214.064C258.797 214.064 258.093 214.384 257.624 215.024C257.165 215.653 256.936 216.693 256.936 218.144C256.936 219.541 257.165 220.571 257.624 221.232C258.083 221.893 258.787 222.224 259.736 222.224Z" fill="black"/>
                                                        </g>
                                                    </g>
                                                    <path class="ledger-icon-name" id="$_2" d="M277.779 92.1402C270.495 92.1402 264.437 91.1053 259.605 89.0356C254.774 86.8919 251.132 83.8982 248.679 80.0544C246.226 76.1367 245 71.5537 245 66.3054H261.389C261.389 68.3752 261.947 70.334 263.062 72.182C264.177 73.9561 265.961 75.3975 268.413 76.5063C270.866 77.5411 273.988 78.0586 277.779 78.0586C282.833 78.0586 286.698 77.1715 289.374 75.3975C292.124 73.6234 293.499 71.258 293.499 68.3013C293.499 65.7141 292.347 63.6074 290.043 61.9812C287.739 60.281 284.059 59.1722 279.005 58.6548L273.319 58.2113C265.366 57.4721 259.048 55.1067 254.365 51.1151C249.683 47.0495 247.341 41.3208 247.341 33.9289C247.341 28.8284 248.493 24.5781 250.798 21.1778C253.102 17.7036 256.409 15.1165 260.72 13.4163C265.031 11.6423 270.197 10.7552 276.218 10.7552C282.684 10.7552 288.11 11.7531 292.496 13.749C296.881 15.7448 300.189 18.6276 302.419 22.3975C304.723 26.1674 305.875 30.7503 305.875 36.1464H289.485C289.485 34.0028 288.965 32.1179 287.925 30.4916C286.958 28.7915 285.509 27.424 283.576 26.3891C281.644 25.3542 279.191 24.8368 276.218 24.8368C273.616 24.8368 271.387 25.2064 269.528 25.9456C267.67 26.6848 266.258 27.7566 265.292 29.1611C264.325 30.4916 263.842 32.0809 263.842 33.9289C263.842 36.2204 264.697 38.2901 266.407 40.1381C268.116 41.9121 270.941 43.0209 274.88 43.4644L280.566 43.9079C289.485 44.6471 296.621 47.0495 301.973 51.1151C307.324 55.1806 310 60.9093 310 68.3013C310 73.4017 308.736 77.7259 306.209 81.2741C303.682 84.8222 300.003 87.5202 295.172 89.3682C290.415 91.2162 284.617 92.1402 277.779 92.1402ZM269.863 106V89.8117H284.468V106H269.863ZM269.417 16.1883V0H284.022V16.1883H269.417Z" fill="#FFA451"/>
                                                </g>
                                            </g>
                                        </svg>