<svg width="160" height="157" viewBox="0 0 160 157" fill="none">
                                            <circle cx="85" cy="82" r="75" fill="#72D0C6"/>
                                            <circle cx="75" cy="75" r="74.5" fill="#F9F3E5" stroke="#122F47"/>
                                            <path d="M30.34 84V65.02H33.954V84H30.34ZM33.434 84V80.88H42.04V84H33.434ZM33.434 75.914V72.794H41.364V75.914H33.434ZM33.434 68.14V65.02H41.832V68.14H33.434ZM45.5423 84V69.882H48.4023V75.94H48.1423C48.1423 74.5013 48.3329 73.3053 48.7143 72.352C49.0956 71.3813 49.6589 70.6533 50.4043 70.168C51.1669 69.6827 52.1116 69.44 53.2383 69.44H53.3943C55.0756 69.44 56.3496 69.986 57.2163 71.078C58.0829 72.1527 58.5163 73.7647 58.5163 75.914V84H54.9023V75.602C54.9023 74.7353 54.6509 74.0333 54.1483 73.496C53.6629 72.9587 52.9869 72.69 52.1203 72.69C51.2363 72.69 50.5169 72.9673 49.9623 73.522C49.4249 74.0593 49.1563 74.7873 49.1563 75.706V84H45.5423ZM68.7197 84.494C67.5063 84.494 66.4403 84.286 65.5217 83.87C64.6203 83.454 63.8663 82.8993 63.2597 82.206C62.6703 81.4953 62.2197 80.7067 61.9077 79.84C61.613 78.9733 61.4657 78.0893 61.4657 77.188V76.694C61.4657 75.758 61.613 74.8567 61.9077 73.99C62.2197 73.106 62.6703 72.326 63.2597 71.65C63.8663 70.9567 64.6117 70.4107 65.4957 70.012C66.3797 69.596 67.4023 69.388 68.5637 69.388C70.089 69.388 71.363 69.726 72.3857 70.402C73.4257 71.0607 74.2057 71.936 74.7257 73.028C75.2457 74.1027 75.5057 75.264 75.5057 76.512V77.812H62.9997V75.602H73.2437L72.1257 76.694C72.1257 75.7927 71.9957 75.0213 71.7357 74.38C71.4757 73.7387 71.077 73.2447 70.5397 72.898C70.0197 72.5513 69.361 72.378 68.5637 72.378C67.7663 72.378 67.0903 72.56 66.5357 72.924C65.981 73.288 65.5563 73.8167 65.2617 74.51C64.9843 75.186 64.8457 76.0007 64.8457 76.954C64.8457 77.838 64.9843 78.6267 65.2617 79.32C65.539 79.996 65.9637 80.5333 66.5357 80.932C67.1077 81.3133 67.8357 81.504 68.7197 81.504C69.6037 81.504 70.323 81.3307 70.8777 80.984C71.4323 80.62 71.7877 80.178 71.9437 79.658H75.2717C75.0637 80.6287 74.665 81.478 74.0757 82.206C73.4863 82.934 72.7323 83.4973 71.8137 83.896C70.9123 84.2947 69.881 84.494 68.7197 84.494ZM78.5247 84V69.882H81.3847V75.862H81.3067C81.3067 73.834 81.74 72.3 82.6067 71.26C83.4734 70.22 84.7474 69.7 86.4287 69.7H86.9487V72.846H85.9607C84.7474 72.846 83.8027 73.1753 83.1267 73.834C82.468 74.4753 82.1387 75.4113 82.1387 76.642V84H78.5247ZM94.7769 89.564C94.1009 89.564 93.4076 89.538 92.6969 89.486C92.0036 89.434 91.3536 89.3647 90.7469 89.278V86.262C91.3709 86.3313 92.0383 86.392 92.7489 86.444C93.4596 86.5133 94.1269 86.548 94.7509 86.548C95.9123 86.548 96.8483 86.4093 97.5589 86.132C98.2869 85.8547 98.8156 85.4127 99.1449 84.806C99.4916 84.2167 99.6649 83.4627 99.6649 82.544V79.762L100.445 77.994C100.393 79.294 100.124 80.4033 99.6389 81.322C99.1536 82.2233 98.4949 82.9167 97.6629 83.402C96.8309 83.87 95.8689 84.104 94.7769 84.104C93.8063 84.104 92.9223 83.922 92.1249 83.558C91.3449 83.194 90.6689 82.6913 90.0969 82.05C89.5423 81.4087 89.1089 80.6547 88.7969 79.788C88.4849 78.9213 88.3289 77.994 88.3289 77.006V76.46C88.3289 75.472 88.4849 74.5533 88.7969 73.704C89.1263 72.8373 89.5856 72.0833 90.1749 71.442C90.7643 70.8007 91.4663 70.3067 92.2809 69.96C93.0956 69.6133 93.9969 69.44 94.9849 69.44C96.1463 69.44 97.1516 69.6913 98.0009 70.194C98.8676 70.6967 99.5436 71.4247 100.029 72.378C100.514 73.3313 100.783 74.5013 100.835 75.888L100.211 75.992V69.882H103.071V82.336C103.071 84.052 102.776 85.4387 102.187 86.496C101.598 87.5533 100.688 88.3247 99.4569 88.81C98.2436 89.3127 96.6836 89.564 94.7769 89.564ZM95.8169 81.01C96.5103 81.01 97.1429 80.854 97.7149 80.542C98.2869 80.23 98.7463 79.7793 99.0929 79.19C99.4396 78.6007 99.6129 77.89 99.6129 77.058V76.148C99.6129 75.3507 99.4309 74.6747 99.0669 74.12C98.7203 73.5653 98.2609 73.1493 97.6889 72.872C97.1169 72.5773 96.4929 72.43 95.8169 72.43C95.0543 72.43 94.3783 72.612 93.7889 72.976C93.2169 73.3227 92.7663 73.8167 92.4369 74.458C92.1076 75.0993 91.9429 75.862 91.9429 76.746C91.9429 77.6127 92.1076 78.3667 92.4369 79.008C92.7663 79.6493 93.2169 80.1433 93.7889 80.49C94.3783 80.8367 95.0543 81.01 95.8169 81.01ZM106.597 89.564V86.47H109.249C109.752 86.47 110.168 86.4007 110.497 86.262C110.844 86.1407 111.13 85.9327 111.355 85.638C111.58 85.3607 111.754 84.9707 111.875 84.468L115.671 69.882H119.129L114.943 85.248C114.666 86.3053 114.276 87.146 113.773 87.77C113.27 88.4113 112.62 88.8707 111.823 89.148C111.043 89.4253 110.072 89.564 108.911 89.564H106.597ZM110.991 83.688V80.828H114.007V83.688H110.991ZM109.769 83.688L105.193 69.882H108.833L113.175 83.688H109.769Z" fill="#122F47"/>
                                        </svg>