<svg width="46" height="46" viewBox="0 0 46 46" fill="none" class="rotationx">
                                        <path fill-rule="evenodd" clip-rule="evenodd" d="M21.2441 0.0260948C17.8096 0.379459 15.2451 1.11822 12.4792 2.55085C10.3474 3.65512 8.53612 4.99003 6.76659 6.76135C2.55699 10.975 0.234949 16.2835 0.0145222 22.1976C-0.0819371 24.7871 0.302192 27.3863 1.16502 29.9812C1.8299 31.9807 2.08449 32.3452 2.87243 32.4256C3.61669 32.5014 4.29856 31.9046 4.29856 31.1772C4.29856 30.9837 4.07894 30.1697 3.81042 29.3684C2.59276 25.7343 2.37728 22.6186 3.09358 19.0032C4.83785 10.1995 12.2797 3.55488 21.2928 2.75367C25.4818 2.38132 29.7085 3.40605 33.6704 5.75452L34.5898 6.29955L34.1393 6.45225C33.5592 6.64887 33.2923 6.90604 33.1535 7.40257C33.0576 7.74514 33.0636 7.85924 33.1955 8.20486C33.2807 8.42811 33.4674 8.69212 33.6142 8.79677C34.0296 9.09282 39.6813 10.9498 40.1659 10.9494C40.8526 10.9488 41.3774 10.5088 41.4854 9.8431C41.563 9.3643 39.5442 3.33433 39.1982 3.01138C38.8501 2.68645 38.61 2.58117 38.2181 2.58162C37.3049 2.58252 36.6728 3.59906 37.0188 4.51006C37.067 4.63702 37.0883 4.74086 37.0661 4.74086C37.0438 4.74086 36.5897 4.44374 36.0569 4.08056C33.0638 2.04046 29.7556 0.744252 26.1435 0.196523C25.2404 0.0594786 22.0109 -0.0527306 21.2441 0.0260948ZM19.6494 8.34577C19.0814 8.64605 18.9517 9.02911 18.9517 10.4082V11.5835L18.7045 11.6833C17.8224 12.0394 16.3794 12.8202 15.8154 13.2467C15.4502 13.523 15.0963 13.7279 15.0292 13.702C14.962 13.6762 14.5126 13.4259 14.0303 13.1458C12.515 12.2654 12.0345 12.372 11.2019 13.7726C9.76995 16.182 8.69209 18.1491 8.64507 18.4392C8.60695 18.6741 8.64633 18.8791 8.78441 19.1646C8.95333 19.5139 9.10373 19.6374 10.0163 20.1766L11.0557 20.7906L10.9809 21.4267C10.8849 22.2422 10.8849 23.7728 10.9809 24.5883L11.0557 25.2243L10.0163 25.8384C9.10373 26.3775 8.95333 26.5011 8.78441 26.8504C8.64633 27.1358 8.60695 27.3408 8.64507 27.5758C8.69541 27.8861 11.0738 32.1544 11.5567 32.8008C12.1639 33.6138 12.7258 33.6296 14.0303 32.8703C14.5126 32.5895 14.962 32.3388 15.0292 32.3129C15.0963 32.2871 15.4502 32.492 15.8154 32.7682C16.3794 33.1948 17.8224 33.9756 18.7045 34.3317L18.9517 34.4315V35.6068C18.9517 37.0029 19.0802 37.3731 19.6686 37.6736C20.003 37.8443 20.1941 37.8547 22.9971 37.8547C25.8001 37.8547 25.9912 37.8443 26.3256 37.6736C26.9144 37.373 27.0425 37.003 27.0425 35.6041V34.426L27.3346 34.3257C27.967 34.1085 29.549 33.2414 30.1788 32.7666C30.544 32.4913 30.8979 32.2871 30.965 32.3129C31.0322 32.3388 31.4817 32.5891 31.964 32.8692C33.0111 33.4776 33.4208 33.5606 33.9384 33.2695C34.353 33.0363 34.1969 33.2706 35.9134 30.3022C36.6698 28.9942 37.3134 27.7922 37.3436 27.6311C37.4137 27.2568 37.2548 26.7754 36.9653 26.4856C36.8406 26.3608 36.3332 26.0289 35.8378 25.7481L34.9371 25.2376L35.0126 24.595C35.0543 24.2415 35.0882 23.5271 35.0882 23.0075C35.0882 22.4878 35.0543 21.7734 35.0126 21.42L34.9371 20.7773L35.8423 20.2643C36.3401 19.9821 36.8677 19.6142 37.0146 19.4467C37.3306 19.0864 37.4385 18.624 37.2996 18.2251C37.2085 17.9635 34.9116 13.9103 34.4666 13.2259C34.3635 13.0674 34.1235 12.85 33.9332 12.7428C33.4214 12.4545 33.0082 12.5391 31.964 13.1458C31.4817 13.4259 31.0322 13.6762 30.965 13.702C30.8979 13.7279 30.544 13.5237 30.1788 13.2483C29.549 12.7736 27.967 11.9064 27.3346 11.6893L27.0425 11.589V10.4109C27.0425 9.01192 26.9144 8.642 26.3256 8.34137C25.9906 8.17031 25.8045 8.16041 22.9782 8.16419C20.1764 8.16797 19.9641 8.17948 19.6494 8.34577ZM42.4166 13.7169C41.9966 13.9281 41.6957 14.396 41.6957 14.8377C41.6957 15.0313 41.916 15.8453 42.1853 16.6466C43.0348 19.1738 43.3771 21.3998 43.281 23.7723C43.1619 26.7152 42.5299 29.2349 41.2488 31.8755C39.2468 36.0019 35.9892 39.2617 31.8519 41.2786C29.9099 42.2254 28.1798 42.7657 25.9188 43.1316C24.7024 43.3285 21.5351 43.3551 20.435 43.1777C17.3528 42.6805 14.9477 41.8155 12.3238 40.2603L11.4044 39.7154L11.8521 39.5637C12.4135 39.3734 12.6143 39.1926 12.7977 38.712C12.9835 38.2248 12.8524 37.6639 12.469 37.3054C12.1194 36.9784 6.44521 35.0651 5.8268 35.0656C5.37489 35.066 4.92882 35.2927 4.7039 35.6363C4.36742 36.1503 4.4014 36.3193 5.50488 39.6233C6.08085 41.3478 6.60199 42.8246 6.66294 42.9049C6.86134 43.1661 7.39263 43.433 7.71464 43.4332C8.67923 43.4338 9.32847 42.4344 8.97248 41.4972C8.86118 41.2041 8.81749 41.1839 9.96206 41.955C12.9884 43.9937 16.2963 45.2836 19.8957 45.8285C21.4058 46.0572 24.6784 46.0572 26.1884 45.8285C31.1771 45.0733 35.6159 42.8493 39.1395 39.3396C41.0996 37.3874 42.4784 35.4804 43.6291 33.1306C44.4539 31.4461 44.8528 30.3668 45.2899 28.6373C46.4131 24.1931 46.2051 19.8776 44.6571 15.5116C44.4514 14.9313 44.1957 14.3255 44.0888 14.1654C43.8624 13.8259 43.3832 13.5595 42.9992 13.5595C42.8508 13.5595 42.5887 13.6303 42.4166 13.7169ZM23.8242 19.0586C24.603 19.2225 25.2476 19.578 25.8328 20.1665C28.1513 22.4978 26.8874 26.4256 23.6394 26.9831C22.3671 27.2015 21.1202 26.7931 20.1638 25.8447C18.5624 24.2567 18.562 21.749 20.1627 20.1689C21.1768 19.1678 22.4744 18.7743 23.8242 19.0586Z" fill="#122F47"/>
                                    </svg>