<svg width="81" height="112" viewBox="0 0 81 112" fill="none">
                                        <g id="Frame 131">
                                            <g id="Group 2573">
                                                <path id="Vector 687" d="M1 1V110L10.764 98.8775L22.3034 110L30.2921 98.8775L42.7191 110L49.8202 98.8775L61.3596 110L68.4607 98.8775L80 110V1H1Z" fill="#72D0C6"/>
                                                <path id="Vector 692" d="M67.9772 9.83272L53 1H79.5V111L72.8722 17.7375C72.6392 14.4581 70.8091 11.5028 67.9772 9.83272Z" fill="#C0EDE3"/>
                                                <path id="Vector 688" d="M1 1V110L10.764 98.8775L22.3034 110L30.2921 98.8775L42.7191 110L49.8202 98.8775L61.3596 110L68.4607 98.8775L80 110V1H1Z" stroke="#122F47"/>
                                                <g class="lineOffset" style="visibility: inherit; opacity: 0;">
                                                    <path id="Vector 660" d="M12 35H69" stroke="#122F47" stroke-linecap="round"/>
                                                    <path id="Vector 689" d="M12 44H69" stroke="#122F47" stroke-linecap="round"/>
                                                    <path id="Vector 690" d="M12 53H69" stroke="#122F47" stroke-linecap="round"/>
                                                    <path id="Vector 691" d="M12 62H69" stroke="#122F47" stroke-linecap="round"/>
                                                </g>
                                                <path id="$" class="invoiceDollor" d="M19.0493 89.1004C17.5047 89.1004 16.2066 88.8856 15.1549 88.4561C14.1197 88.0112 13.331 87.3898 12.7887 86.5921C12.2629 85.7789 12 84.8201 12 83.7155H15.1549C15.1549 84.1911 15.2864 84.6437 15.5493 85.0732C15.8122 85.5028 16.223 85.8556 16.7817 86.1318C17.3568 86.3926 18.1127 86.523 19.0493 86.523C20.2817 86.523 21.2183 86.3006 21.8592 85.8556C22.5 85.4107 22.8204 84.8584 22.8204 84.1987C22.8204 83.6004 22.5411 83.1018 21.9824 82.7029C21.4401 82.304 20.5939 82.0586 19.4437 81.9665L18.0634 81.8515C16.3709 81.698 15.0235 81.2225 14.0211 80.4247C13.0188 79.6116 12.5176 78.4609 12.5176 76.9728C12.5176 75.9449 12.7641 75.0781 13.257 74.3724C13.7664 73.6667 14.4894 73.1374 15.4261 72.7845C16.3791 72.4163 17.5047 72.2322 18.8028 72.2322C20.1502 72.2322 21.2923 72.4393 22.2289 72.8536C23.1819 73.2678 23.9049 73.8661 24.3979 74.6485C24.9073 75.4156 25.162 76.3515 25.162 77.4561H22.007C22.007 76.9805 21.8838 76.5432 21.6373 76.1444C21.4073 75.7455 21.054 75.4233 20.5775 75.1778C20.1174 74.9324 19.5258 74.8096 18.8028 74.8096C18.1455 74.8096 17.5869 74.9017 17.1268 75.0858C16.6667 75.2699 16.3134 75.523 16.0669 75.8452C15.8204 76.1674 15.6972 76.5432 15.6972 76.9728C15.6972 77.5098 15.9026 77.9854 16.3134 78.3996C16.7406 78.8138 17.4225 79.0593 18.3592 79.136L19.7394 79.251C21.6291 79.4045 23.1408 79.8954 24.2746 80.7238C25.4249 81.5523 26 82.7106 26 84.1987C26 85.2266 25.7207 86.1088 25.162 86.8452C24.6197 87.5662 23.831 88.1262 22.7958 88.5251C21.7606 88.9086 20.5117 89.1004 19.0493 89.1004ZM17.5458 92V88.6402H20.4049V92H17.5458ZM17.4472 73.3598V70H20.3063V73.3598H17.4472Z" fill="#122F47"/>
                                            </g>
                                            <g id="Invoice">
                                                <path d="M17 23.7558V14.3728H18.7905V23.7558H17Z" fill="#122F47"/>
                                                <path d="M20.9487 23.7558V16.7764H22.3357V19.7712H22.2096C22.2096 19.06 22.3021 18.4687 22.487 17.9974C22.672 17.5176 22.9451 17.1577 23.3066 16.9177C23.6765 16.6778 24.1346 16.5578 24.681 16.5578H24.7566C25.572 16.5578 26.1898 16.8278 26.6101 17.3676C27.0304 17.8989 27.2406 18.6958 27.2406 19.7584V23.7558H25.4879V19.6041C25.4879 19.1757 25.366 18.8286 25.1223 18.563C24.8869 18.2973 24.5591 18.1645 24.1388 18.1645C23.7101 18.1645 23.3612 18.3016 23.0922 18.5758C22.8317 18.8415 22.7014 19.2014 22.7014 19.6555V23.7558H20.9487Z" fill="#122F47"/>
                                                <path d="M30.4499 23.7558L28.3064 16.7764H30.1095L32.1647 23.7558H30.4499ZM30.9669 23.7558V22.2905H32.8204V23.7558H30.9669ZM31.6604 23.7558L33.4256 16.7764H35.1152L33.2617 23.7558H31.6604Z" fill="#122F47"/>
                                                <path d="M39.5821 24C38.9769 24 38.4431 23.9015 37.9808 23.7044C37.5184 23.5073 37.1276 23.2416 36.8081 22.9075C36.4887 22.5647 36.2449 22.1791 36.0768 21.7506C35.9171 21.3222 35.8373 20.8766 35.8373 20.4139V20.144C35.8373 19.6641 35.9213 19.2099 36.0894 18.7815C36.266 18.3445 36.5139 17.9589 36.8334 17.6247C37.1612 17.2819 37.5563 17.0163 38.0186 16.8278C38.4809 16.6307 39.0021 16.5321 39.5821 16.5321C40.1621 16.5321 40.6833 16.6307 41.1456 16.8278C41.6079 17.0163 41.9988 17.2819 42.3182 17.6247C42.646 17.9589 42.894 18.3445 43.0621 18.7815C43.2302 19.2099 43.3143 19.6641 43.3143 20.144V20.4139C43.3143 20.8766 43.2302 21.3222 43.0621 21.7506C42.9024 22.1791 42.6628 22.5647 42.3434 22.9075C42.024 23.2416 41.6331 23.5073 41.1708 23.7044C40.7085 23.9015 40.1789 24 39.5821 24ZM39.5821 22.4704C40.0108 22.4704 40.3722 22.3762 40.6664 22.1877C40.9607 21.9906 41.1834 21.7292 41.3347 21.4036C41.486 21.0694 41.5617 20.6924 41.5617 20.2725C41.5617 19.844 41.4818 19.467 41.3221 19.1414C41.1708 18.8072 40.9438 18.5458 40.6412 18.3573C40.347 18.1602 39.994 18.0617 39.5821 18.0617C39.1702 18.0617 38.8129 18.1602 38.5103 18.3573C38.2161 18.5458 37.9892 18.8072 37.8295 19.1414C37.6697 19.467 37.5899 19.844 37.5899 20.2725C37.5899 20.6924 37.6655 21.0694 37.8168 21.4036C37.9766 21.7292 38.2035 21.9906 38.4977 22.1877C38.7919 22.3762 39.1534 22.4704 39.5821 22.4704Z" fill="#122F47"/>
                                                <path d="M45.1768 23.7558V16.7764H46.9294V23.7558H45.1768ZM44.2185 18.1131V16.7764H46.9294V18.1131H44.2185ZM45.8198 15.9409C45.4752 15.9409 45.2188 15.8509 45.0507 15.671C44.891 15.4824 44.8111 15.2511 44.8111 14.9769C44.8111 14.6855 44.891 14.4499 45.0507 14.2699C45.2188 14.09 45.4752 14 45.8198 14C46.1645 14 46.4166 14.09 46.5764 14.2699C46.7361 14.4499 46.8159 14.6855 46.8159 14.9769C46.8159 15.2511 46.7361 15.4824 46.5764 15.671C46.4166 15.8509 46.1645 15.9409 45.8198 15.9409Z" fill="#122F47"/>
                                                <path d="M51.988 24C51.3912 24 50.8742 23.8972 50.4371 23.6915C50.0084 23.4859 49.647 23.2117 49.3528 22.8689C49.067 22.5261 48.8526 22.1405 48.7097 21.7121C48.5668 21.2836 48.4954 20.8466 48.4954 20.401V20.1568C48.4954 19.6855 48.5668 19.2356 48.7097 18.8072C48.861 18.3702 49.0838 17.9846 49.378 17.6504C49.6722 17.3076 50.0336 17.0377 50.4624 16.8406C50.8995 16.635 51.4038 16.5321 51.9754 16.5321C52.5722 16.5321 53.106 16.6521 53.5767 16.892C54.0475 17.1234 54.4215 17.449 54.6989 17.8689C54.9847 18.2888 55.1444 18.7772 55.1781 19.3342H53.4759C53.4338 18.9743 53.2825 18.6744 53.022 18.4344C52.7698 18.1945 52.4209 18.0746 51.9754 18.0746C51.5887 18.0746 51.2651 18.1688 51.0045 18.3573C50.7524 18.5458 50.5632 18.8072 50.4371 19.1414C50.311 19.467 50.248 19.844 50.248 20.2725C50.248 20.6838 50.3068 21.0566 50.4245 21.3907C50.5506 21.7249 50.7397 21.9863 50.9919 22.1748C51.2525 22.3633 51.5845 22.4576 51.988 22.4576C52.2906 22.4576 52.5512 22.4019 52.7698 22.2905C52.9883 22.1791 53.1606 22.0249 53.2867 21.8278C53.4212 21.6307 53.5053 21.4079 53.5389 21.1594H55.2411C55.2075 21.7249 55.0436 22.2219 54.7494 22.6504C54.4636 23.0703 54.0811 23.4002 53.602 23.6401C53.1312 23.88 52.5933 24 51.988 24Z" fill="#122F47"/>
                                                <path d="M59.7091 24C59.1207 24 58.6037 23.8972 58.1582 23.6915C57.7211 23.4859 57.3554 23.2117 57.0612 22.8689C56.7754 22.5176 56.5569 22.1277 56.4056 21.6992C56.2627 21.2708 56.1912 20.8338 56.1912 20.3882V20.144C56.1912 19.6812 56.2627 19.2356 56.4056 18.8072C56.5569 18.3702 56.7754 17.9846 57.0612 17.6504C57.3554 17.3076 57.7169 17.0377 58.1456 16.8406C58.5743 16.635 59.0702 16.5321 59.6334 16.5321C60.3732 16.5321 60.991 16.6992 61.4869 17.0334C61.9913 17.359 62.3696 17.7918 62.6217 18.3316C62.8739 18.8629 63 19.437 63 20.054V20.6967H56.9351V19.6041H61.903L61.3608 20.144C61.3608 19.6984 61.2978 19.3171 61.1717 19C61.0456 18.6829 60.8523 18.4387 60.5917 18.2674C60.3395 18.096 60.0201 18.0103 59.6334 18.0103C59.2468 18.0103 58.9189 18.1003 58.6499 18.2802C58.381 18.4602 58.175 18.7215 58.0321 19.0643C57.8976 19.3985 57.8304 19.8012 57.8304 20.2725C57.8304 20.7095 57.8976 21.0994 58.0321 21.4422C58.1666 21.7764 58.3725 22.042 58.6499 22.2391C58.9273 22.4276 59.2804 22.5219 59.7091 22.5219C60.1378 22.5219 60.4866 22.4362 60.7556 22.2648C61.0246 22.0848 61.1969 21.8663 61.2726 21.6093H62.8865C62.7856 22.0891 62.5923 22.509 62.3065 22.8689C62.0207 23.2288 61.6551 23.5073 61.2095 23.7044C60.7724 23.9015 60.2723 24 59.7091 24Z" fill="#122F47"/>
                                            </g>
                                        </g>
                                    </svg>