<svg width="117" height="137" viewBox="0 0 117 137" fill="none">
                                            <g id="Frame 129">
                                                <g id="Group 2540">
                                                    <g id="Group 2538">
                                                        <g id="Group 2537">
                                                            <path id="Vector 659" d="M14.9051 123.489V7.30469C14.9051 3.99098 17.5914 1.30469 20.9051 1.30469H109.515C112.828 1.30469 115.515 3.99098 115.515 7.30469V123.489C115.515 126.802 112.828 129.489 109.515 129.489H20.9051C17.5914 129.489 14.9051 126.802 14.9051 123.489Z" fill="#72D0C6"/>
                                                            <path id="Vector 658" d="M102.1 19.1908C99.8066 4.28571 71.7926 3.54046 57.3843 1.30469H110.298C114.471 1.90089 115.514 5.03097 115.514 6.52148L114.769 136.196C111.043 100.424 103.292 26.9415 102.1 19.1908Z" fill="#C0EDE3"/>
                                                            <path id="Vector 657" d="M14.9051 124.234V7.30469C14.9051 3.99098 17.5914 1.30469 20.9051 1.30469H109.515C112.828 1.30469 115.515 3.99097 115.515 7.30468V124.234C115.515 127.548 112.828 130.234 109.515 130.234H20.9051C17.5914 130.234 14.9051 127.548 14.9051 124.234Z" stroke="#122F47"/>
                                                            <g class="lineOffset" style="visibility: inherit; opacity: 0;">
                                                                <path id="Vector 660" d="M27 53H100" stroke="#122F47" stroke-linecap="round"/>
                                                                <path id="Vector 661" d="M27 66H100" stroke="#122F47" stroke-linecap="round"/>
                                                                <path id="Vector 662" d="M27 78H100" stroke="#122F47" stroke-linecap="round"/>
                                                                <path id="Vector 663" d="M27 91H100" stroke="#122F47" stroke-linecap="round"/>
                                                                <path id="Vector 664" d="M27 103H100" stroke="#122F47" stroke-linecap="round"/>
                                                            </g>
                                                        </g>
                                                    </g>
                                                    <g id="MATERIALS">
                                                        <path d="M27 45.4435V41.1736H28.2093L29.35 43.7238H29.4622L30.5966 41.1736H31.8246V45.4435H30.9457V41.7995L31.0579 41.8112L29.8299 44.572H28.9261L27.6919 41.8112L27.8103 41.7995V45.4435H27Z" fill="#122F47"/>
                                                        <path d="M32.4984 45.4435L34.0505 41.1736H35.4967L37.0924 45.4435H36.1823L34.8297 41.741L35.1476 41.8697H34.3684L34.6926 41.741L33.3836 45.4435H32.4984ZM33.583 44.3088L33.8635 43.6069H35.7086L35.9829 44.3088H33.583Z" fill="#122F47"/>
                                                        <path d="M38.2824 45.4435V41.7878H39.1676V45.4435H38.2824ZM36.9672 41.9048V41.1736H40.4828V41.9048H36.9672Z" fill="#122F47"/>
                                                        <path d="M41.1893 45.4435V41.1736H42.0558V45.4435H41.1893ZM41.9311 45.4435V44.7416H43.9943V45.4435H41.9311ZM41.9311 43.6244V42.9225H43.8323V43.6244H41.9311ZM41.9311 41.8755V41.1736H43.9445V41.8755H41.9311Z" fill="#122F47"/>
                                                        <path d="M44.9026 45.4435V41.1444H45.7877V45.4435H44.9026ZM47.6826 45.4435L46.2864 43.5835H47.2775L48.7174 45.4435H47.6826ZM45.5259 44.0163V43.3436H46.6853C46.8474 43.3436 46.9866 43.3124 47.1029 43.2501C47.2234 43.1877 47.3169 43.0999 47.3834 42.9868C47.4499 42.8738 47.4832 42.7451 47.4832 42.6008C47.4832 42.4526 47.4499 42.322 47.3834 42.2089C47.3169 42.0958 47.2234 42.0081 47.1029 41.9457C46.9866 41.8833 46.8474 41.8521 46.6853 41.8521H45.5259V41.1444H46.5918C46.9575 41.1444 47.2733 41.1951 47.5393 41.2964C47.8094 41.3978 48.0171 41.5519 48.1626 41.7585C48.308 41.9652 48.3808 42.2245 48.3808 42.5365V42.63C48.3808 42.9459 48.306 43.2052 48.1564 43.408C48.0109 43.6108 47.8052 43.7628 47.5393 43.8642C47.2733 43.9656 46.9575 44.0163 46.5918 44.0163H45.5259Z" fill="#122F47"/>
                                                        <path d="M49.4013 45.4435V41.1736H50.2865V45.4435H49.4013Z" fill="#122F47"/>
                                                        <path d="M50.9732 45.4435L52.5253 41.1736H53.9714L55.5672 45.4435H54.6571L53.3045 41.741L53.6224 41.8697H52.8432L53.1673 41.741L51.8583 45.4435H50.9732ZM52.0578 44.3088L52.3383 43.6069H54.1834L54.4576 44.3088H52.0578Z" fill="#122F47"/>
                                                        <path d="M56.2431 45.4435V41.1736H57.1282V45.4435H56.2431ZM57.0035 45.4435V44.7123H58.967V45.4435H57.0035Z" fill="#122F47"/>
                                                        <path d="M61.1919 45.5546C60.7888 45.5546 60.448 45.4942 60.1696 45.3733C59.8953 45.2524 59.6855 45.0867 59.54 44.8761C59.3946 44.6616 59.3219 44.4199 59.3219 44.1508H60.1883C60.1883 44.2639 60.2215 44.375 60.288 44.4842C60.3545 44.5895 60.4605 44.6753 60.6059 44.7416C60.7555 44.8079 60.9508 44.841 61.1919 44.841C61.4079 44.841 61.5887 44.8118 61.7342 44.7533C61.8796 44.6948 61.9876 44.6188 62.0583 44.5252C62.1289 44.4277 62.1643 44.3185 62.1643 44.1976C62.1643 44.0455 62.0957 43.9247 61.9586 43.835C61.8214 43.7414 61.6095 43.6829 61.3228 43.6595L60.9238 43.6303C60.4875 43.5952 60.1384 43.4684 59.8766 43.2501C59.619 43.0278 59.4902 42.7353 59.4902 42.3727C59.4902 42.0997 59.5587 41.8658 59.6959 41.6708C59.833 41.4719 60.0241 41.3198 60.2693 41.2146C60.5187 41.1054 60.8095 41.0508 61.142 41.0508C61.4869 41.0508 61.784 41.1073 62.0334 41.2204C62.2827 41.3335 62.4759 41.4934 62.6131 41.7C62.7502 41.9028 62.8188 42.1426 62.8188 42.4195H61.9523C61.9523 42.3025 61.9212 42.1953 61.8588 42.0978C61.8006 41.9964 61.7113 41.9165 61.5908 41.858C61.4744 41.7956 61.3248 41.7644 61.142 41.7644C60.9675 41.7644 60.822 41.7917 60.7057 41.8463C60.5893 41.9009 60.502 41.9749 60.4439 42.0685C60.3857 42.1621 60.3566 42.2635 60.3566 42.3727C60.3566 42.5053 60.4085 42.6222 60.5124 42.7236C60.6163 42.8211 60.7805 42.8777 61.0049 42.8933L61.4038 42.9284C61.7279 42.9518 62.0126 43.0161 62.2578 43.1214C62.5029 43.2267 62.692 43.369 62.825 43.5484C62.9621 43.7277 63.0307 43.9442 63.0307 44.1976C63.0307 44.4667 62.9559 44.7045 62.8063 44.9112C62.6567 45.114 62.4427 45.2719 62.1643 45.385C61.89 45.4981 61.5659 45.5546 61.1919 45.5546Z" fill="#122F47"/>
                                                    </g>
                                                    <g id="QTs">
                                                        <path d="M92.0952 47C91.8481 47 91.6323 46.9669 91.4479 46.9006C91.2675 46.8385 91.1263 46.7226 91.0243 46.5528C90.9223 46.3872 90.8713 46.1511 90.8713 45.8447V45.1988H91.648V45.9006C91.648 46.029 91.6814 46.1263 91.7481 46.1925C91.8187 46.2629 91.9128 46.2981 92.0305 46.2981H92.7013V47H92.0952ZM91.2714 45.7826C90.883 45.7826 90.5457 45.7101 90.2593 45.5652C89.9768 45.4203 89.7414 45.2319 89.5531 45C89.3688 44.764 89.2295 44.5114 89.1353 44.2422C89.0451 43.9689 89 43.706 89 43.4534V43.3168C89 43.0393 89.0471 42.764 89.1412 42.4907C89.2354 42.2133 89.3766 41.9627 89.5649 41.7391C89.7571 41.5155 89.9945 41.3375 90.2769 41.205C90.5594 41.0683 90.8909 41 91.2714 41C91.648 41 91.9776 41.0683 92.26 41.205C92.5425 41.3375 92.7778 41.5155 92.9661 41.7391C93.1584 41.9627 93.3016 42.2133 93.3957 42.4907C93.4899 42.764 93.5369 43.0393 93.5369 43.3168V43.4534C93.5369 43.706 93.4899 43.9689 93.3957 44.2422C93.3055 44.5114 93.1662 44.764 92.9779 45C92.7935 45.2319 92.5582 45.4203 92.2718 45.5652C91.9893 45.7101 91.6559 45.7826 91.2714 45.7826ZM91.2714 44.9627C91.4911 44.9627 91.6873 44.9213 91.8599 44.8385C92.0364 44.7557 92.1855 44.6418 92.3071 44.4969C92.4326 44.3478 92.5268 44.1801 92.5895 43.9938C92.6562 43.8033 92.6896 43.6025 92.6896 43.3913C92.6896 43.1636 92.6562 42.9545 92.5895 42.764C92.5268 42.5735 92.4326 42.4079 92.3071 42.2671C92.1855 42.1263 92.0364 42.0166 91.8599 41.9379C91.6833 41.8592 91.4872 41.8199 91.2714 41.8199C91.0517 41.8199 90.8536 41.8592 90.6771 41.9379C90.5005 42.0166 90.3495 42.1263 90.224 42.2671C90.1024 42.4079 90.0082 42.5735 89.9415 42.764C89.8788 42.9545 89.8474 43.1636 89.8474 43.3913C89.8474 43.6025 89.8788 43.8033 89.9415 43.9938C90.0082 44.1801 90.1024 44.3478 90.224 44.4969C90.3495 44.6418 90.5005 44.7557 90.6771 44.8385C90.8536 44.9213 91.0517 44.9627 91.2714 44.9627Z" fill="#122F47"/>
                                                        <path d="M95.0654 45.6646V41.7826H95.901V45.6646H95.0654ZM93.8238 41.9068V41.1304H97.1427V41.9068H93.8238Z" fill="#122F47"/>
                                                        <path d="M98.6054 45.7702C98.166 45.7702 97.8208 45.6729 97.5697 45.4783C97.3226 45.2795 97.1931 45.0062 97.1813 44.6584H97.9169C97.9287 44.7743 97.9895 44.8799 98.0993 44.9752C98.2092 45.0704 98.3818 45.118 98.6171 45.118C98.8133 45.118 98.9683 45.0807 99.082 45.0062C99.1997 44.9317 99.2586 44.8302 99.2586 44.7019C99.2586 44.5901 99.2134 44.501 99.1232 44.4348C99.0369 44.3685 98.8878 44.3251 98.676 44.3043L98.3935 44.2733C98.0365 44.2319 97.7619 44.1242 97.5697 43.9503C97.3775 43.7764 97.2814 43.5445 97.2814 43.2547C97.2814 43.0228 97.3363 42.8282 97.4461 42.6708C97.556 42.5135 97.707 42.3954 97.8992 42.3168C98.0954 42.234 98.319 42.1925 98.5701 42.1925C98.9624 42.1925 99.2801 42.2836 99.5234 42.4658C99.7666 42.648 99.8941 42.9151 99.9058 43.2671H99.1703C99.1624 43.1511 99.1075 43.0518 99.0055 42.9689C98.9035 42.8861 98.7564 42.8447 98.5642 42.8447C98.3916 42.8447 98.2582 42.8799 98.164 42.9503C98.0699 43.0207 98.0228 43.1118 98.0228 43.2236C98.0228 43.3313 98.0601 43.4141 98.1346 43.472C98.2131 43.53 98.3386 43.5694 98.5112 43.5901L98.7937 43.6211C99.1703 43.6625 99.4645 43.7723 99.6764 43.9503C99.8921 44.1284 100 44.3685 100 44.6708C100 44.8944 99.9412 45.089 99.8235 45.2547C99.7097 45.4161 99.5489 45.5424 99.3409 45.6335C99.133 45.7246 98.8878 45.7702 98.6054 45.7702Z" fill="#122F47"/>
                                                    </g>
                                                </g>
                                                <g id="List">
                                                    <path d="M28 29.18V14.58H30.84V29.18H28ZM30.44 29.18V26.68H36.74V29.18H30.44Z" fill="#122F47"/>
                                                    <path d="M39.3547 29.18V18.32H42.1347V29.18H39.3547ZM37.8347 20.4V18.32H42.1347V20.4H37.8347ZM40.3747 17.02C39.828 17.02 39.4214 16.88 39.1547 16.6C38.9014 16.3067 38.7747 15.9467 38.7747 15.52C38.7747 15.0667 38.9014 14.7 39.1547 14.42C39.4214 14.14 39.828 14 40.3747 14C40.9214 14 41.3214 14.14 41.5747 14.42C41.828 14.7 41.9547 15.0667 41.9547 15.52C41.9547 15.9467 41.828 16.3067 41.5747 16.6C41.3214 16.88 40.9214 17.02 40.3747 17.02Z" fill="#122F47"/>
                                                    <path d="M49.2786 29.52C47.7853 29.52 46.6119 29.2067 45.7586 28.58C44.9186 27.94 44.4786 27.06 44.4386 25.94H46.9386C46.9786 26.3133 47.1853 26.6533 47.5586 26.96C47.9319 27.2667 48.5186 27.42 49.3186 27.42C49.9853 27.42 50.5119 27.3 50.8986 27.06C51.2986 26.82 51.4986 26.4933 51.4986 26.08C51.4986 25.72 51.3453 25.4333 51.0386 25.22C50.7453 25.0067 50.2386 24.8667 49.5186 24.8L48.5586 24.7C47.3453 24.5667 46.4119 24.22 45.7586 23.66C45.1053 23.1 44.7786 22.3533 44.7786 21.42C44.7786 20.6733 44.9653 20.0467 45.3386 19.54C45.7119 19.0333 46.2253 18.6533 46.8786 18.4C47.5453 18.1333 48.3053 18 49.1586 18C50.4919 18 51.5719 18.2933 52.3986 18.88C53.2253 19.4667 53.6586 20.3267 53.6986 21.46H51.1986C51.1719 21.0867 50.9853 20.7667 50.6386 20.5C50.2919 20.2333 49.7919 20.1 49.1386 20.1C48.5519 20.1 48.0986 20.2133 47.7786 20.44C47.4586 20.6667 47.2986 20.96 47.2986 21.32C47.2986 21.6667 47.4253 21.9333 47.6786 22.12C47.9453 22.3067 48.3719 22.4333 48.9586 22.5L49.9186 22.6C51.1986 22.7333 52.1986 23.0867 52.9186 23.66C53.6519 24.2333 54.0186 25.0067 54.0186 25.98C54.0186 26.7 53.8186 27.3267 53.4186 27.86C53.0319 28.38 52.4853 28.7867 51.7786 29.08C51.0719 29.3733 50.2386 29.52 49.2786 29.52Z" fill="#122F47"/>
                                                    <path d="M61.0352 29.32C60.0352 29.32 59.2085 29.1933 58.5552 28.94C57.9152 28.6733 57.4352 28.2333 57.1152 27.62C56.7952 26.9933 56.6352 26.1533 56.6352 25.1L56.6552 15.26H59.2552L59.2352 25.28C59.2352 25.8133 59.3752 26.2267 59.6552 26.52C59.9485 26.8 60.3618 26.94 60.8952 26.94H62.5952V29.32H61.0352ZM54.9152 20.36V18.32H62.5952V20.36H54.9152Z" fill="#122F47"/>
                                                </g>
                                            </g>
                                        </svg>