<svg width="118" height="145" viewBox="0 0 118 145" fill="none" class="bounce1">
    
                                        <g clip-path="url(#clip0_398_1157)">
                                            <mask id="path-6-inside-1_398_1157" fill="white">
                                                <path d="M114.45 15.2094C109.229 5.26347 100.616 0.384753 91.4778 0.000186975C70.4875 -0.0676777 56.6841 18.35 62.231 36.6396C63.2593 40.029 65.1545 43.2451 67.0873 46.25C73.2271 55.7925 79.5696 65.2068 85.8483 74.6589C87.9012 77.7467 90.761 77.7731 92.8927 74.7682C93.1103 74.4628 93.3092 74.1461 93.5157 73.8369C100.031 64.0154 106.613 54.2391 113.035 44.3573C119.141 34.9693 119.618 25.0498 114.45 15.2094ZM89.226 40.0479C82.4407 39.8971 77.0176 34.2794 77.1865 27.5909C77.3667 20.7064 83.0299 15.2547 89.7852 15.4696C96.3979 15.6769 101.783 21.3549 101.633 27.9642C101.483 34.7808 95.9213 40.1987 89.226 40.0479Z"/>
                                            </mask>
                                            <path d="M114.45 15.2094C109.229 5.26347 100.616 0.384753 91.4778 0.000186975C70.4875 -0.0676777 56.6841 18.35 62.231 36.6396C63.2593 40.029 65.1545 43.2451 67.0873 46.25C73.2271 55.7925 79.5696 65.2068 85.8483 74.6589C87.9012 77.7467 90.761 77.7731 92.8927 74.7682C93.1103 74.4628 93.3092 74.1461 93.5157 73.8369C100.031 64.0154 106.613 54.2391 113.035 44.3573C119.141 34.9693 119.618 25.0498 114.45 15.2094ZM89.226 40.0479C82.4407 39.8971 77.0176 34.2794 77.1865 27.5909C77.3667 20.7064 83.0299 15.2547 89.7852 15.4696C96.3979 15.6769 101.783 21.3549 101.633 27.9642C101.483 34.7808 95.9213 40.1987 89.226 40.0479Z" fill="#C0EDE3" stroke="black" stroke-width="2" mask="url(#path-6-inside-1_398_1157)"/>
                                            <path d="M103.5 56.5C122.3 25.7 106.333 7.33333 96.0001 2C100 2 109 6.5 115 18.5C119.8 28.1 115 39.5 112 44L103.5 57.5C95.6667 70 84.7001 87.3 103.5 56.5Z" fill="#FDFBF6"/>
                                            <mask id="path-8-inside-2_398_1157" fill="white">
                                                <path d="M114.45 15.2094C109.229 5.26347 100.616 0.384753 91.4779 0.000186975C70.4875 -0.0676777 56.6841 18.35 62.231 36.6396C63.2593 40.029 65.1546 43.2451 67.0873 46.25C73.2272 55.7925 79.5697 65.2068 85.8484 74.6589C87.9013 77.7467 90.761 77.7731 92.8927 74.7682C93.1104 74.4628 93.3093 74.1461 93.5157 73.8369C100.031 64.0154 106.614 54.2391 113.035 44.3573C119.141 34.9693 119.618 25.0498 114.45 15.2094ZM89.2261 40.0479C82.4407 39.8971 77.0177 34.2794 77.1866 27.5909C77.3667 20.7064 83.0299 15.2547 89.7853 15.4696C96.398 15.6769 101.783 21.3549 101.633 27.9642C101.483 34.7808 95.9214 40.1987 89.2261 40.0479Z"/>
                                            </mask>
                                            <path d="M114.45 15.2094C109.229 5.26347 100.616 0.384753 91.4779 0.000186975C70.4875 -0.0676777 56.6841 18.35 62.231 36.6396C63.2593 40.029 65.1546 43.2451 67.0873 46.25C73.2272 55.7925 79.5697 65.2068 85.8484 74.6589C87.9013 77.7467 90.761 77.7731 92.8927 74.7682C93.1104 74.4628 93.3093 74.1461 93.5157 73.8369C100.031 64.0154 106.614 54.2391 113.035 44.3573C119.141 34.9693 119.618 25.0498 114.45 15.2094ZM89.2261 40.0479C82.4407 39.8971 77.0177 34.2794 77.1866 27.5909C77.3667 20.7064 83.0299 15.2547 89.7853 15.4696C96.398 15.6769 101.783 21.3549 101.633 27.9642C101.483 34.7808 95.9214 40.1987 89.2261 40.0479Z" stroke="black" stroke-width="2" mask="url(#path-8-inside-2_398_1157)"/>
                                        </g>
    
                                    </svg>