<svg width="160" height="157" viewBox="0 0 160 157" fill="none">
                                            <circle cx="85" cy="82" r="75" fill="#72D0C6"/>
                                            <circle cx="75" cy="75" r="74.5" fill="#F9F3E5" stroke="#122F47"/>
                                            <path d="M23.34 84V65.02H27.032V84H23.34ZM26.512 84V80.75H34.702V84H26.512ZM44.0588 84.494C42.8108 84.494 41.7101 84.2947 40.7568 83.896C39.8034 83.4973 38.9974 82.96 38.3388 82.284C37.6801 81.5907 37.1774 80.8107 36.8308 79.944C36.5014 79.0773 36.3368 78.176 36.3368 77.24V76.694C36.3368 75.7233 36.5101 74.8047 36.8568 73.938C37.2208 73.054 37.7321 72.274 38.3908 71.598C39.0668 70.9047 39.8814 70.3673 40.8348 69.986C41.7881 69.5873 42.8628 69.388 44.0588 69.388C45.2548 69.388 46.3294 69.5873 47.2828 69.986C48.2361 70.3673 49.0421 70.9047 49.7008 71.598C50.3768 72.274 50.8881 73.054 51.2348 73.938C51.5814 74.8047 51.7548 75.7233 51.7548 76.694V77.24C51.7548 78.176 51.5814 79.0773 51.2348 79.944C50.9054 80.8107 50.4114 81.5907 49.7528 82.284C49.0941 82.96 48.2881 83.4973 47.3348 83.896C46.3814 84.2947 45.2894 84.494 44.0588 84.494ZM44.0588 81.4C44.9428 81.4 45.6881 81.2093 46.2948 80.828C46.9014 80.4293 47.3608 79.9007 47.6728 79.242C47.9848 78.566 48.1408 77.8033 48.1408 76.954C48.1408 76.0873 47.9761 75.3247 47.6468 74.666C47.3348 73.99 46.8668 73.4613 46.2428 73.08C45.6361 72.6813 44.9081 72.482 44.0588 72.482C43.2094 72.482 42.4728 72.6813 41.8488 73.08C41.2421 73.4613 40.7741 73.99 40.4448 74.666C40.1154 75.3247 39.9508 76.0873 39.9508 76.954C39.9508 77.8033 40.1068 78.566 40.4188 79.242C40.7481 79.9007 41.2161 80.4293 41.8228 80.828C42.4294 81.2093 43.1748 81.4 44.0588 81.4ZM60.4312 89.564C59.7552 89.564 59.0619 89.538 58.3512 89.486C57.6579 89.434 57.0079 89.3647 56.4012 89.278V86.262C57.0252 86.3313 57.6926 86.392 58.4032 86.444C59.1139 86.5133 59.7812 86.548 60.4052 86.548C61.5666 86.548 62.5026 86.4093 63.2132 86.132C63.9412 85.8547 64.4699 85.4127 64.7992 84.806C65.1459 84.2167 65.3192 83.4627 65.3192 82.544V79.762L66.0992 77.994C66.0472 79.294 65.7786 80.4033 65.2932 81.322C64.8079 82.2233 64.1492 82.9167 63.3172 83.402C62.4852 83.87 61.5232 84.104 60.4312 84.104C59.4606 84.104 58.5766 83.922 57.7792 83.558C56.9992 83.194 56.3232 82.6913 55.7512 82.05C55.1966 81.4087 54.7632 80.6547 54.4512 79.788C54.1392 78.9213 53.9832 77.994 53.9832 77.006V76.46C53.9832 75.472 54.1392 74.5533 54.4512 73.704C54.7806 72.8373 55.2399 72.0833 55.8292 71.442C56.4186 70.8007 57.1206 70.3067 57.9352 69.96C58.7499 69.6133 59.6512 69.44 60.6392 69.44C61.8006 69.44 62.8059 69.6913 63.6552 70.194C64.5219 70.6967 65.1979 71.4247 65.6832 72.378C66.1686 73.3313 66.4372 74.5013 66.4892 75.888L65.8652 75.992V69.882H68.7252V82.336C68.7252 84.052 68.4306 85.4387 67.8412 86.496C67.2519 87.5533 66.3419 88.3247 65.1112 88.81C63.8979 89.3127 62.3379 89.564 60.4312 89.564ZM61.4712 81.01C62.1646 81.01 62.7972 80.854 63.3692 80.542C63.9412 80.23 64.4006 79.7793 64.7472 79.19C65.0939 78.6007 65.2672 77.89 65.2672 77.058V76.148C65.2672 75.3507 65.0852 74.6747 64.7212 74.12C64.3746 73.5653 63.9152 73.1493 63.3432 72.872C62.7712 72.5773 62.1472 72.43 61.4712 72.43C60.7086 72.43 60.0326 72.612 59.4432 72.976C58.8712 73.3227 58.4206 73.8167 58.0912 74.458C57.7619 75.0993 57.5972 75.862 57.5972 76.746C57.5972 77.6127 57.7619 78.3667 58.0912 79.008C58.4206 79.6493 58.8712 80.1433 59.4432 80.49C60.0326 80.8367 60.7086 81.01 61.4712 81.01ZM73.3433 84V69.882H76.9573V84H73.3433ZM71.3673 72.586V69.882H76.9573V72.586H71.3673ZM74.6693 68.192C73.9586 68.192 73.4299 68.01 73.0833 67.646C72.7539 67.2647 72.5893 66.7967 72.5893 66.242C72.5893 65.6527 72.7539 65.176 73.0833 64.812C73.4299 64.448 73.9586 64.266 74.6693 64.266C75.3799 64.266 75.8999 64.448 76.2293 64.812C76.5586 65.176 76.7233 65.6527 76.7233 66.242C76.7233 66.7967 76.5586 67.2647 76.2293 67.646C75.8999 68.01 75.3799 68.192 74.6693 68.192ZM86.2444 84.442C84.303 84.442 82.7777 84.0347 81.6684 83.22C80.5764 82.388 80.0044 81.244 79.9524 79.788H83.2024C83.2544 80.2733 83.523 80.7153 84.0084 81.114C84.4937 81.5127 85.2564 81.712 86.2964 81.712C87.163 81.712 87.8477 81.556 88.3504 81.244C88.8704 80.932 89.1304 80.5073 89.1304 79.97C89.1304 79.502 88.931 79.1293 88.5324 78.852C88.151 78.5747 87.4924 78.3927 86.5564 78.306L85.3084 78.176C83.731 78.0027 82.5177 77.552 81.6684 76.824C80.819 76.096 80.3944 75.1253 80.3944 73.912C80.3944 72.9413 80.637 72.1267 81.1224 71.468C81.6077 70.8093 82.275 70.3153 83.1244 69.986C83.991 69.6393 84.979 69.466 86.0884 69.466C87.8217 69.466 89.2257 69.8473 90.3004 70.61C91.375 71.3727 91.9384 72.4907 91.9904 73.964H88.7404C88.7057 73.4787 88.463 73.0627 88.0124 72.716C87.5617 72.3693 86.9117 72.196 86.0624 72.196C85.2997 72.196 84.7104 72.3433 84.2944 72.638C83.8784 72.9327 83.6704 73.314 83.6704 73.782C83.6704 74.2327 83.835 74.5793 84.1644 74.822C84.511 75.0647 85.0657 75.2293 85.8284 75.316L87.0764 75.446C88.7404 75.6193 90.0404 76.0787 90.9764 76.824C91.9297 77.5693 92.4064 78.5747 92.4064 79.84C92.4064 80.776 92.1464 81.5907 91.6264 82.284C91.1237 82.96 90.413 83.4887 89.4944 83.87C88.5757 84.2513 87.4924 84.442 86.2444 84.442ZM101.528 84.182C100.228 84.182 99.1532 84.0173 98.3039 83.688C97.4719 83.3413 96.8479 82.7693 96.4319 81.972C96.0159 81.1573 95.8079 80.0653 95.8079 78.696L95.8339 65.904H99.2139L99.1879 78.93C99.1879 79.6233 99.3699 80.1607 99.7339 80.542C100.115 80.906 100.653 81.088 101.346 81.088H103.556V84.182H101.528ZM93.5719 72.534V69.882H103.556V72.534H93.5719ZM107.265 84V69.882H110.879V84H107.265ZM105.289 72.586V69.882H110.879V72.586H105.289ZM108.591 68.192C107.88 68.192 107.352 68.01 107.005 67.646C106.676 67.2647 106.511 66.7967 106.511 66.242C106.511 65.6527 106.676 65.176 107.005 64.812C107.352 64.448 107.88 64.266 108.591 64.266C109.302 64.266 109.822 64.448 110.151 64.812C110.48 65.176 110.645 65.6527 110.645 66.242C110.645 66.7967 110.48 67.2647 110.151 67.646C109.822 68.01 109.302 68.192 108.591 68.192ZM121.31 84.494C120.08 84.494 119.014 84.286 118.112 83.87C117.228 83.454 116.483 82.8993 115.876 82.206C115.287 81.5127 114.845 80.7327 114.55 79.866C114.256 78.9993 114.108 78.1153 114.108 77.214V76.72C114.108 75.7667 114.256 74.8567 114.55 73.99C114.862 73.106 115.322 72.326 115.928 71.65C116.535 70.9567 117.28 70.4107 118.164 70.012C119.066 69.596 120.106 69.388 121.284 69.388C122.515 69.388 123.616 69.6307 124.586 70.116C125.557 70.584 126.328 71.2427 126.9 72.092C127.49 72.9413 127.819 73.9293 127.888 75.056H124.378C124.292 74.328 123.98 73.7213 123.442 73.236C122.922 72.7507 122.203 72.508 121.284 72.508C120.487 72.508 119.82 72.6987 119.282 73.08C118.762 73.4613 118.372 73.99 118.112 74.666C117.852 75.3247 117.722 76.0873 117.722 76.954C117.722 77.786 117.844 78.54 118.086 79.216C118.346 79.892 118.736 80.4207 119.256 80.802C119.794 81.1833 120.478 81.374 121.31 81.374C121.934 81.374 122.472 81.2613 122.922 81.036C123.373 80.8107 123.728 80.4987 123.988 80.1C124.266 79.7013 124.439 79.2507 124.508 78.748H128.018C127.949 79.892 127.611 80.8973 127.004 81.764C126.415 82.6133 125.626 83.2807 124.638 83.766C123.668 84.2513 122.558 84.494 121.31 84.494Z" fill="#122F47"/>
                                        </svg>