<svg width="160" height="157" viewBox="0 0 160 157" fill="none">
                                            <circle cx="85" cy="82" r="75" fill="#72D0C6"/>
                                            <circle cx="75" cy="75" r="74.5" fill="#F9F3E5" stroke="#122F47"/>
                                            <path d="M12.34 84V65.02H17.384L22.142 76.356H22.61L27.342 65.02H32.464V84H28.798V67.802L29.266 67.854L24.144 80.126H20.374L15.226 67.854L15.72 67.802V84H12.34ZM45.4146 84V79.814H44.8166V75.16C44.8166 74.3453 44.6173 73.7387 44.2186 73.34C43.82 72.9413 43.2046 72.742 42.3726 72.742C41.9393 72.742 41.4193 72.7507 40.8126 72.768C40.206 72.7853 39.5906 72.8113 38.9666 72.846C38.36 72.8633 37.814 72.8893 37.3286 72.924V69.856C37.7273 69.8213 38.178 69.7867 38.6806 69.752C39.1833 69.7173 39.6946 69.7 40.2146 69.7C40.752 69.6827 41.2546 69.674 41.7226 69.674C43.1786 69.674 44.3833 69.8647 45.3366 70.246C46.3073 70.6273 47.0353 71.2253 47.5206 72.04C48.0233 72.8547 48.2746 73.9207 48.2746 75.238V84H45.4146ZM40.8646 84.364C39.842 84.364 38.9406 84.182 38.1606 83.818C37.398 83.454 36.8 82.934 36.3666 82.258C35.9506 81.582 35.7426 80.7673 35.7426 79.814C35.7426 78.774 35.994 77.9247 36.4966 77.266C37.0166 76.6073 37.736 76.1133 38.6546 75.784C39.5906 75.4547 40.6826 75.29 41.9306 75.29H45.2066V77.448H41.8786C41.0466 77.448 40.4053 77.656 39.9546 78.072C39.5213 78.4707 39.3046 78.9907 39.3046 79.632C39.3046 80.2733 39.5213 80.7933 39.9546 81.192C40.4053 81.5907 41.0466 81.79 41.8786 81.79C42.3813 81.79 42.8406 81.7033 43.2566 81.53C43.69 81.3393 44.0453 81.0273 44.3226 80.594C44.6173 80.1433 44.782 79.5367 44.8166 78.774L45.7006 79.788C45.614 80.776 45.3713 81.608 44.9726 82.284C44.5913 82.96 44.054 83.48 43.3606 83.844C42.6846 84.1907 41.8526 84.364 40.8646 84.364ZM58.2818 84.182C56.9818 84.182 55.9071 84.0173 55.0578 83.688C54.2258 83.3413 53.6018 82.7693 53.1858 81.972C52.7698 81.1573 52.5618 80.0653 52.5618 78.696L52.5878 65.904H55.9678L55.9418 78.93C55.9418 79.6233 56.1238 80.1607 56.4878 80.542C56.8691 80.906 57.4065 81.088 58.0998 81.088H60.3098V84.182H58.2818ZM50.3258 72.534V69.882H60.3098V72.534H50.3258ZM69.5849 84.494C68.3716 84.494 67.3056 84.286 66.3869 83.87C65.4856 83.454 64.7316 82.8993 64.1249 82.206C63.5356 81.4953 63.0849 80.7067 62.7729 79.84C62.4782 78.9733 62.3309 78.0893 62.3309 77.188V76.694C62.3309 75.758 62.4782 74.8567 62.7729 73.99C63.0849 73.106 63.5356 72.326 64.1249 71.65C64.7316 70.9567 65.4769 70.4107 66.3609 70.012C67.2449 69.596 68.2676 69.388 69.4289 69.388C70.9542 69.388 72.2282 69.726 73.2509 70.402C74.2909 71.0607 75.0709 71.936 75.5909 73.028C76.1109 74.1027 76.3709 75.264 76.3709 76.512V77.812H63.8649V75.602H74.1089L72.9909 76.694C72.9909 75.7927 72.8609 75.0213 72.6009 74.38C72.3409 73.7387 71.9422 73.2447 71.4049 72.898C70.8849 72.5513 70.2262 72.378 69.4289 72.378C68.6316 72.378 67.9556 72.56 67.4009 72.924C66.8462 73.288 66.4216 73.8167 66.1269 74.51C65.8496 75.186 65.7109 76.0007 65.7109 76.954C65.7109 77.838 65.8496 78.6267 66.1269 79.32C66.4042 79.996 66.8289 80.5333 67.4009 80.932C67.9729 81.3133 68.7009 81.504 69.5849 81.504C70.4689 81.504 71.1882 81.3307 71.7429 80.984C72.2976 80.62 72.6529 80.178 72.8089 79.658H76.1369C75.9289 80.6287 75.5302 81.478 74.9409 82.206C74.3516 82.934 73.5976 83.4973 72.6789 83.896C71.7776 84.2947 70.7462 84.494 69.5849 84.494ZM79.3899 84V69.882H82.2499V75.862H82.1719C82.1719 73.834 82.6053 72.3 83.4719 71.26C84.3386 70.22 85.6126 69.7 87.2939 69.7H87.8139V72.846H86.8259C85.6126 72.846 84.6679 73.1753 83.9919 73.834C83.3333 74.4753 83.0039 75.4113 83.0039 76.642V84H79.3899ZM90.9077 84V69.882H94.5217V84H90.9077ZM88.9317 72.586V69.882H94.5217V72.586H88.9317ZM92.2337 68.192C91.5231 68.192 90.9944 68.01 90.6477 67.646C90.3184 67.2647 90.1537 66.7967 90.1537 66.242C90.1537 65.6527 90.3184 65.176 90.6477 64.812C90.9944 64.448 91.5231 64.266 92.2337 64.266C92.9444 64.266 93.4644 64.448 93.7937 64.812C94.1231 65.176 94.2877 65.6527 94.2877 66.242C94.2877 66.7967 94.1231 67.2647 93.7937 67.646C93.4644 68.01 92.9444 68.192 92.2337 68.192ZM107.241 84V79.814H106.643V75.16C106.643 74.3453 106.443 73.7387 106.045 73.34C105.646 72.9413 105.031 72.742 104.199 72.742C103.765 72.742 103.245 72.7507 102.639 72.768C102.032 72.7853 101.417 72.8113 100.793 72.846C100.186 72.8633 99.6401 72.8893 99.1548 72.924V69.856C99.5535 69.8213 100.004 69.7867 100.507 69.752C101.009 69.7173 101.521 69.7 102.041 69.7C102.578 69.6827 103.081 69.674 103.549 69.674C105.005 69.674 106.209 69.8647 107.163 70.246C108.133 70.6273 108.861 71.2253 109.347 72.04C109.849 72.8547 110.101 73.9207 110.101 75.238V84H107.241ZM102.691 84.364C101.668 84.364 100.767 84.182 99.9868 83.818C99.2241 83.454 98.6261 82.934 98.1928 82.258C97.7768 81.582 97.5688 80.7673 97.5688 79.814C97.5688 78.774 97.8201 77.9247 98.3228 77.266C98.8428 76.6073 99.5621 76.1133 100.481 75.784C101.417 75.4547 102.509 75.29 103.757 75.29H107.033V77.448H103.705C102.873 77.448 102.231 77.656 101.781 78.072C101.347 78.4707 101.131 78.9907 101.131 79.632C101.131 80.2733 101.347 80.7933 101.781 81.192C102.231 81.5907 102.873 81.79 103.705 81.79C104.207 81.79 104.667 81.7033 105.083 81.53C105.516 81.3393 105.871 81.0273 106.149 80.594C106.443 80.1433 106.608 79.5367 106.643 78.774L107.527 79.788C107.44 80.776 107.197 81.608 106.799 82.284C106.417 82.96 105.88 83.48 105.187 83.844C104.511 84.1907 103.679 84.364 102.691 84.364ZM114.154 84V65.02H117.768V84H114.154ZM112.386 67.724V65.02H117.768V67.724H112.386ZM127.016 84.442C125.075 84.442 123.549 84.0347 122.44 83.22C121.348 82.388 120.776 81.244 120.724 79.788H123.974C124.026 80.2733 124.295 80.7153 124.78 81.114C125.265 81.5127 126.028 81.712 127.068 81.712C127.935 81.712 128.619 81.556 129.122 81.244C129.642 80.932 129.902 80.5073 129.902 79.97C129.902 79.502 129.703 79.1293 129.304 78.852C128.923 78.5747 128.264 78.3927 127.328 78.306L126.08 78.176C124.503 78.0027 123.289 77.552 122.44 76.824C121.591 76.096 121.166 75.1253 121.166 73.912C121.166 72.9413 121.409 72.1267 121.894 71.468C122.379 70.8093 123.047 70.3153 123.896 69.986C124.763 69.6393 125.751 69.466 126.86 69.466C128.593 69.466 129.997 69.8473 131.072 70.61C132.147 71.3727 132.71 72.4907 132.762 73.964H129.512C129.477 73.4787 129.235 73.0627 128.784 72.716C128.333 72.3693 127.683 72.196 126.834 72.196C126.071 72.196 125.482 72.3433 125.066 72.638C124.65 72.9327 124.442 73.314 124.442 73.782C124.442 74.2327 124.607 74.5793 124.936 74.822C125.283 75.0647 125.837 75.2293 126.6 75.316L127.848 75.446C129.512 75.6193 130.812 76.0787 131.748 76.824C132.701 77.5693 133.178 78.5747 133.178 79.84C133.178 80.776 132.918 81.5907 132.398 82.284C131.895 82.96 131.185 83.4887 130.266 83.87C129.347 84.2513 128.264 84.442 127.016 84.442Z" fill="#122F47"/>
                                        </svg>