<svg width="175" height="161" viewBox="0 0 175 161" fill="none" style="opacity: 1;">
    
    
    
                                            <path d="M153.515 103.525L153.635 103.759L153.896 103.792L168.775 105.685L158.228 116.409L158.045 116.596L158.094 116.853L160.901 131.663L147.504 124.895L147.268 124.776L147.037 124.904L133.897 132.163L136.161 117.257L136.2 116.998L136.01 116.819L125.077 106.495L139.877 104.052L140.136 104.009L140.248 103.771L146.635 90.1345L153.515 103.525Z" fill="#FDFBF6" stroke="#122F47"/>
                                            <path d="M154.946 42.7148L155.067 42.9491L155.328 42.9823L173.096 45.2442L160.502 58.0488L160.319 58.2353L160.367 58.4924L163.718 76.1787L147.721 68.0959L147.485 67.9768L147.254 68.1046L131.562 76.7732L134.264 58.9754L134.303 58.7167L134.113 58.5369L121.059 46.2067L138.732 43.2902L138.992 43.2473L139.103 43.0089L146.73 26.7243L154.946 42.7148Z" fill="#FFA451" stroke="#122F47"/>
                                            <path d="M127.443 11.1498L127.563 11.3841L127.825 11.4173L138.955 12.8344L131.065 20.8564L130.882 21.043L130.93 21.3001L133.029 32.3798L123.01 27.3177L122.774 27.1985L122.543 27.3263L112.714 32.7548L114.407 21.6072L114.447 21.3483L114.256 21.1686L106.077 13.4429L117.147 11.6155L117.407 11.5726L117.519 11.3343L122.297 1.13438L127.443 11.1498Z" fill="#FFA451" stroke="#122F47"/>
                                            <path d="M119.443 138.15L119.563 138.384L119.825 138.417L130.955 139.834L123.065 147.856L122.882 148.043L122.93 148.3L125.029 159.38L115.01 154.318L114.774 154.199L114.543 154.326L104.714 159.755L106.407 148.607L106.447 148.348L106.256 148.169L98.0766 140.443L109.147 138.615L109.407 138.573L109.519 138.334L114.297 128.134L119.443 138.15Z" fill="#FDFBF6" stroke="#122F47"/>
                                        </svg>