<svg width="236" height="235" viewBox="0 0 236 235" fill="none">
                                                    <path fill-rule="evenodd" clip-rule="evenodd" d="M111.273 13.7229C105.606 25.3036 104.93 26.4704 103.75 26.7203C102.249 27.0381 77.1119 30.638 76.395 30.638C76.1314 30.638 80.6424 35.2163 86.4188 40.812L96.9217 50.9865L94.5106 65.0349C93.185 72.7617 92.1669 79.1498 92.249 79.2315C92.3306 79.3131 98.1213 76.3962 105.117 72.7499L117.836 66.1201L130.54 72.7376C137.527 76.3771 143.306 79.2939 143.381 79.2191C143.456 79.1444 142.432 72.7613 141.106 65.034L138.696 50.9847L149.209 40.8115C154.992 35.2159 159.47 30.638 159.159 30.638C158.584 30.638 134.865 27.226 132.105 26.7463C130.626 26.4891 130.435 26.169 124.353 13.7411C120.924 6.73381 117.979 1 117.809 1C117.639 1 114.698 6.72514 111.273 13.7229ZM37.1 60.1008C32.8293 68.8522 30.6745 72.7946 30.0337 73.0266C29.5271 73.2104 22.635 74.2468 14.7178 75.3297C1.3648 77.1568 0.387993 77.3515 1.21537 78.0209C5.47875 81.4716 22.4658 97.4574 22.4658 98.0187C22.4658 98.415 21.4239 104.779 20.151 112.162C18.8776 119.545 17.9017 125.651 17.9824 125.732C18.0631 125.812 23.8552 122.896 30.8542 119.253L43.5788 112.629L56.2827 119.246C63.2698 122.886 69.0481 125.803 69.1233 125.728C69.1985 125.653 68.1749 119.271 66.8493 111.544L64.4382 97.4953L74.941 87.3208C80.7175 81.7252 85.1455 77.1418 84.7806 77.1358C83.499 77.1149 56.8736 73.1151 56.5041 72.8876C56.2983 72.7613 53.3688 66.9992 49.9942 60.0835C46.6192 53.1674 43.7199 47.5088 43.5513 47.5088C43.3826 47.5088 40.4792 53.1751 37.1 60.1008ZM185.539 60.2303C179.863 71.8361 179.203 72.976 178.014 73.2277C176.523 73.5432 151.375 77.1468 150.664 77.1468C150.407 77.1468 154.918 81.7256 160.688 87.3222L171.179 97.4976L168.768 111.545C167.442 119.271 166.422 125.656 166.501 125.735C166.58 125.813 172.37 122.896 179.369 119.253L192.094 112.629L204.798 119.246C211.785 122.886 217.565 125.801 217.641 125.725C217.718 125.648 216.74 119.545 215.466 112.162C214.193 104.779 213.151 98.4141 213.151 98.0169C213.151 97.6202 218.087 92.8157 224.12 87.3409C230.153 81.8656 235.049 77.3465 235 77.2972C234.951 77.2485 228.725 76.3693 221.166 75.343C213.607 74.317 206.833 73.359 206.113 73.2136C204.913 72.9715 204.284 71.8876 198.584 60.229C195.164 53.233 192.229 47.5088 192.063 47.5088C191.897 47.5088 188.961 53.2335 185.539 60.2303ZM110.708 97.5108C99.9071 99.8125 90.0973 107.946 85.988 118.007C82.6629 126.147 82.6817 135.991 86.0375 143.922C90.3705 154.162 100.263 162.368 110.635 164.326C113.726 164.909 114.288 165.605 111.667 165.605C110.839 165.605 108.628 165.995 106.752 166.472C88.9138 171.011 75.8541 183.871 71.0411 201.638C70.0836 205.173 69.9772 206.715 69.793 219.751L69.5913 234H117.809H166.026L165.826 219.751C165.65 207.163 165.516 205.102 164.681 202.068C160.452 186.708 150.654 175.054 137.061 169.216C132.827 167.398 126.311 165.605 123.937 165.605C121.593 165.605 121.721 164.839 124.12 164.512C130.002 163.711 137.175 159.893 142.067 154.962C148.379 148.598 151.435 141.789 152.028 132.766C153.3 113.402 137.152 96.5861 117.484 96.7908C115.52 96.8109 112.47 97.1351 110.708 97.5108ZM42.2687 138.713C37.2513 140.02 33.6989 142.089 29.7843 145.983C25.8138 149.932 23.7791 153.43 22.4544 158.581C21.3052 163.051 21.3052 167.246 22.4544 171.716C23.7791 176.867 25.8138 180.365 29.7843 184.315C33.7103 188.22 37.2751 190.291 42.2687 191.569C45.8189 192.477 45.7863 192.554 41.4885 193.419C35.1941 194.685 29.2512 198.093 24.2833 203.284C17.4232 210.452 14.6734 217.735 14.6734 228.737V234H35.3004H55.9275L55.9302 221.803C55.933 209.041 56.401 204.016 58.1694 197.766C58.3888 196.99 58.5738 196.251 58.7028 195.653C58.9265 195.153 59.2084 194.226 59.5244 193.188C59.971 191.72 60.4855 190.029 61 189L60.9203 189.006L61.9327 186.897C64.3222 181.918 68.3638 176.047 72.6606 171.315C76.5334 167.049 76.5545 167.013 76.5545 164.565C76.5545 161.237 75.0657 155.671 73.2579 152.238C71.3098 148.54 65.7487 143.008 62.0303 141.07C55.9655 137.909 48.6846 137.041 42.2687 138.713ZM179.782 138.713C177.942 139.192 175.158 140.251 173.594 141.066C169.868 143.008 164.309 148.536 162.359 152.238C160.552 155.671 159.063 161.237 159.063 164.565C159.063 167.013 159.084 167.049 162.957 171.315C167.254 176.047 171.295 181.918 173.685 186.897L174.76 189.138C175.18 190.255 175.685 191.953 176.155 193.53C176.559 194.889 176.937 196.158 177.21 196.889C177.284 197.172 177.363 197.466 177.448 197.766C179.216 204.016 179.684 209.041 179.687 221.803L179.69 234H200.317H220.944V228.737C220.944 220.179 219.29 214.191 215.218 208.01C210.372 200.653 202.306 195.073 194.129 193.421C189.831 192.552 189.799 192.477 193.349 191.569C198.342 190.291 201.907 188.22 205.833 184.315C209.803 180.365 211.838 176.867 213.163 171.716C214.817 165.283 213.958 158.288 210.772 152.238C208.823 148.54 203.262 143.008 199.544 141.07C193.479 137.909 186.198 137.041 179.782 138.713Z" class="color_72D0C6" style="stroke-dashoffset: 650px; fill: rgba(255, 255, 255, 0);"/>
                                                    <path d="M196.885 78.7105L192.5 48.5L205 73L235 77L213 98L218 126.5L204.325 96.7075C204.134 96.2915 204.25 95.7988 204.606 95.5116L220.044 83.0753C220.749 82.5081 220.398 81.3719 219.497 81.2997L197.795 79.5636C197.33 79.5264 196.952 79.1723 196.885 78.7105Z" class="color_FDFBF6" style="stroke-dashoffset: 650px;"/>
                                                    <path d="M123 164.5C161.4 135.7 139 107.5 123 97C145 101.8 151.167 118.667 151.5 126.5C154.3 152.9 133.667 162.833 123 164.5Z" class="color_C0EDE3" style="stroke-dashoffset: 650px; fill: rgba(255, 255, 255, 0);"/>
                                                    <path d="M122.385 32.2105L118 2L130.5 26.5L160.5 30.5L138.5 51.5L143.5 80L129.825 50.2075C129.634 49.7915 129.75 49.2988 130.106 49.0116L145.544 36.5753C146.249 36.0081 145.898 34.8719 144.997 34.7997L123.295 33.0636C122.83 33.0264 122.452 32.6723 122.385 32.2105Z" class="color_FDFBF6" style="stroke-dashoffset: 650px;"/>
                                                    <path d="M48.3269 79.3212L43.7402 49.1406L56.4033 73.5568L86.4293 77.3567L64.5697 98.5029L69.7596 126.969L55.8861 97.2683C55.6923 96.8535 55.805 96.3601 56.1596 96.0705L71.5145 83.5316C72.2149 82.9597 71.8569 81.8258 70.9551 81.7597L49.2425 80.1683C48.777 80.1341 48.397 79.7826 48.3269 79.3212Z" class="color_FDFBF6" style="stroke-dashoffset: 650px;"/>
                                                    <path d="M103.75 26.7203L103.646 26.2311L103.646 26.2311L103.75 26.7203ZM111.273 13.7229L111.722 13.9427V13.9427L111.273 13.7229ZM86.4189 40.812L86.7667 40.4529L86.7667 40.4529L86.4189 40.812ZM96.9217 50.9865L97.4145 51.0711L97.4591 50.811L97.2696 50.6274L96.9217 50.9865ZM94.5106 65.0349L94.0178 64.9503L94.0178 64.9503L94.5106 65.0349ZM92.249 79.2315L92.6026 78.878L92.6016 78.877L92.249 79.2315ZM105.117 72.7499L104.885 72.3065H104.885L105.117 72.7499ZM117.836 66.1201L118.067 65.6766L117.836 65.5563L117.605 65.6767L117.836 66.1201ZM130.54 72.7376L130.309 73.181L130.309 73.181L130.54 72.7376ZM143.381 79.2191L143.733 79.5737L143.733 79.5736L143.381 79.2191ZM141.106 65.034L140.613 65.1185V65.1185L141.106 65.034ZM138.696 50.9847L138.348 50.6253L138.158 50.8089L138.203 51.0692L138.696 50.9847ZM149.209 40.8115L149.557 41.1709V41.1709L149.209 40.8115ZM132.105 26.7463L132.191 26.2537L132.105 26.7463ZM124.353 13.7411L124.802 13.5214L124.802 13.5213L124.353 13.7411ZM30.0337 73.0266L29.8634 72.5565L29.8631 72.5566L30.0337 73.0266ZM37.1 60.1008L37.5494 60.3201L37.5494 60.3201L37.1 60.1008ZM14.7178 75.3297L14.6501 74.8344H14.6501L14.7178 75.3297ZM1.21537 78.0209L1.52994 77.6322L1.52985 77.6321L1.21537 78.0209ZM20.151 112.162L20.6437 112.247L20.6437 112.247L20.151 112.162ZM30.8542 119.253L31.085 119.697L31.085 119.697L30.8542 119.253ZM43.5788 112.629L43.8097 112.185L43.5788 112.065L43.3479 112.185L43.5788 112.629ZM56.2827 119.246L56.0517 119.69L56.2827 119.246ZM66.8493 111.544L67.3421 111.459L67.3421 111.459L66.8493 111.544ZM64.4382 97.4953L64.0903 97.1362L63.9008 97.3198L63.9454 97.5799L64.4382 97.4953ZM74.941 87.3208L74.5932 86.9617L74.5931 86.9617L74.941 87.3208ZM84.7806 77.1358L84.7724 77.6358H84.7725L84.7806 77.1358ZM56.5041 72.8876L56.7663 72.4618L56.7656 72.4614L56.5041 72.8876ZM49.9942 60.0835L50.4436 59.8642L50.4436 59.8642L49.9942 60.0835ZM178.014 73.2277L178.118 73.7169L178.014 73.2277ZM185.539 60.2303L185.988 60.45L185.988 60.45L185.539 60.2303ZM160.688 87.3222L160.34 87.6811L160.34 87.6811L160.688 87.3222ZM171.179 97.4976L171.671 97.5821L171.716 97.3222L171.527 97.1387L171.179 97.4976ZM168.768 111.545L169.261 111.63V111.63L168.768 111.545ZM179.369 119.253L179.6 119.697L179.6 119.697L179.369 119.253ZM192.094 112.629L192.325 112.185L192.094 112.065L191.863 112.185L192.094 112.629ZM204.798 119.246L204.567 119.69L204.798 119.246ZM217.641 125.725L217.289 125.37L217.288 125.371L217.641 125.725ZM215.466 112.162L214.974 112.247V112.247L215.466 112.162ZM224.12 87.3409L224.456 87.7111L224.456 87.7111L224.12 87.3409ZM235 77.2972L235.354 76.9444L235.352 76.9427L235 77.2972ZM221.166 75.343L221.233 74.8475L221.233 74.8475L221.166 75.343ZM206.113 73.2136L206.212 72.7235L206.211 72.7234L206.113 73.2136ZM198.584 60.229L199.033 60.0094V60.0093L198.584 60.229ZM85.988 118.007L86.4508 118.196L86.4509 118.196L85.988 118.007ZM110.708 97.5108L110.812 97.9998L110.812 97.9998L110.708 97.5108ZM86.0375 143.922L86.498 143.727L86.0375 143.922ZM110.635 164.326L110.542 164.817H110.542L110.635 164.326ZM106.752 166.472L106.875 166.957H106.875L106.752 166.472ZM71.0412 201.638L70.5585 201.507L70.5585 201.507L71.0412 201.638ZM69.793 219.751L70.2929 219.758V219.758L69.793 219.751ZM69.5913 234L69.0913 233.993L69.0842 234.5H69.5913V234ZM166.026 234V234.5H166.533L166.526 233.993L166.026 234ZM165.826 219.751L165.326 219.758V219.758L165.826 219.751ZM164.681 202.068L164.199 202.201L164.199 202.201L164.681 202.068ZM137.061 169.216L136.863 169.675H136.863L137.061 169.216ZM124.12 164.512L124.053 164.017H124.053L124.12 164.512ZM142.067 154.962L141.712 154.61L141.712 154.61L142.067 154.962ZM152.028 132.766L151.529 132.733L152.028 132.766ZM117.484 96.7908L117.489 97.2908L117.489 97.2908L117.484 96.7908ZM29.7843 145.983L29.4317 145.628L29.4317 145.628L29.7843 145.983ZM42.2687 138.713L42.1426 138.229H42.1426L42.2687 138.713ZM22.4544 158.581L21.9701 158.456L21.9701 158.456L22.4544 158.581ZM22.4544 171.716L21.9701 171.841L21.9701 171.841L22.4544 171.716ZM29.7843 184.315L29.4317 184.669L29.4317 184.669L29.7843 184.315ZM42.2687 191.569L42.1448 192.053H42.1448L42.2687 191.569ZM41.4885 193.419L41.5872 193.909H41.5872L41.4885 193.419ZM24.2833 203.284L23.9221 202.938L23.922 202.938L24.2833 203.284ZM14.6734 234H14.1734V234.5H14.6734V234ZM55.9275 234V234.5H56.4274L56.4275 234L55.9275 234ZM55.9302 221.803L56.4302 221.803L55.9302 221.803ZM58.1694 197.766L58.6505 197.902L58.6505 197.902L58.1694 197.766ZM58.7028 195.653L58.2463 195.449L58.2251 195.497L58.2141 195.548L58.7028 195.653ZM59.5244 193.188L59.0461 193.042L59.5244 193.188ZM61 189L61.4472 189.224L61.8421 188.434L60.9616 188.501L61 189ZM60.9203 189.006L60.4696 188.79L60.0946 189.571L60.9587 189.505L60.9203 189.006ZM61.9327 186.897L61.4819 186.68H61.4819L61.9327 186.897ZM72.6606 171.315L73.0308 171.651H73.0308L72.6606 171.315ZM73.2579 152.238L73.7003 152.005L73.2579 152.238ZM62.0303 141.07L61.7993 141.513L61.7993 141.513L62.0303 141.07ZM173.594 141.066L173.363 140.622L173.363 140.622L173.594 141.066ZM179.782 138.713L179.656 138.229L179.656 138.229L179.782 138.713ZM162.359 152.238L162.802 152.471V152.471L162.359 152.238ZM162.957 171.315L162.586 171.651L162.957 171.315ZM173.685 186.897L174.135 186.68V186.68L173.685 186.897ZM174.76 189.138L175.228 188.962L175.221 188.941L175.211 188.922L174.76 189.138ZM176.155 193.53L176.634 193.388L176.155 193.53ZM177.21 196.889L177.694 196.764L177.688 196.739L177.679 196.714L177.21 196.889ZM177.448 197.766L176.967 197.902V197.902L177.448 197.766ZM179.687 221.803L179.187 221.803L179.687 221.803ZM179.69 234L179.19 234L179.19 234.5H179.69V234ZM220.944 234V234.5H221.444V234H220.944ZM215.218 208.01L214.801 208.285L214.801 208.285L215.218 208.01ZM194.129 193.421L194.228 192.931H194.228L194.129 193.421ZM193.349 191.569L193.225 191.085H193.225L193.349 191.569ZM205.833 184.315L206.186 184.669L206.186 184.669L205.833 184.315ZM213.163 171.716L213.647 171.841V171.841L213.163 171.716ZM210.772 152.238L210.329 152.471V152.471L210.772 152.238ZM199.544 141.07L199.313 141.513V141.513L199.544 141.07ZM103.853 27.2094C104.245 27.1265 104.597 26.958 104.984 26.5619C105.348 26.1895 105.746 25.6128 106.262 24.7211C107.297 22.9317 108.892 19.7254 111.722 13.9427L110.824 13.5031C107.987 19.3011 106.41 22.4685 105.396 24.2202C104.887 25.099 104.541 25.5846 104.269 25.8632C104.02 26.1181 103.845 26.1891 103.646 26.2311L103.853 27.2094ZM76.395 31.138C76.4771 31.138 76.655 31.1185 76.8625 31.094C77.0894 31.0672 77.3993 31.0281 77.7794 30.9785C78.5401 30.8792 79.5881 30.7371 80.8289 30.5658C83.3109 30.2232 86.5679 29.7632 89.8491 29.2933C96.3948 28.3558 103.081 27.3729 103.853 27.2094L103.646 26.2311C102.917 26.3855 96.2845 27.3614 89.7074 28.3034C86.4271 28.7731 83.1719 29.2329 80.6922 29.5752C79.4521 29.7464 78.407 29.8881 77.65 29.9869C77.2712 30.0363 76.9661 30.0748 76.7452 30.1009C76.6346 30.114 76.5471 30.1237 76.4829 30.1301C76.4091 30.1374 76.3882 30.138 76.395 30.138V31.138ZM86.7667 40.4529C83.8803 37.6568 81.3114 35.1162 79.4981 33.2757C78.5908 32.3548 77.8758 31.6124 77.4054 31.1019C77.1687 30.8451 77.0011 30.6546 76.9029 30.5324C76.8497 30.4663 76.8336 30.4405 76.8347 30.4424C76.8361 30.4448 76.8426 30.4564 76.8503 30.4748C76.8561 30.4887 76.8741 30.5331 76.8811 30.596C76.8873 30.6516 76.894 30.8087 76.7746 30.9561C76.6458 31.1151 76.4739 31.138 76.395 31.138V30.138C76.3079 30.138 76.1301 30.1631 75.9977 30.3265C75.8747 30.4783 75.8801 30.6421 75.8872 30.7065C75.9007 30.8274 75.9555 30.9195 75.9667 30.9391C76.0077 31.0108 76.0671 31.0888 76.1234 31.1589C76.2439 31.3088 76.4307 31.5198 76.67 31.7796C77.1519 32.3025 77.8762 33.0544 78.7857 33.9775C80.6061 35.8252 83.1809 38.3715 86.071 41.1711L86.7667 40.4529ZM97.2696 50.6274L86.7667 40.4529L86.071 41.1711L96.5738 51.3456L97.2696 50.6274ZM95.0034 65.1195L97.4145 51.0711L96.4289 50.9019L94.0178 64.9503L95.0034 65.1195ZM92.6016 78.877C92.6769 78.9519 92.7074 79.0306 92.7176 79.0587C92.7305 79.0944 92.7362 79.1236 92.7386 79.138C92.7437 79.1672 92.7442 79.188 92.7443 79.1906C92.7445 79.1987 92.744 79.1958 92.7453 79.1742C92.7478 79.1343 92.754 79.0681 92.765 78.9717C92.7867 78.7813 92.8242 78.5005 92.8763 78.1362C92.9803 77.409 93.1408 76.3645 93.3457 75.0788C93.7553 72.5082 94.3408 68.9815 95.0034 65.1194L94.0178 64.9503C93.3548 68.8151 92.7685 72.3459 92.3581 74.9215C92.153 76.2089 91.9915 77.2596 91.8864 77.9946C91.8339 78.3614 91.7949 78.6534 91.7715 78.8582C91.7599 78.9594 91.7513 79.0463 91.7472 79.1127C91.7453 79.1443 91.7436 79.1828 91.7447 79.2204C91.7452 79.2377 91.7467 79.2702 91.7532 79.308C91.7564 79.3268 91.763 79.3595 91.7769 79.3981C91.7881 79.429 91.8198 79.5098 91.8963 79.5859L92.6016 78.877ZM104.885 72.3065C101.389 74.1289 98.1949 75.7686 95.8652 76.9421C94.7 77.5291 93.7531 77.9983 93.0937 78.3153C92.7631 78.4741 92.509 78.5927 92.3371 78.6682C92.2497 78.7067 92.1916 78.7304 92.1584 78.7426C92.1395 78.7495 92.1421 78.7476 92.1572 78.744C92.1623 78.7428 92.1924 78.7355 92.2347 78.7336C92.2557 78.7327 92.2987 78.732 92.3522 78.743C92.4009 78.7529 92.5069 78.7823 92.6026 78.878L91.8954 79.585C91.9923 79.6819 92.1003 79.7122 92.1516 79.7227C92.2078 79.7342 92.2542 79.7337 92.2792 79.7326C92.3296 79.7304 92.3705 79.7212 92.3893 79.7167C92.4314 79.7067 92.4721 79.6926 92.5018 79.6818C92.5657 79.6584 92.6472 79.6243 92.7396 79.5836C92.9274 79.5011 93.1937 79.3767 93.5268 79.2166C94.1947 78.8956 95.148 78.4231 96.3151 77.8352C98.65 76.6591 101.849 75.0172 105.348 73.1932L104.885 72.3065ZM117.605 65.6767L104.885 72.3065L105.348 73.1932L118.067 66.5635L117.605 65.6767ZM130.771 72.2941L118.067 65.6766L117.605 66.5635L130.309 73.181L130.771 72.2941ZM143.028 78.8646C143.131 78.7618 143.247 78.7355 143.293 78.7276C143.347 78.7184 143.389 78.7203 143.409 78.7218C143.449 78.7247 143.478 78.7322 143.482 78.7332C143.495 78.7367 143.496 78.738 143.477 78.7308C143.443 78.718 143.385 78.6935 143.297 78.6547C143.126 78.5782 142.872 78.4589 142.543 78.2996C141.885 77.9817 140.94 77.5118 139.778 76.9249C137.453 75.7513 134.263 74.1132 130.771 72.2941L130.309 73.181C133.804 75.0014 136.997 76.6416 139.327 77.8176C140.492 78.4054 141.442 78.8782 142.108 79.1999C142.439 79.3604 142.704 79.4851 142.89 79.5681C142.982 79.609 143.062 79.6431 143.125 79.6666C143.154 79.6775 143.192 79.6914 143.232 79.7017C143.25 79.7062 143.289 79.7157 143.337 79.7192C143.361 79.7209 143.406 79.7228 143.463 79.7131C143.511 79.7048 143.629 79.6776 143.733 79.5737L143.028 78.8646ZM140.613 65.1185C141.276 68.9809 141.863 72.5067 142.275 75.0754C142.481 76.3601 142.643 77.4037 142.749 78.1298C142.802 78.4935 142.84 78.7739 142.862 78.9641C142.874 79.0603 142.88 79.1269 142.883 79.1673C142.885 79.1892 142.884 79.1929 142.885 79.186C142.885 79.1841 142.885 79.1642 142.889 79.1361C142.891 79.1224 142.896 79.0932 142.908 79.0572C142.917 79.0312 142.947 78.9453 143.028 78.8647L143.733 79.5736C143.815 79.4919 143.847 79.404 143.856 79.3753C143.869 79.3365 143.875 79.3039 143.878 79.286C143.883 79.2494 143.884 79.2181 143.884 79.2016C143.885 79.1657 143.883 79.1284 143.881 79.0975C143.876 79.0325 143.867 78.9467 143.855 78.8461C143.831 78.6427 143.792 78.3519 143.738 77.9859C143.632 77.2526 143.469 76.2034 143.263 74.9171C142.85 72.3438 142.262 68.8143 141.599 64.9494L140.613 65.1185ZM138.203 51.0692L140.613 65.1185L141.599 64.9494L139.188 50.9001L138.203 51.0692ZM148.862 40.4522L138.348 50.6253L139.043 51.344L149.557 41.1709L148.862 40.4522ZM159.159 31.138C159.095 31.138 158.962 31.1235 158.84 31.0166C158.712 30.9038 158.68 30.7618 158.675 30.6769C158.671 30.5988 158.688 30.5408 158.694 30.5195C158.703 30.4933 158.711 30.4759 158.714 30.4701C158.72 30.4574 158.711 30.4759 158.661 30.542C158.57 30.6609 158.41 30.8489 158.178 31.1056C157.718 31.6147 157.012 32.3561 156.112 33.2768C154.313 35.1164 151.751 37.6564 148.862 40.4522L149.557 41.1709C152.451 38.371 155.019 35.8242 156.827 33.976C157.73 33.0527 158.447 32.2999 158.92 31.7758C159.155 31.5158 159.338 31.3025 159.455 31.1492C159.509 31.0792 159.571 30.9939 159.611 30.9114C159.622 30.8896 159.682 30.7743 159.674 30.6257C159.669 30.5319 159.634 30.3833 159.501 30.266C159.374 30.1546 159.234 30.138 159.159 30.138V31.138ZM132.02 27.2389C133.409 27.4803 140.039 28.4546 146.381 29.3669C149.554 29.8234 152.66 30.265 155.009 30.5926C156.183 30.7563 157.169 30.8916 157.879 30.9861C158.234 31.0333 158.522 31.0704 158.731 31.0959C158.917 31.1186 159.085 31.138 159.159 31.138V30.138C159.162 30.138 159.077 30.1307 158.852 30.1032C158.648 30.0784 158.365 30.0418 158.011 29.9948C157.303 29.9008 156.32 29.7658 155.147 29.6021C152.8 29.2749 149.696 28.8335 146.523 28.3771C140.171 27.4634 133.562 26.4919 132.191 26.2537L132.02 27.2389ZM123.904 13.9609C126.939 20.1624 128.519 23.3753 129.526 25.0637C130.027 25.9045 130.417 26.4224 130.81 26.7417C131.233 27.0847 131.627 27.1706 132.02 27.2389L132.191 26.2537C131.844 26.1933 131.659 26.1428 131.44 25.9651C131.192 25.7636 130.876 25.3766 130.385 24.5517C129.405 22.9088 127.849 19.7477 124.802 13.5214L123.904 13.9609ZM117.809 1.5C117.654 1.5 117.552 1.42772 117.533 1.41475C117.5 1.39128 117.479 1.36976 117.473 1.36368C117.46 1.35002 117.457 1.34484 117.468 1.35997C117.487 1.38674 117.521 1.43775 117.571 1.51956C117.668 1.68011 117.806 1.92349 117.982 2.24518C118.333 2.8866 118.821 3.81787 119.414 4.97127C120.598 7.27699 122.19 10.4593 123.904 13.9609L124.802 13.5213C123.087 10.0157 121.492 6.82738 120.303 4.51437C119.71 3.3584 119.216 2.41826 118.859 1.76562C118.682 1.44027 118.535 1.18095 118.425 1.00056C118.372 0.911903 118.321 0.832877 118.277 0.772243C118.256 0.743662 118.227 0.705431 118.193 0.669648C118.176 0.652506 118.146 0.622647 118.104 0.593619C118.077 0.575079 117.969 0.5 117.809 0.5V1.5ZM111.722 13.9427C113.433 10.4458 115.023 7.2681 116.206 4.96575C116.798 3.81404 117.286 2.88416 117.636 2.2437C117.812 1.9225 117.949 1.67951 118.047 1.51923C118.096 1.43755 118.13 1.38666 118.149 1.35996C118.16 1.34488 118.158 1.3501 118.144 1.36379C118.139 1.36989 118.118 1.39142 118.084 1.41487C118.065 1.4279 117.963 1.5 117.809 1.5V0.5C117.649 0.5 117.54 0.5749 117.513 0.593478C117.472 0.622492 117.441 0.652342 117.425 0.669486C117.39 0.705265 117.361 0.743486 117.34 0.772044C117.296 0.832631 117.246 0.911574 117.192 1.00011C117.083 1.18026 116.936 1.43922 116.759 1.76408C116.402 2.41577 115.909 3.35454 115.317 4.50883C114.13 6.81849 112.537 10.0022 110.824 13.5031L111.722 13.9427ZM30.2039 73.4968C30.4154 73.4202 30.5919 73.2421 30.7225 73.0926C30.8716 72.9221 31.0388 72.6946 31.2237 72.4168C31.5947 71.8597 32.0658 71.0566 32.6443 69.9983C33.8029 67.8791 35.4134 64.697 37.5494 60.3201L36.6507 59.8815C34.5159 64.2561 32.9137 67.4208 31.7669 69.5186C31.1928 70.5688 30.7381 71.3419 30.3914 71.8626C30.2174 72.1239 30.0777 72.3108 29.9697 72.4345C29.8431 72.5792 29.8121 72.5751 29.8634 72.5565L30.2039 73.4968ZM14.7856 75.8251C18.7458 75.2834 22.4504 74.7533 25.2291 74.3354C26.6181 74.1266 27.7775 73.9455 28.6223 73.805C29.0443 73.7347 29.3904 73.6742 29.6483 73.6251C29.886 73.5799 30.0947 73.5364 30.2042 73.4967L29.8631 72.5566C29.8651 72.5559 29.8371 72.5648 29.756 72.583C29.6831 72.5993 29.585 72.6192 29.4614 72.6428C29.2145 72.6897 28.8772 72.7488 28.4582 72.8185C27.6208 72.9578 26.4673 73.138 25.0804 73.3466C22.3071 73.7636 18.607 74.2931 14.6501 74.8344L14.7856 75.8251ZM1.52985 77.6321C1.42079 77.5439 1.45409 77.5449 1.4805 77.6179C1.50301 77.6801 1.51155 77.7706 1.47567 77.8624C1.46017 77.9021 1.44075 77.9303 1.42649 77.9474C1.41264 77.9641 1.40261 77.9717 1.40248 77.9718C1.40221 77.972 1.40821 77.9674 1.42353 77.9589C1.43864 77.9505 1.46026 77.9397 1.48999 77.9268C1.5502 77.9006 1.6341 77.8701 1.74819 77.8355C1.97708 77.7662 2.30062 77.6887 2.74668 77.5998C4.53759 77.2429 8.10003 76.7399 14.7856 75.8251L14.6501 74.8344C7.9826 75.7466 4.38012 76.2546 2.55121 76.6191C2.09232 76.7105 1.73248 76.7954 1.45825 76.8784C1.19839 76.9572 0.962324 77.0492 0.794139 77.1781C0.705076 77.2463 0.60252 77.3493 0.544211 77.4986C0.480724 77.6611 0.491235 77.8229 0.540144 77.9581C0.619332 78.177 0.803098 78.3305 0.900885 78.4096L1.52985 77.6321ZM22.9658 98.0187C22.9658 97.8842 22.9127 97.7813 22.8998 97.7558C22.8773 97.7112 22.8511 97.6706 22.8286 97.638C22.7828 97.5715 22.7229 97.4962 22.6562 97.4172C22.5211 97.257 22.3285 97.0464 22.09 96.7954C21.6113 96.2916 20.9264 95.603 20.0955 94.786C18.4328 93.151 16.1733 90.9895 13.782 88.7392C9.00563 84.2444 3.6789 79.3716 1.52994 77.6322L0.900798 78.4095C3.01522 80.1209 8.31371 84.9664 13.0967 89.4675C15.4851 91.7151 17.7389 93.8711 19.3944 95.499C20.2227 96.3136 20.8982 96.9929 21.3651 97.4843C21.5994 97.7308 21.7759 97.9246 21.8918 98.0619C21.9506 98.1317 21.9866 98.1784 22.0053 98.2056C22.0151 98.2198 22.0134 98.2189 22.0072 98.2067C22.004 98.2003 21.9959 98.1837 21.9878 98.1591C21.9808 98.138 21.9658 98.0873 21.9658 98.0187H22.9658ZM20.6437 112.247C21.2804 108.555 21.8593 105.117 22.2792 102.551C22.4891 101.269 22.6594 100.204 22.7774 99.4333C22.8363 99.0484 22.8824 98.7355 22.9139 98.5052C22.9426 98.2956 22.9658 98.111 22.9658 98.0187H21.9658C21.9658 98.0108 21.9654 98.0312 21.957 98.1055C21.9497 98.1702 21.9384 98.2582 21.9232 98.3696C21.8927 98.5921 21.8475 98.899 21.7889 99.2819C21.6717 100.047 21.502 101.109 21.2923 102.39C20.873 104.952 20.2946 108.387 19.6583 112.077L20.6437 112.247ZM18.335 125.377C18.4086 125.45 18.4392 125.527 18.4498 125.556C18.463 125.591 18.4689 125.621 18.4716 125.635C18.4769 125.665 18.4775 125.686 18.4776 125.69C18.4779 125.699 18.4774 125.697 18.4786 125.677C18.4808 125.639 18.4866 125.577 18.497 125.485C18.5176 125.303 18.5533 125.035 18.6031 124.687C18.7026 123.991 18.8563 122.993 19.0527 121.764C19.4453 119.307 20.0073 115.937 20.6437 112.247L19.6583 112.077C19.0214 115.77 18.4587 119.144 18.0652 121.606C17.8685 122.837 17.7138 123.842 17.6132 124.545C17.563 124.896 17.5257 125.175 17.5034 125.372C17.4924 125.469 17.4842 125.553 17.4804 125.617C17.4785 125.648 17.4769 125.686 17.4782 125.724C17.4788 125.741 17.4804 125.773 17.4872 125.812C17.4906 125.83 17.4974 125.863 17.5116 125.902C17.5232 125.933 17.5549 126.012 17.6298 126.086L18.335 125.377ZM30.6233 118.81C27.1252 120.631 23.9295 122.269 21.5991 123.442C20.4335 124.029 19.4864 124.498 18.8268 124.815C18.4963 124.974 18.2421 125.092 18.0701 125.168C17.9827 125.207 17.9245 125.23 17.891 125.243C17.872 125.25 17.8744 125.248 17.889 125.244C17.894 125.243 17.9237 125.236 17.9656 125.234C17.9863 125.233 18.0291 125.232 18.0824 125.242C18.1306 125.252 18.238 125.281 18.335 125.377L17.6298 126.086C17.7281 126.184 17.8375 126.213 17.8882 126.223C17.9443 126.235 17.9904 126.234 18.0151 126.233C18.0651 126.23 18.1056 126.221 18.1241 126.216C18.1659 126.206 18.2062 126.192 18.2357 126.181C18.2994 126.158 18.3807 126.124 18.4731 126.083C18.6606 126.001 18.9269 125.876 19.26 125.716C19.9278 125.395 20.8813 124.923 22.0487 124.335C24.3843 123.16 27.5841 121.519 31.085 119.697L30.6233 118.81ZM43.3479 112.185L30.6233 118.81L31.085 119.697L43.8096 113.072L43.3479 112.185ZM56.5137 118.803L43.8097 112.185L43.3478 113.072L56.0517 119.69L56.5137 118.803ZM68.7707 125.373C68.8741 125.271 68.9896 125.244 69.0358 125.236C69.0893 125.227 69.1319 125.229 69.1515 125.231C69.1918 125.233 69.2201 125.241 69.2243 125.242C69.2376 125.245 69.2389 125.247 69.2197 125.24C69.1857 125.227 69.1272 125.202 69.0401 125.164C68.8685 125.087 68.615 124.968 68.2854 124.808C67.6278 124.49 66.6831 124.021 65.5203 123.434C63.1953 122.26 60.006 120.622 56.5137 118.803L56.0517 119.69C59.5466 121.51 62.7399 123.15 65.0697 124.326C66.2342 124.914 67.1848 125.387 67.8502 125.709C68.1821 125.869 68.4469 125.994 68.633 126.077C68.7247 126.118 68.8049 126.152 68.8672 126.175C68.8961 126.186 68.9351 126.2 68.975 126.21C68.9926 126.215 69.0316 126.225 69.0797 126.228C69.1033 126.23 69.1491 126.232 69.2051 126.222C69.2539 126.214 69.3714 126.186 69.4759 126.082L68.7707 125.373ZM66.3565 111.628C67.0191 115.49 67.6061 119.016 68.0179 121.585C68.2239 122.869 68.3857 123.913 68.4913 124.639C68.5442 125.002 68.5824 125.283 68.605 125.473C68.6165 125.569 68.6231 125.636 68.6259 125.676C68.6274 125.698 68.6271 125.702 68.6272 125.695C68.6272 125.693 68.6274 125.673 68.6317 125.645C68.6337 125.631 68.6387 125.602 68.6508 125.566C68.6596 125.54 68.6897 125.454 68.7707 125.373L69.4759 126.082C69.5581 126.001 69.5892 125.913 69.5989 125.884C69.6119 125.845 69.6176 125.813 69.6204 125.795C69.6259 125.758 69.6268 125.727 69.6271 125.71C69.6276 125.674 69.6256 125.637 69.6235 125.606C69.6189 125.541 69.61 125.456 69.598 125.355C69.5739 125.152 69.5341 124.861 69.4809 124.495C69.3743 123.762 69.2115 122.712 69.0053 121.426C68.5927 118.853 68.0051 115.324 67.3421 111.459L66.3565 111.628ZM63.9454 97.5799L66.3565 111.628L67.3421 111.459L64.931 97.4107L63.9454 97.5799ZM74.5931 86.9617L64.0903 97.1362L64.7861 97.8544L75.2889 87.6799L74.5931 86.9617ZM84.7725 77.6358C84.7165 77.6348 84.6146 77.6226 84.5114 77.5518C84.3981 77.4741 84.3378 77.3636 84.3145 77.2655C84.2939 77.1791 84.3028 77.1097 84.3086 77.0779C84.3149 77.0427 84.324 77.0179 84.3281 77.0075C84.3387 76.9804 84.3394 76.9894 84.2922 77.0556C84.2103 77.1706 84.0588 77.3562 83.8334 77.6132C83.3875 78.1219 82.6944 78.8633 81.8042 79.7848C80.0258 81.6256 77.4789 84.1663 74.5932 86.9617L75.2889 87.6799C78.1797 84.8796 80.735 82.3308 82.5234 80.4796C83.4167 79.555 84.1232 78.7997 84.5854 78.2724C84.8141 78.0116 84.9938 77.7943 85.1068 77.6357C85.157 77.5651 85.2211 77.4695 85.2593 77.3719C85.271 77.342 85.3275 77.2028 85.2873 77.0339C85.2618 76.9267 85.197 76.8094 85.077 76.7271C84.967 76.6517 84.8561 76.637 84.7887 76.6359L84.7725 77.6358ZM56.2419 73.3133C56.3141 73.3577 56.3912 73.3783 56.4004 73.381C56.4316 73.39 56.4663 73.3987 56.5009 73.4067C56.5711 73.423 56.6634 73.4421 56.7733 73.4634C56.9944 73.5063 57.3042 73.5616 57.6882 73.6274C58.4572 73.7591 59.535 73.9345 60.8196 74.1382C63.3896 74.5458 66.7939 75.068 70.226 75.5836C73.6582 76.0992 77.1194 76.6085 79.8033 76.9902C81.145 77.181 82.2937 77.3402 83.1477 77.4523C83.9812 77.5618 84.5756 77.6325 84.7724 77.6358L84.7888 76.6359C84.6652 76.6339 84.1472 76.575 83.2779 76.4609C82.4291 76.3494 81.2845 76.1908 79.9441 76.0002C77.2637 75.6189 73.8052 75.1101 70.3746 74.5947C66.944 74.0793 63.5426 73.5576 60.9763 73.1506C59.6928 72.947 58.6199 72.7724 57.857 72.6418C57.4752 72.5763 57.1738 72.5224 56.9636 72.4817C56.8579 72.4612 56.7796 72.4449 56.7273 72.4327C56.7007 72.4265 56.6862 72.4226 56.6805 72.421C56.653 72.4129 56.7057 72.4245 56.7663 72.4618L56.2419 73.3133ZM49.5449 60.3028C51.233 63.7624 52.8103 66.9343 53.9918 69.2582C54.5823 70.4197 55.0751 71.3715 55.4338 72.042C55.6128 72.3767 55.7606 72.6452 55.8714 72.8359C55.9263 72.9305 55.9756 73.0119 56.017 73.0746C56.0373 73.1054 56.0603 73.1385 56.0843 73.1689C56.0932 73.1802 56.1511 73.2576 56.2426 73.3137L56.7656 72.4614C56.8156 72.4921 56.846 72.5238 56.8525 72.5306C56.8633 72.5418 56.8693 72.5494 56.8696 72.5498C56.8702 72.5506 56.8646 72.5433 56.8513 72.5233C56.8256 72.4843 56.7875 72.4222 56.7361 72.3336C56.6341 72.1581 56.4928 71.9017 56.3155 71.5703C55.9617 70.9088 55.4726 69.9642 54.8832 68.8049C53.7048 66.4872 52.13 63.3204 50.4436 59.8642L49.5449 60.3028ZM43.5512 48.0088C43.3972 48.0088 43.2953 47.937 43.2762 47.9238C43.2423 47.9003 43.2212 47.8787 43.2152 47.8725C43.2018 47.8586 43.199 47.8531 43.2098 47.8679C43.2287 47.894 43.2616 47.944 43.3106 48.0247C43.4065 48.183 43.5424 48.423 43.7155 48.7404C44.0607 49.3733 44.5421 50.2923 45.1254 51.4306C46.2913 53.7061 47.8583 56.8467 49.5449 60.3028L50.4436 59.8642C48.7551 56.4042 47.185 53.2574 46.0153 50.9746C45.4308 49.8337 44.9448 48.9058 44.5935 48.2616C44.4183 47.9405 44.2737 47.6844 44.1656 47.5062C44.1125 47.4186 44.0626 47.3404 44.0189 47.2802C43.9983 47.2519 43.9693 47.2138 43.9348 47.178C43.9183 47.1609 43.8879 47.1311 43.8461 47.1021C43.8191 47.0833 43.7105 47.0088 43.5512 47.0088V48.0088ZM37.5494 60.3201C39.238 56.8592 40.8071 53.7143 41.9746 51.4357C42.5586 50.2958 43.0406 49.3756 43.3862 48.7418C43.5596 48.4239 43.6957 48.1835 43.7918 48.025C43.8408 47.9442 43.8737 47.8941 43.8927 47.8679C43.9035 47.853 43.9008 47.8585 43.8874 47.8724C43.8814 47.8786 43.8603 47.9002 43.8264 47.9237C43.8074 47.9369 43.7054 48.0088 43.5512 48.0088V47.0088C43.3918 47.0088 43.2832 47.0835 43.2563 47.1022C43.2145 47.1312 43.1841 47.161 43.1676 47.1782C43.1331 47.2139 43.1041 47.252 43.0835 47.2804C43.0398 47.3406 42.9898 47.4189 42.9367 47.5066C42.8285 47.685 42.6837 47.9414 42.5083 48.263C42.1565 48.9081 41.6699 49.8372 41.0846 50.9797C39.9134 53.2657 38.3412 56.4167 36.6507 59.8816L37.5494 60.3201ZM178.118 73.7169C178.509 73.6339 178.862 73.468 179.25 73.0731C179.614 72.7022 180.011 72.1274 180.527 71.2373C181.561 69.4512 183.154 66.2452 185.988 60.45L185.09 60.0107C182.248 65.8213 180.673 68.9881 179.661 70.7363C179.153 71.6134 178.808 72.0961 178.536 72.3724C178.289 72.6247 178.113 72.6957 177.91 72.7386L178.118 73.7169ZM150.664 77.6468C150.746 77.6468 150.924 77.6273 151.131 77.6028C151.358 77.5759 151.667 77.5368 152.047 77.4871C152.808 77.3877 153.855 77.2455 155.096 77.0741C157.578 76.7312 160.836 76.2707 164.118 75.8005C170.664 74.8624 177.351 73.8792 178.118 73.7169L177.91 72.7386C177.186 72.8918 170.554 73.868 163.976 74.8106C160.695 75.2807 157.439 75.7409 154.959 76.0835C153.719 76.2548 152.674 76.3966 151.918 76.4955C151.539 76.545 151.234 76.5836 151.013 76.6097C150.903 76.6228 150.815 76.6325 150.751 76.6389C150.678 76.6462 150.657 76.6468 150.664 76.6468V77.6468ZM161.036 86.9633C158.153 84.1667 155.586 81.6256 153.772 79.7849C152.865 78.8638 152.149 78.1212 151.678 77.6105C151.441 77.3536 151.273 77.1629 151.173 77.0402C151.12 76.9741 151.103 76.9474 151.103 76.948C151.104 76.95 151.111 76.9608 151.118 76.9782C151.124 76.9913 151.142 77.0338 151.15 77.0945C151.157 77.1455 151.169 77.3029 151.053 77.4543C150.924 77.622 150.746 77.6468 150.664 77.6468V76.6468C150.575 76.6468 150.391 76.6738 150.259 76.8459C150.14 77.0017 150.15 77.1658 150.158 77.2257C150.174 77.3426 150.228 77.4316 150.239 77.4511C150.28 77.5215 150.339 77.5987 150.396 77.6687C150.517 77.8183 150.703 78.029 150.943 78.2888C151.426 78.8116 152.15 79.5634 153.06 80.4866C154.88 82.3344 157.453 84.8811 160.34 87.6811L161.036 86.9633ZM171.527 97.1387L161.036 86.9633L160.34 87.6811L170.831 97.8565L171.527 97.1387ZM169.261 111.63L171.671 97.5821L170.686 97.413L168.275 111.46L169.261 111.63ZM166.853 125.38C166.931 125.458 166.962 125.54 166.971 125.567C166.984 125.603 166.989 125.632 166.991 125.646C166.996 125.675 166.996 125.695 166.997 125.697C166.997 125.705 166.996 125.702 166.998 125.68C167 125.64 167.007 125.573 167.018 125.477C167.04 125.287 167.078 125.006 167.13 124.642C167.235 123.916 167.396 122.872 167.601 121.587C168.012 119.017 168.598 115.491 169.261 111.63L168.275 111.46C167.612 115.325 167.025 118.855 166.614 121.429C166.408 122.716 166.246 123.766 166.14 124.5C166.088 124.866 166.048 125.158 166.025 125.362C166.013 125.463 166.004 125.549 166 125.615C165.998 125.646 165.996 125.684 165.997 125.721C165.997 125.738 165.998 125.77 166.004 125.807C166.007 125.825 166.014 125.858 166.027 125.897C166.038 125.927 166.069 126.011 166.148 126.089L166.853 125.38ZM179.138 118.81C175.64 120.631 172.445 122.27 170.115 123.443C168.95 124.03 168.003 124.5 167.344 124.817C167.013 124.976 166.759 125.095 166.587 125.171C166.5 125.21 166.441 125.234 166.408 125.246C166.389 125.253 166.391 125.252 166.405 125.248C166.41 125.247 166.439 125.239 166.48 125.237C166.501 125.236 166.543 125.235 166.597 125.245C166.644 125.254 166.754 125.282 166.853 125.38L166.148 126.089C166.249 126.189 166.361 126.218 166.411 126.227C166.467 126.238 166.513 126.237 166.537 126.235C166.587 126.233 166.627 126.223 166.645 126.219C166.686 126.209 166.726 126.195 166.755 126.184C166.818 126.16 166.899 126.126 166.992 126.086C167.179 126.003 167.445 125.878 167.777 125.718C168.445 125.397 169.398 124.924 170.565 124.336C172.9 123.16 176.099 121.519 179.6 119.697L179.138 118.81ZM191.863 112.185L179.138 118.81L179.6 119.697L192.324 113.072L191.863 112.185ZM205.029 118.803L192.325 112.185L191.863 113.072L204.567 119.69L205.029 118.803ZM217.288 125.371C217.389 125.27 217.502 125.243 217.549 125.234C217.603 125.224 217.646 125.226 217.666 125.227C217.707 125.23 217.735 125.237 217.74 125.238C217.754 125.242 217.755 125.243 217.736 125.236C217.702 125.224 217.644 125.199 217.557 125.161C217.385 125.084 217.132 124.965 216.802 124.806C216.144 124.489 215.199 124.019 214.036 123.433C211.71 122.26 208.521 120.622 205.029 118.803L204.567 119.69C208.061 121.51 211.255 123.15 213.586 124.326C214.751 124.913 215.702 125.386 216.367 125.707C216.7 125.867 216.965 125.992 217.151 126.075C217.243 126.115 217.323 126.15 217.386 126.173C217.415 126.184 217.455 126.198 217.495 126.208C217.513 126.213 217.553 126.222 217.601 126.225C217.625 126.227 217.671 126.228 217.728 126.218C217.777 126.209 217.892 126.181 217.995 126.078L217.288 125.371ZM214.974 112.247C215.61 115.937 216.173 119.307 216.566 121.763C216.763 122.991 216.918 123.989 217.018 124.683C217.068 125.031 217.104 125.299 217.126 125.48C217.136 125.572 217.142 125.635 217.145 125.673C217.146 125.693 217.145 125.696 217.146 125.687C217.146 125.684 217.146 125.663 217.151 125.634C217.153 125.62 217.159 125.59 217.172 125.555C217.182 125.527 217.212 125.446 217.289 125.37L217.994 126.079C218.072 126.002 218.103 125.92 218.114 125.889C218.128 125.851 218.134 125.818 218.137 125.799C218.144 125.762 218.145 125.73 218.145 125.713C218.146 125.677 218.144 125.639 218.143 125.609C218.138 125.545 218.13 125.462 218.119 125.365C218.096 125.169 218.058 124.89 218.008 124.54C217.907 123.838 217.751 122.834 217.554 121.604C217.159 119.144 216.596 115.77 215.959 112.077L214.974 112.247ZM212.651 98.0169C212.651 98.1093 212.675 98.294 212.703 98.5037C212.735 98.7341 212.781 99.0471 212.84 99.4321C212.958 100.203 213.128 101.268 213.338 102.551C213.758 105.116 214.337 108.555 214.974 112.247L215.959 112.077C215.323 108.387 214.744 104.951 214.325 102.389C214.115 101.108 213.946 100.046 213.828 99.2808C213.77 98.8978 213.725 98.5908 213.694 98.3682C213.679 98.2567 213.668 98.1686 213.66 98.1039C213.652 98.0296 213.651 98.0091 213.651 98.0169H212.651ZM223.784 86.9706C220.765 89.7108 218.018 92.2847 216.025 94.2249C215.029 95.1943 214.217 96.009 213.653 96.6086C213.372 96.9074 213.146 97.1591 212.988 97.3529C212.91 97.4488 212.84 97.5398 212.788 97.6207C212.762 97.6608 212.734 97.7083 212.711 97.7595C212.693 97.7984 212.651 97.8948 212.651 98.0169H213.651C213.651 98.0721 213.641 98.1134 213.636 98.1332C213.629 98.1548 213.623 98.1692 213.621 98.1743C213.616 98.1837 213.617 98.1811 213.629 98.1628C213.652 98.1272 213.694 98.0689 213.763 97.9847C213.898 97.8185 214.105 97.587 214.381 97.294C214.931 96.7101 215.73 95.9071 216.722 94.9415C218.705 93.0115 221.443 90.4457 224.456 87.7111L223.784 86.9706ZM234.645 77.6501C234.453 77.4573 234.504 77.2239 234.513 77.1846C234.529 77.1189 234.554 77.0729 234.561 77.0599C234.58 77.0269 234.597 77.0057 234.597 77.0053C234.602 76.9986 234.601 77.0007 234.586 77.017C234.559 77.0462 234.512 77.0939 234.443 77.1623C234.306 77.2974 234.098 77.4964 233.825 77.7539C233.281 78.2681 232.487 79.0071 231.501 79.9169C229.531 81.736 226.8 84.2336 223.784 86.9706L224.456 87.7111C227.473 84.9728 230.206 82.4733 232.18 80.6517C233.166 79.7411 233.964 78.999 234.512 78.4808C234.786 78.2222 235 78.0173 235.145 77.8744C235.216 77.8038 235.275 77.7441 235.317 77.699C235.337 77.6781 235.361 77.6514 235.383 77.6244C235.391 77.6139 235.414 77.5846 235.435 77.5458C235.444 77.5298 235.471 77.4813 235.487 77.4138C235.496 77.3727 235.547 77.138 235.354 76.9444L234.645 77.6501ZM221.099 75.8384C224.878 76.3515 228.323 76.8278 230.829 77.1818C232.083 77.3588 233.1 77.5052 233.807 77.6102C234.161 77.6628 234.435 77.7048 234.621 77.7349C234.715 77.7501 234.783 77.7618 234.827 77.77C234.85 77.7743 234.861 77.7766 234.864 77.7773C234.866 77.7778 234.858 77.776 234.845 77.772C234.839 77.7701 234.823 77.765 234.802 77.7561C234.801 77.7556 234.721 77.7253 234.647 77.6518L235.352 76.9427C235.278 76.8684 235.196 76.8372 235.193 76.8358C235.17 76.8259 235.15 76.8197 235.141 76.8167C235.12 76.8103 235.101 76.8058 235.09 76.8032C235.066 76.7976 235.038 76.7921 235.011 76.787C234.955 76.7765 234.877 76.7633 234.781 76.7478C234.588 76.7165 234.309 76.6738 233.954 76.6211C233.244 76.5155 232.223 76.3688 230.969 76.1916C228.461 75.8373 225.013 75.3608 221.233 74.8475L221.099 75.8384ZM206.014 73.7037C206.754 73.8533 213.554 74.8144 221.099 75.8384L221.233 74.8475C213.66 73.8196 206.911 72.8647 206.212 72.7235L206.014 73.7037ZM198.135 60.4486C200.981 66.2699 202.573 69.4755 203.603 71.2533C204.117 72.139 204.513 72.7089 204.877 73.075C205.267 73.4664 205.622 73.6247 206.014 73.7037L206.211 72.7234C206.003 72.6814 205.829 72.6134 205.586 72.3691C205.317 72.0996 204.974 71.6245 204.468 70.7517C203.46 69.0123 201.887 65.8467 199.033 60.0094L198.135 60.4486ZM192.063 48.0088C191.906 48.0088 191.802 47.9341 191.785 47.9217C191.751 47.8981 191.73 47.8765 191.725 47.8706C191.712 47.8571 191.709 47.8521 191.72 47.8673C191.74 47.8942 191.773 47.9453 191.823 48.027C191.92 48.1875 192.057 48.4306 192.232 48.7518C192.581 49.3922 193.068 50.322 193.658 51.4735C194.838 53.7755 196.426 56.9526 198.135 60.4486L199.033 60.0093C197.322 56.5094 195.732 53.3264 194.548 51.0173C193.957 49.8633 193.465 48.9248 193.11 48.2733C192.933 47.9485 192.787 47.6898 192.678 47.5098C192.625 47.4214 192.575 47.3427 192.531 47.2823C192.511 47.2539 192.482 47.2159 192.448 47.1803C192.432 47.1633 192.402 47.1334 192.361 47.1043C192.335 47.0863 192.225 47.0088 192.063 47.0088V48.0088ZM185.988 60.45C187.698 56.9535 189.286 53.7761 190.467 51.4739C191.057 50.3223 191.545 49.3924 191.894 48.7519C192.069 48.4306 192.206 48.1875 192.303 48.027C192.353 47.9453 192.386 47.8941 192.405 47.8672C192.416 47.8519 192.414 47.8569 192.401 47.8704C192.396 47.8763 192.375 47.8979 192.341 47.9215C192.324 47.9338 192.22 48.0088 192.063 48.0088V47.0088C191.9 47.0088 191.79 47.0866 191.765 47.1045C191.723 47.1336 191.693 47.1635 191.677 47.1805C191.643 47.2161 191.615 47.254 191.594 47.2824C191.551 47.3427 191.501 47.4214 191.447 47.5099C191.339 47.6898 191.193 47.9486 191.016 48.2734C190.661 48.9249 190.169 49.8634 189.577 51.0176C188.393 53.3269 186.802 56.5103 185.09 60.0107L185.988 60.45ZM86.4509 118.196C90.4965 108.291 100.17 100.268 110.812 97.9998L110.604 97.0218C99.6442 99.3573 89.6982 107.601 85.5251 117.818L86.4509 118.196ZM86.498 143.727C83.1952 135.921 83.1749 126.215 86.4508 118.196L85.5251 117.818C82.1509 126.078 82.1682 136.06 85.577 144.116L86.498 143.727ZM110.728 163.834C100.531 161.91 90.77 153.823 86.498 143.727L85.577 144.116C89.9711 154.501 99.9958 162.827 110.542 164.817L110.728 163.834ZM111.667 166.105C112.329 166.105 112.843 166.062 113.18 165.969C113.327 165.928 113.551 165.849 113.698 165.666C113.787 165.555 113.847 165.404 113.832 165.23C113.819 165.07 113.746 164.949 113.682 164.87C113.563 164.722 113.389 164.617 113.236 164.54C113.068 164.456 112.862 164.375 112.626 164.297C112.151 164.14 111.513 163.983 110.728 163.834L110.542 164.817C111.303 164.96 111.894 165.108 112.312 165.246C112.522 165.316 112.678 165.379 112.787 165.433C112.909 165.495 112.923 165.522 112.904 165.498C112.89 165.481 112.845 165.419 112.836 165.315C112.826 165.199 112.869 165.102 112.917 165.042C112.982 164.96 113.032 164.972 112.912 165.005C112.714 165.06 112.315 165.105 111.667 165.105V166.105ZM106.875 166.957C107.801 166.721 108.811 166.507 109.69 166.352C110.581 166.195 111.302 166.105 111.667 166.105V165.105C111.205 165.105 110.406 165.21 109.516 165.367C108.613 165.526 107.579 165.746 106.629 165.988L106.875 166.957ZM71.5238 201.769C76.2896 184.176 89.2119 171.451 106.875 166.957L106.629 165.988C88.6157 170.571 75.4187 183.566 70.5585 201.507L71.5238 201.769ZM70.2929 219.758C70.4775 206.703 70.586 205.231 71.5238 201.769L70.5585 201.507C69.5812 205.116 69.477 206.727 69.293 219.744L70.2929 219.758ZM70.0912 234.007L70.2929 219.758L69.293 219.744L69.0913 233.993L70.0912 234.007ZM117.809 233.5H69.5913V234.5H117.809V233.5ZM166.026 233.5H117.809V234.5H166.026V233.5ZM165.326 219.758L165.526 234.007L166.526 233.993L166.326 219.744L165.326 219.758ZM164.199 202.201C165.013 205.159 165.149 207.145 165.326 219.758L166.326 219.744C166.15 207.18 166.019 205.045 165.163 201.935L164.199 202.201ZM136.863 169.675C150.305 175.449 160.006 186.974 164.199 202.201L165.163 201.935C160.897 186.442 151.003 174.66 137.258 168.757L136.863 169.675ZM123.937 166.105C125.048 166.105 127.211 166.534 129.669 167.211C132.107 167.882 134.772 168.777 136.863 169.675L137.258 168.757C135.115 167.836 132.405 166.926 129.934 166.246C127.481 165.571 125.199 165.105 123.937 165.105V166.105ZM124.053 164.017C123.433 164.101 122.934 164.217 122.574 164.353C122.395 164.42 122.229 164.5 122.095 164.597C121.977 164.684 121.799 164.845 121.757 165.098C121.706 165.402 121.876 165.623 122.024 165.739C122.165 165.849 122.34 165.916 122.507 165.962C122.849 166.056 123.332 166.105 123.937 166.105V165.105C123.369 165.105 122.989 165.057 122.771 164.998C122.719 164.984 122.683 164.97 122.659 164.96C122.634 164.949 122.631 164.944 122.64 164.951C122.648 164.958 122.682 164.986 122.71 165.043C122.742 165.106 122.756 165.185 122.743 165.264C122.731 165.337 122.7 165.382 122.687 165.399C122.674 165.416 122.668 165.417 122.684 165.406C122.718 165.381 122.792 165.339 122.926 165.289C123.191 165.189 123.608 165.087 124.188 165.008L124.053 164.017ZM141.712 154.61C136.884 159.477 129.807 163.232 124.053 164.017L124.188 165.008C130.196 164.189 137.466 160.31 142.422 155.314L141.712 154.61ZM151.529 132.733C150.944 141.637 147.939 148.332 141.712 154.61L142.421 155.314C148.82 148.864 151.926 141.941 152.526 132.799L151.529 132.733ZM117.489 97.2908C136.874 97.089 152.781 113.667 151.529 132.733L152.526 132.799C153.818 113.137 137.431 96.0832 117.479 96.2908L117.489 97.2908ZM110.812 97.9998C112.539 97.6316 115.555 97.3105 117.489 97.2908L117.479 96.2908C115.484 96.3112 112.401 96.6385 110.604 97.0218L110.812 97.9998ZM30.1369 146.337C33.9929 142.502 37.4686 140.48 42.3948 139.196L42.1426 138.229C37.034 139.56 33.4048 141.676 29.4317 145.628L30.1369 146.337ZM22.9386 158.705C24.2397 153.647 26.2267 150.227 30.1369 146.337L29.4317 145.628C25.4009 149.638 23.3184 153.214 21.9701 158.456L22.9386 158.705ZM22.9386 171.592C21.8104 167.203 21.8104 163.094 22.9386 158.705L21.9701 158.456C20.8 163.008 20.8 167.289 21.9701 171.841L22.9386 171.592ZM30.1369 183.96C26.2267 180.071 24.2397 176.651 22.9386 171.592L21.9701 171.841C23.3184 177.083 25.4009 180.66 29.4317 184.669L30.1369 183.96ZM42.3926 191.085C37.4919 189.831 34.0045 187.807 30.1369 183.96L29.4317 184.669C33.4161 188.632 37.0583 190.752 42.1448 192.053L42.3926 191.085ZM41.5872 193.909C42.6577 193.693 43.4802 193.524 44.0482 193.377C44.3303 193.303 44.5703 193.231 44.7536 193.154C44.845 193.116 44.9394 193.069 45.0232 193.011C45.0999 192.957 45.2164 192.861 45.2823 192.704C45.3622 192.515 45.3345 192.32 45.2464 192.168C45.1729 192.042 45.0676 191.959 44.9929 191.91C44.84 191.807 44.6319 191.723 44.4124 191.647C43.9596 191.49 43.2736 191.31 42.3926 191.085L42.1448 192.053C43.0389 192.282 43.6801 192.452 44.0854 192.592C44.2949 192.664 44.3985 192.715 44.4375 192.741C44.4587 192.755 44.4192 192.735 44.3814 192.67C44.3288 192.579 44.3064 192.445 44.3609 192.316C44.3824 192.265 44.4093 192.231 44.4253 192.214C44.4336 192.205 44.4404 192.199 44.4446 192.196C44.4489 192.192 44.4514 192.19 44.4515 192.19C44.4516 192.19 44.45 192.191 44.4461 192.194C44.4424 192.196 44.4369 192.199 44.4296 192.203C44.4146 192.211 44.394 192.22 44.3666 192.232C44.2512 192.28 44.0672 192.339 43.7974 192.409C43.2615 192.547 42.4683 192.712 41.3899 192.929L41.5872 193.909ZM24.6445 203.629C29.5505 198.503 35.4047 195.153 41.5872 193.909L41.3899 192.929C34.9834 194.217 28.9519 197.683 23.9221 202.938L24.6445 203.629ZM15.1734 228.737C15.1734 223.278 15.8557 218.77 17.3736 214.75C18.8905 210.732 21.2519 207.175 24.6445 203.629L23.922 202.938C20.4546 206.561 18.011 210.23 16.438 214.396C14.866 218.56 14.1734 223.195 14.1734 228.737H15.1734ZM15.1734 234V228.737H14.1734V234H15.1734ZM35.3004 233.5H14.6734V234.5H35.3004V233.5ZM55.9275 233.5H35.3004V234.5H55.9275V233.5ZM55.4302 221.803L55.4275 234L56.4275 234L56.4302 221.803L55.4302 221.803ZM57.6883 197.63C55.9004 203.949 55.433 209.03 55.4302 221.803L56.4302 221.803C56.433 209.052 56.9015 204.084 58.6505 197.902L57.6883 197.63ZM58.2141 195.548C58.0877 196.133 57.9053 196.863 57.6883 197.63L58.6505 197.902C58.8723 197.118 59.06 196.368 59.1916 195.759L58.2141 195.548ZM59.0461 193.042C58.7248 194.098 58.4538 194.985 58.2463 195.449L59.1593 195.857C59.3992 195.321 59.692 194.355 60.0028 193.333L59.0461 193.042ZM60.5528 188.776C60.0149 189.852 59.4872 191.593 59.0461 193.042L60.0028 193.333C60.4547 191.848 60.9562 190.206 61.4472 189.224L60.5528 188.776ZM60.9587 189.505L61.0384 189.499L60.9616 188.501L60.8819 188.508L60.9587 189.505ZM61.4819 186.68L60.4696 188.79L61.3711 189.222L62.3835 187.113L61.4819 186.68ZM72.2904 170.979C67.966 175.742 63.8954 181.652 61.4819 186.68L62.3835 187.113C64.7491 182.184 68.7615 176.353 73.0308 171.651L72.2904 170.979ZM76.0545 164.565C76.0545 165.794 76.0419 166.289 75.6268 167.008C75.1716 167.797 74.2488 168.822 72.2904 170.979L73.0308 171.651C74.9453 169.542 75.9694 168.416 76.493 167.508C77.0566 166.531 77.0545 165.783 77.0545 164.565H76.0545ZM72.8155 152.471C73.6973 154.146 74.5095 156.358 75.1011 158.57C75.6936 160.785 76.0545 162.962 76.0545 164.565H77.0545C77.0545 162.84 76.6711 160.57 76.0672 158.312C75.4624 156.051 74.6263 153.764 73.7003 152.005L72.8155 152.471ZM61.7993 141.513C63.5943 142.449 65.8727 144.277 67.9553 146.348C70.038 148.42 71.8753 150.686 72.8155 152.471L73.7003 152.005C72.6923 150.092 70.775 147.743 68.6606 145.639C66.546 143.536 64.1848 141.629 62.2614 140.627L61.7993 141.513ZM42.3948 139.196C48.6867 137.557 55.8405 138.408 61.7993 141.513L62.2614 140.627C56.0905 137.41 48.6826 136.524 42.1426 138.229L42.3948 139.196ZM173.825 141.509C175.353 140.713 178.102 139.667 179.909 139.196L179.656 138.229C177.783 138.717 174.963 139.789 173.363 140.622L173.825 141.509ZM162.802 152.471C163.743 150.685 165.58 148.418 167.663 146.346C169.746 144.275 172.026 142.447 173.825 141.509L173.363 140.622C171.436 141.627 169.073 143.534 166.958 145.637C164.843 147.741 162.926 150.09 161.917 152.005L162.802 152.471ZM159.563 164.565C159.563 162.962 159.924 160.785 160.516 158.57C161.108 156.358 161.92 154.146 162.802 152.471L161.917 152.005C160.991 153.764 160.155 156.051 159.55 158.312C158.946 160.57 158.563 162.84 158.563 164.565H159.563ZM163.327 170.979C161.368 168.822 160.446 167.797 159.99 167.008C159.575 166.289 159.563 165.794 159.563 164.565H158.563C158.563 165.783 158.561 166.531 159.124 167.508C159.648 168.416 160.672 169.542 162.586 171.651L163.327 170.979ZM174.135 186.68C171.722 181.652 167.651 175.742 163.327 170.979L162.586 171.651C166.856 176.353 170.868 182.184 173.234 187.113L174.135 186.68ZM175.211 188.922L174.135 186.68L173.234 187.113L174.309 189.354L175.211 188.922ZM176.634 193.388C176.167 191.817 175.656 190.099 175.228 188.962L174.292 189.314C174.704 190.41 175.204 192.088 175.676 193.673L176.634 193.388ZM177.679 196.714C177.413 196.003 177.041 194.755 176.634 193.388L175.676 193.673C176.077 195.023 176.461 196.313 176.742 197.065L177.679 196.714ZM177.929 197.63C177.845 197.334 177.767 197.043 177.694 196.764L176.726 197.015C176.8 197.301 176.881 197.599 176.967 197.902L177.929 197.63ZM180.187 221.803C180.184 209.03 179.717 203.949 177.929 197.63L176.967 197.902C178.716 204.084 179.184 209.052 179.187 221.803L180.187 221.803ZM180.19 234L180.187 221.803L179.187 221.803L179.19 234L180.19 234ZM200.317 233.5H179.69V234.5H200.317V233.5ZM220.944 233.5H200.317V234.5H220.944V233.5ZM220.444 228.737V234H221.444V228.737H220.444ZM214.801 208.285C218.811 214.372 220.444 220.261 220.444 228.737H221.444C221.444 220.097 219.769 214.01 215.636 207.735L214.801 208.285ZM194.03 193.911C202.068 195.535 210.023 201.032 214.801 208.285L215.636 207.735C210.721 200.273 202.543 194.61 194.228 192.931L194.03 193.911ZM193.225 191.085C192.344 191.31 191.658 191.49 191.205 191.647C190.986 191.723 190.777 191.807 190.625 191.909C190.55 191.959 190.445 192.041 190.371 192.168C190.283 192.32 190.255 192.514 190.335 192.704C190.401 192.86 190.517 192.957 190.594 193.01C190.678 193.069 190.772 193.115 190.863 193.154C191.047 193.231 191.287 193.303 191.569 193.377C192.137 193.524 192.959 193.694 194.03 193.911L194.228 192.931C193.149 192.713 192.356 192.548 191.82 192.409C191.55 192.339 191.366 192.28 191.251 192.232C191.223 192.22 191.203 192.21 191.188 192.203C191.18 192.199 191.175 192.196 191.171 192.194C191.167 192.191 191.166 192.19 191.166 192.19C191.166 192.19 191.169 192.192 191.173 192.196C191.177 192.199 191.184 192.205 191.192 192.214C191.208 192.231 191.235 192.265 191.256 192.316C191.311 192.445 191.288 192.579 191.236 192.67C191.198 192.735 191.159 192.755 191.18 192.741C191.219 192.715 191.322 192.664 191.532 192.592C191.937 192.452 192.578 192.282 193.473 192.053L193.225 191.085ZM205.48 183.96C201.613 187.807 198.125 189.831 193.225 191.085L193.473 192.053C198.559 190.752 202.201 188.632 206.186 184.669L205.48 183.96ZM212.679 171.592C211.378 176.651 209.391 180.071 205.48 183.96L206.186 184.669C210.216 180.66 212.299 177.083 213.647 171.841L212.679 171.592ZM210.329 152.471C213.46 158.415 214.301 165.283 212.679 171.592L213.647 171.841C215.333 165.284 214.457 158.161 211.214 152.005L210.329 152.471ZM199.313 141.513C201.108 142.449 203.386 144.277 205.469 146.348C207.552 148.42 209.389 150.686 210.329 152.471L211.214 152.005C210.206 150.092 208.289 147.743 206.174 145.639C204.06 143.536 201.698 141.629 199.775 140.627L199.313 141.513ZM179.908 139.196C186.2 137.557 193.354 138.408 199.313 141.513L199.775 140.627C193.604 137.41 186.196 136.524 179.656 138.229L179.908 139.196Z" class="color_122F47" style="stroke-dashoffset: 650px;"/>
                                                    <path d="M128 172C139.333 175.333 161.4 191.3 159 228.5" stroke="#C0EDE3" stroke-width="3" stroke-linecap="round" style="stroke-dashoffset: 650px;"/>
                                                </svg>